<mxfile host="app.diagrams.net" modified="2022-12-06T03:26:55.189Z" agent="5.0 (Windows NT 10.0; Win64; x64) AppleWebKit/537.36 (KHTML, like Gecko) Chrome/107.0.0.0 Safari/537.36" etag="OntVShfY6y2U0j5uh26D" version="20.5.3" type="github">
  <diagram id="icM-xgtoRiGdnd9oCxqz" name="Page-1">
    <mxGraphModel dx="1024" dy="-3604" grid="1" gridSize="10" guides="1" tooltips="1" connect="1" arrows="1" fold="1" page="1" pageScale="1" pageWidth="1169" pageHeight="827" math="0" shadow="0">
      <root>
        <mxCell id="0" />
        <mxCell id="1" parent="0" />
        <mxCell id="4cucYftqtRLUNSPELrtI-1" value="" style="shape=image;verticalLabelPosition=bottom;labelBackgroundColor=default;verticalAlign=top;aspect=fixed;imageAspect=0;image=data:image/png,iVBORw0KGgoAAAANSUhEUgAAAuMAAALqCAYAAACfclpsAAAAAXNSR0IArs4c6QAAAARnQU1BAACxjwv8YQUAAAAJcEhZcwAADsMAAA7DAcdvqGQAAP+lSURBVHhe7N0FgFRV3wbwZ3pmu3dZlu5ukE4J6RAEBUUBkVCxW+wGEQMMVEI6BOmU7u5udpft2dnpOd+5s0MKfNbuLL7P73vnk524eeJ/7j3nXJWQQERERERE+U7t+y8REREREeUzBuNERERERH7CYJyIiIiIyE8YjBMRERER+QmDcSIiIiIiP2EwTkRERETkJwzGiYiIiIj8hME4EREREZGfMBgnIiIiIvITBuNERERERH7CYJyIiIiIyE8YjBMRERER+QmDcSIiIiIiP2EwTkRERETkJ/9TwbjbboXDIyB8f9+eG3arA0L8/9+kvOd2OuH5U+fCCavVJc+b78//VW4nnH8qnRdUbjidnj95Ht2w2f7lc+62webKr+PnhN3xZ/f1Go/dBof80Y0/88Bu80O55c/09i+u22l3/MlypmD78+UlERUUfgjG3TixaiLGj/0co0eNwijlNXo0Pv/iS4z/cToWbTqBdKVy8n37n7Pj4vY5GPV0N9xT+X6MPZAJu8f30c0cSdg1bzSe7loPlR/8HifMdlm9/W9wZ57EtpW/4pcfxuP7ybOxcm8irC6599aj2HsoC04ZnPhD1opX0LxCZXQatR2pOW7fuzeR523H7E8wpF0dNH1hERKzZUDi++h/TuZyvNy8Iiq1/xibLlvg8r199zBj5WutULlKJ3y6JRmW2+yAx3Ia63/5AI+3rY0GT83BuUzbPzznHlhOb8AvHzyOdrUb4KnZZ5Fhy7tU5MnYg2kfv4Sn+3dDo8qlUK3tUHy36RJynHdapwPJexZg7HP3o0G1PvjmQCpylALKkYw9C8biufsboFqfb7A/xZJ/5ZZ5Fd5sUxVVO36MjYnm/E1vyrrbVpPr/ggbLplls+Zv8GRgz/RP8PKI/ujeqApKV2uDIeM34qLFeVeWIebVI9GuejV0/HAdLmT9rSNCRH7gh2BcgxJNHkCvFgZsHvcBRr45FotP2aDSuJC49Uc837U+arcYgh93psN+m9jrL3GnIDnDLSuxjTh0MV0GmOK2V6Hcl87iUtZJbFp/CBczrbLZ8N/nTt2Jya8+gKYt+uGjeXuQog5BiDoDe2e8hUcfegyDH+mPV+cdQZZsIPmDPrIISpYqjTLxIdBqVL53r+dB6sEd2Lf7dyzedAyJSgPqbqxF/y36CCSULInSZQojTKfBrY5YwaZDRJGSKFW6NOJDdFDfcgc8MJ87j4yUg9i44ziS/o1z7jHj3Pl0pBzchB3Hk5AlW+x5low8pzD1uaewwNQdz3w8GbNGdUPIgel487P5uJhlvf163Uk4l5iJk5tlWXZBKctyt9GddA5JsjG9ZeNhXEjLgVu+mWfbfjNveisl01s8QvM7vSnrLpGb1pV1//XKzINT01/AiAUGdHnqI0ycNQrdwg5j5lufYf75DOTk20H89+gjElCyZGmULhwGvYa9UInuGsJPPPZ94oNmUcJkrCleXntJZOTYhDUnXewa01EUCw0UIZUGi9lnsoXD4/vB3+YWLme2WPVMNREe0ki8szNN5Lh8H93M7RLOrHliUOlQEdzyU3E40yp//d/lOjdfPNespIiv2V98v+WcSMu2CrvdIRwOu7BZc0T6walicJ04UWX4QnHR7BD/+FT8HS67yMm2CKvDfdv1e1wOYTv+pegYHyaKPzxDnMu0+2dbCwKPS9hzsoXF6hDuvDgIlk3ip4mbRXp23h1jlz1HZFuswnHDDljEpp8mis1p2cIu3/a4ncJ+drzoXjRcFOn9sziVZv3r2yP35edJm0WaWdkXj3A77eLstz1E0Ygi4oGfT4pUa97soX3rO6JZsZpi2LzTIt0m1+zMEPsX/ixmbDwnsu13KnGUsswsFgyrLGLCm4v3dyUJs/J1pdwy/yaGV4kR4c3fF7uSzOJ2Rdy/T0lvFm96c3nyKkXczj9ct32reLdlSVFr6BxxItUmPB6nyDywSEycsVGcNdsKftlv2SImTdksUjLltvve8paXFqW8dMn98b1HRAWe35rOKk0ATAYVVCoVNDo99HoDjKYwVO33GNrEamA/MgOTlqVAxoa+X/xdami0OhiNuv//yolaA63eBKNObpfvrf8s52F8P+I5/LgzEN3efAPdq8UjPNAoz4MOOnk+DEYTwsp1x1vv9EGCsAMeP3XY0ehhCgyQ50R923Oi0shtDg6EUaal//x5+/+oNNCbAhGgpPd//WA4cGTyGEzalYTsPOy2pJF5MDDACN11O+A4MgVfTNqFxOzc7gMqtRZakwn6v33OHTg6ZSwm7UxEtrdriApqrRYmo14et7xMRR4k7d6D0zlq6AI0cj/k9mtDUaF1b3StWxgB+juVUrllmbKNN2yiUm7pjDDq/ZH+lfQW4E1vmjw9brfyz9btSdqLvacsUOlM0CppTaVFSPl78UDXukgINPjjtvFf4MCxaV9hyo4LyLz+rqVSXgYo5aVMW/mfGIjob/JjeXPrikMdVALFYmWFKLKRnJQB19U+Je5rg/O8g3Zy372B2w6rMvDL9+f1lKD/Bk477O5bDfz5f0owuY6c2w4SVLZRBgu+zzxO5x/7ULodsN9mG+FxwJpjh1tZwC320e38tzrOeJC65Et8veY8bFV6ol/9GAQbbpEU1DpEN38UnctroNP63ruOMiD2ToOn3FbrtfMn99txy+Mt/WG/b/qePOa22w1yc9pgdbjl9+983tz2nNwuSr6/b3DdgL0/O/jJbbPAfN25/v/J8650ffB+3w27TfntrX583YDE2w1OU47HHQc45g7ku/V+yHXnXHdebkWej5wr5+MqO04vfBPDPliGk8lpSE9NR7rZ9sd1uK3IykhFamoKUlLSkGGRx9OVc9178pWWKY+3kgdkfsnKkO+nIi09W7b3ri3LrQxQ9O27/fRCjBz+AZaeTJLfS0V6uhk232c3n3VlEN6N230ryr68heEfLMWJpDSkpcnXlX35QwSjDLCU6esOi/TcKW1dz517HC4kpcPpdsNlyURaqjxGMh1BNiiVbli5a89NH7fbj1undOXdW39yhXJMnTfnwVudL+dfPV+56e3m7XXbbH8u//soxzHHfudj/Ue3WveNg3rdjj9+nqPsx8UkpDtdMpvlICNNpqsMWZ7JAF+nvS6Q9ea1O2zTHcoOZf+d8m/vOx6Zl/+QRjxw2O9U3sj9sJhz67QbvuLAmcXv4ukPF+PoRbndaem56ffK+ZD513bbNOuG4w5py7tO77HL/fyPx+4Kd25aut1iiOgvKXiNf9sFXLgsCyiEo1jxSKiyjmL5D2+if6saaPDMXGz75Rm0qVIcJesMw6wzFjiEG5fWjceLA/pj4PCnMbh7Y9Rr3gdvzjqADG+QdiNh2YvJz3VAtZIJKFykAloPnYAdKUrg4fvCbVhPLsLHTw/AI4/0RfcmlVC+Xle8PCN3HZ6sE1j98zsY0LYm6g6bhTP7fsX7fRujQrF4JFS4F8/NPApz5jH89k5v1C9XFIULl0Xzp6fhsFkGTN6l52Df5Jfx+NCX8Nbbr2JYvx7o0KI/vjmcCav3C26cmtQfdcpWQo8vdyPL9k+D8iys+XUZzppdKFGvIYoG6GUVdGsqfQX0H9AOkSZDblXvvoR1376EQY8OxPCnn5DH4h606P0GZuxT+vjLg+jOwNHlEzCyfyvUaPw8Fhzfgokvd0XtUkVQuEQt9P16K1KVxox36TnYP+UVDPbt93Dffn99MANWuYs557ZgxmdPoss9VfHAN4eRbrvSOvEgY/cUvPJQN3R/dCieeLADOj35Cw5m2uSRup4NJxd/ihEDH8EjfXugaaXyqNf1JUzzbqsbGUdXYsJbj6F1zQZ4evZmTHn2PlQvWRK1h87AyaxbDd514tzyTzGwaxf0HTYCQ7s1QLX63fH63KPePsa34k49hKXfvoa+TWuhy2cbsWPGm+hVrwyKJRRG6YYPY/Tq895Be+6Mo1j549t4rHVNNHh6FjZNeRbta5REydpDMeNEFuweNxLXf4dXHn80N533aIJ7WvTG69P3Ik2mB+/xtF3Cjrmf49keDVD9/rHYl5pz7XjYTmLJZ89iUP9H0K9HU1QuXw9dXpyKPWnymPnSvvviWnzz0hAMHj4CIx5rhzp17sOQbzch0epAxvap+G7OZpxMsSB12894+9Xn8dL3G5Cac+NAN0/aXsx8rSfqVy6Hck0G4uu1p2BOPogV459CuxqVUK7yfRjx1WIcyJSVvDsdhxe/jwcbNMdD7/+GtOx0nN86E6Oe7or61R7AVwdSkJ22HVO/m4NNJy7DkrodE995Dc+/9B02yO24fniaef9UvNylFkoXLYwStfpi7MYkWGTw80ceZG6fhu/nbsTxlGy5LxPxzmsv4OXv1iNFBqJXCTP2T30ZXWuXQdHCJVDrobHYmGSRwaXvc5m2Ti0dhWcH9cfDMt02q1wB9Tq/gCm7U7yB+a24TyzE6DdewScLDiEj5xzWjBuJV55/DqMXnPTmaVfiBvzw2mA8NnA4nh4sl1m/BR54bSp2pyiNJ99C/ip3Ijb88BqeeGyQzK+D0aNZfbR44FVM3XXZu52etH2Y9cYDaFilPMo1HoAvV59AVvIhrPz2adxXs7L3fD395SLsy7DDJc/XkSUf4qGGLfDQe/ORknQc22Z/jhHdZXp7YCz2JmXLc5qBY6t+xjsD26BW42cw+8AGTHq9J+4pWwwJJWqiz5j1V+9u5JLl99qvMaL/QLzwwSd4e3AHtOg8EC+/9zE+G/05xi08gExZXvxBzvk/rNuZcQyrZDk8sG1tNH5mNvZvmIQ3etVH2WIJKFGzDz5ffyn3Loj7BBZ9/iZe/Xg+DqZbcO738TI9v4DnRs3HcRmQu+X/JW6cgNefGIBBSl67vznqt3gAr/6yE8k5Stkl09Cx1Zj43iC0q9MQT01bi0kvdEGdMqVQ+/HvsHje93j/iY6oe88QTDm0A/M/HYCWVUoiIaE8Wj41GXtlo+f4ko/Rv1lFlJDlQJmmw/CzTDdy0bmc57FqzBO4v1tfDH16CLo3knVft5cx40CaLBflundOxwSZfo8mm5G6YzLee12m32/X4uThDZg95hn0aFgdD3yxG5fM10pDd9Im/PjGEAwYNBxPDb4fzRvItPXKFOxIzvGmLU/mcaye+C4GtauDJiNmYu/6yXjzgQYo5z12vTF67QWYr9yl9pzB9KHNUKVqN4zadBGyGiGif8rbWcUfXCfFmDbRIsBUS7y2KTW3H7c7XWz5pL0oFqQXwbWeF8sumUXy4Y1i0Vf9ROXwABHToJt44oUPxesPNRDlawwQv5zMFJdWvCZaVG0v3v/9rEjNsojszLNiyYuNRUJsJfHQhP0iwybb9cIuNr1aR0QGlxENO3cXjzw/Urz7+mDRplyYMJlCRIUB04UMvnL73dmWiScrhImQ6/qMu87NEU92HSS+2yLXkWkW5svbxGcdS4jImHripeWJIvnQFrHsh0GiRmSACK/fT7z02igxffl6sXrqS6JlkRARWq67GP7kE+LVL6aIBUtmiQ+6lxNhoeXE4/MuCrPDI1x7R4n2TZ8VC05fFpk5OcKSslG82667GLUvTciAQnKKI193FsVCo0TT9zaL9Nt2ev+THJvF6/fIY681ijZjjov0P9s31p0qVr3RSlTr8J5YLbc1KztbZJ5bIl5qWlTEVXpQfL8nTeSkHRWbl34l+laMEAExDUT3/oPEa99MFXOnjxIPVYsUIYV7iO+PZQirPLCufaNFx2bPifknk0WmJXe/32vfQ4zakyL32yHO7lwlZr3QVMQGB4om7+8RKRblbAhh3fuN6FWzoXh84g5xIc0ssrMTxdqRLUR8kEEU7nelz7hLnJ/7lOj++Ldi0+kUkWk2i8vbRonOpaNFbN0XxZLz58T+jYvF149UE5GBMaJ+18Hi+Q9eFw81qihqPjZJHM3443gB1/HvxQPl40WzN9aJM8lZIjttgxjZtLCIqfaUWHQx6xbjG1zi4p5VYu7I+0Tx0CBRqcND4v7eT4nX335TDO9YSUQFmkRwmX5i4qEUcenwJrHkm/6ielSQiKnfRTz+/Afi9b6NRMWaj4mJR9PEhZVvitY1Ooh3V54UyZnZIjvrnFj6SnNRvFAl0efbXSJVpgnnuR1i+cyXRcv4EBHU8G2xPTk7t++w67yYN6KHePzbjeLU5UxhNl8W20d3FWVjYkXd5xeJZJn23RcXihdaNRdDp+wW5+UxtWQeEmM6FRPRkTXFc0suyHRpE5ZT40S3hHBR8qGJ4vCFNJFtdf6xX6rHKWzpa8TLDWJFaIUnxLzT6cLudgmH5Zj49v6SIiKugxizO1GYXcoPPcJ++AvxYN8vxbaz6cJpPyt2rZ4lXmweL0ICG4t3dyYJs9Mp7JZTYnz3IiKi5IPyWF0QqdlW4ZQrdl+eKPoUixCxdbqJQc98JCYuWCkWjx8k6saGiaI9vxOHUnNu2e/X47LLfRkvehSNFCUf/FkcPJ/q2xe3uDzpQVE8MlbU6TZQjPhooliwcrEYP6iuiA0vKnp+d0geZ2WJbnH+12dEz8HjxfqTMs8qaWv756J7+TgRV+c58duZDG+/9j+Q67VaMsW291uKwhHVxVO/HRUX07NFjt0lXKlrxNvtaouO7ywTx5IyZZrOEueWvSZalYwXlR4YJ8+lJfdcCptY+VxNERtxXZ9x79srxfO14kTE9X3G3Wlizdv3idod3xbLjiaKDJlfs84tE6/dW0oUrvSA+GZ7srA45PFN/1281jhehFV4XMw+kSpsyvnKOS6+61VGRMW1F6N3XhRZV8/XWNG335di6xmZ18/uEmtmyzIuIUwENXpbbFXyQOZxsXX5N6J/tVgRHHuP6NJvgHj1qyli9rTR4pHacSI8oav4ev9lke3b7pydn4uuVWqIRybskenOInKy9okve5QXhWKqiK7PjBSjft0nyztn7pev4zi3W6yZ87JoVURZ91tiy4UMkXZsq1iu5KHYEBFbr4voN+BV8dXk2WLa6EdE7bhwkdD1K7FP5gm3PDp2q0Vkbf9A3Fs0SlQfPl+m53SRnWMXLpkG0n5/R7Sv00m8veSIuJSRm9eWv95alE6oJHp9tVUkZqWIY1uWifEDaou4kBhRr9MA8ex7r4t+TauIWn3fF1NmfCOeuCdehEbUFb2feVl8+ssS8fuq6eK1+0qLqPCyovPgIWLwK5+LifMWiVkf9RbVYiNE2UeniuMpyrgHtzj5Uz9RrVhz8cqKo+KSzOtpm94VbWQ6qDZ0rjiZKsslJf2elmVRqRhRqvcPYs+ZFJl+c8TZ3WvEnFfuFUXDg0XDkZvE+YzcFONO+12827Gu6PTWYnH4YoY3bZ1f/oZoWzZBVOr1ldhyKUukHt8mVox7VNQspBy7zqLvgFfEl5NniWmf9xd14yNEQpexYneiOTc/uY6JH3pXFDGxjcTrK8+KDId3NUT0D/j/yrjnIlZ//QZeHPEE+t7XFPePPopC7V7CTz+/hMbRgYgqXQctO9VHSb0aDlRBn6cfx4vjl2Lr72PQvdBx/PjeBBwu3g7dqkYjLDgAgSEJaDniSbQJvYD5743G8ss5uNbtPBB1n/gUn7zxIp57ZRRmLPgSPYurcHrWt5h9Kuc2Ux46sO370VijTkDgpf3YsWUzNu9KQVTRKHjMezFr9lZo4quieaeGKKvXQBNWEw8Ofwydm92Dxt2fw8AWkRAXzyKo28t45rEeaNuyE4YOvg/FNJewd/cFb5cV+/H9OHB0I1buy4JKa0BARG30H9wFpUMNyJ1ARIvSj/6EDXv3YO6Imgg13u469p/kyUBGpgseofQv/PN9ix17vsN7Ew6haJuuqBoTgeDAQIQUbomnh7dB+KXf8MGY5bBoElC7WQc0KGOAVhWKhkPexLOPdEeHro9jeLeKMGYfxr6TVrjcAvZj+7Hfu9+Zchdz9/uRx7ugTLhRbpMWhas2RpsmlRFx/SwN7hOY/O4obIjuiEGtyyE2LAiBgTGo16s9qgQZ5Tp933Nsx/ef/w5VfAASD+7Els2bsSslEkUiPTDvm4W521UoXL05OtYvCaPWCVTqheGDXsT4xZux5oueKBUit8G3qCs85lRctphQuGRhhATL9YZXQ5VSRriSzuGCXbmedjMNYis1Rut7a6KQQQ1rYBO88MmbeOn5l/DRlBl4r31haM7Pw4S5J6GNr4HmHWQ6l+fWicroNWwQXhy3GJvXfIFeRU5j8kc/4WDCvehcNRaRIYEIDC6MFk8NQ5uIJCz6aAyWJWbDXagamrVrgWqxMt1ct/GO7T9gzO9AIdMlHNy1BZs378LlyAREiGzsmzMPzpxUbPj6A8xw1sf9TUsgRh7TgJDS6PhwH7RsVAMlwuS51CljOvTevrVqjcHbLzXAqP1jrw553gxh96BP1+oISl6HZXuyYXUp/aNLoN298j15XpasToTVm9k8OLF0JyLva4MSUSHQ6gujSqM2aFI5AgblRCr5Vi5PbzRBr3ThUMtlm2QeD1DO87UVq6IaYeCIgbi/TRO06vsEulYOgOXIPpyyOm451Z5Ko/fui5K31Eq6C1D62F+/LypENRyIEQPvl+mvFfo+0RVVAiw4su8UrA65RLkPP37xOzyxJiQd2pWbti5HoHCEQPaBuZi3LQOWW411UdYrj5tJmflDpYbWKI+hzEMmvRv7f/wIPx4ohOYdq6JQZIhM08Eo3Hw4hraJQsrSTzB22UVk/cWpFh37JuDjn/ajUPOOqFooCqFyXcGFm2P4kDaISlmGT79YigyzE/qwenigS3WEpGzA8j1m5Djl+TIVR9tW1RHs2omlqy8hx3tXSp6v5bsQ2fZeeb5CYSxcBQ1bN0WVKAN0vmOnDi6Bmk3ao0G5AOjVIag/6FWM6N8DHbsNwtBulRFkPYb9Jy2QbQD5bTu2zJyGrRdDUbpaDEJC5LEJLof7WlSE3pUMZ7Gu6Nm0vCzv/thHThdfGQ3vbYLKUUbfulUILlETTdo3QNlAPdSh92DQK0/jkfs7otugoeheJQjWYwdw0uKAU2hkmlLSry8NyLTtTc9KmnDuw48f/4z9sU3RvmohRIfm5rVmw4agTXQqVowai6UXPIirIT+vXxqBepkeKvTAEwOexze/bcDqcSPQo8v9aFw+EHpdKKr1fByPdG2Jhk26YsSjLRGnu4zzAe0xQtYRvdrfi05DBuK+kiakHtyL81a7TK9umFNTYDHGoUR8GEKCAhFepTJKBnhw+fxFb5eZK+lXyQPX8qIslyo3xL2NqyDqhvFRDuz/6VP8vC9GHpuqiI8J9aat+GbDMLh1DNJXfIYvl56HO7YaGstjVy5Qlnsh92DAS0+j//2d0G3gUHSrEiLrqIM4lW2Xx04uUlMSD32zAtt3zsdLjWRZqMtdExH9ff4PxtWF0PixV/DGm2/h4wnLsPPAdiz76WV0qhAOo1IBa7QyTjNALyuvoOJlUSJIFjwBQQiWgbfqwEIs3G9GYHyx66ZxU0Eb0wKt6oRCXFqN5bsscF6pkVWyYIuWhZHJ6B2gGFKqKx7rVAYm5yHsOSgDxFvdC3Yfw/r1x+GUC7dlZyEzUwlks2Fs+CRGfzMOb/eqKJcnC0YZIBjUamgCQxFulNurlYG5LgixSpChCkBIZJB34JVWGYAVFY1QuW82i8XbN09f9R7UNB7GD/3uRfuB7+KXbZcR2vp+tC1sksvM3Qy1IQzxRQoh3KT7YwD0V6mCEBSolstR+gb/2X7PTuxbuBAHsgIQXzQUuitRrwyWYpq3RO1QIHH1CrhlsKLRykpVLysKYyTi4uR+G3TeAWbxcZHyWNiQnZPbB9Ig97uW6TAmPNJa7vfbmLw1GaGteqBN4QAYvUGfDMRM8lhe11pwHV+AORtSEFpWBi1K9xrvR/KcR0QgREagVxK0+/gGbDyhzDcu15eVicyMDGRmG9Fg2Ch8Pe4d9KochgC9MrBXGQwXhGJlSsjGhUxbQcEIlsu9VQNFV+UpzJbB7Lje0TDvmYlRLz+HCVtS5DFUKvhb94dV9kEn16MEXxEy/SaEBMuK0yiDjvLo2acl4gPcOLjnoLdxolXSjZLOi5VBCRmYXE3nBxdj8f5MmOKKynQug0bvkuU+RzdHi9phUCX9jpW7zLC5ZYCnyz3219KIG8c3bsQJu9w+qwXmzExkZGQi21gfQz/9CuPefgBhxuNYteYkXNHFUESmr9xTq0Wxjm/ghyljMaB2BEy3GDNwewaU69YF9YIvYfnc9UiTx0e4L2HNjixEBmZi4+x5OGqW+c2+E/O2x+HeBpEINCpnThmgqJfHxyCP1y1OwG3oQyPkcmVekcdGa4hERJjcWGs2LPKY/r0+rXqERirbJINMrWwAREUid5EWb/9Z14mN2HTcLpdtvSFt3fPEx/jym7fRu2oEAq62Cv8E5wEsXrwfmYZYFA1TGjy5b6u00WjaojbCNMlYu2oXrLJx8ec5cWDJEuzPMCCmSJgMDK8uFNFNm6N2uBrJ61bBZbXJNw0o27Uz6oUmYdW89Ui1yH3zJGLtzkyEB2Rg09xfcSTLIs/XLvy6PRYt6kchyCTLD9+Ad4NeKUtyFy/flOfQdDX/x8Yq6V0Pncz/hWJl/lfbZX650p9ZNowzlGcY2GCzXukXrUN0VBh0GqdssKnkf69b9vWuDLa/bt0qjXwvQG6P3AZjRCxig5WGjg46YyHERMg8aLcgx630fb8954GlWLo/HfqYIgiT5VbuUVPyWhM0rxUBzeV1WL07C3a3JrfsUAehaOniMmiWDVhv2WGUx1qWX7LgVmtkuR8mt9GghUajQ1BslAxc1bKhGyEblLKBKdOWzhiFyFDttW0TOlQa+gs2b/wWfYvYcWDuGLz2wg/YcDFLNvCU7j2333pveRlggCG3UMzlPIilS/cjXReDhFB5Hq4mgyg0aVYbEdpUrFuzB1abK3dAtKzDjBExNx67SHkcHHL7PB55xhRqmefikFAo3Dvg+C+kdCK6DV/W9CdZ0BmMCAyLRlyhGESGhXgLNO/o9it8pa1KFhTXv+06fwYX7W5ZmN/UN1wGV0WLRskqVRlspAyQ8b0v13VDwa42olTJeOhkUGq13qbidqciWS7DaiqBFu06oFPnzugsX1179EKfPr3Ro1EJGQTIw3itNvL+L5eskLwbfNN6lUaG8l+5QmWVmhJ98dXkj/FIbQ0OzPoIg1rXQ6shE7Djsv2GvqJ/GIT6d+nLoUr5EFnRuXHqyBFYXX+m058LF85elAGfUwaO8s/rtyuoKIpG64GsVPm+7/aCd7fl/sv/XtlqzZXLtb6vaEo8hLGTPkL/Olocmv0JBre5By2HfI9tycrAr9zvKMu4fq+dx4/iZI5LViY3Bcw3HRt3ahJSHVaYirdA2/advOesc+eu6NGrN/r07oHGJQKgv3KDQf5UfeWc3ImsUF1nF+H9R/tj5GIravV/BQ/VjUHA/3tlKHfZSvq9tplqBJctiyIGDdw2uzct3PA973dyuS6cxUWbEw55nm6ojGXjMjedZyE1TabzK4f+hh1xIzU5FQ6rEcWbt8V9nXLTb+cuPdCrdx/0vr+xrHTNuJwqG2ZZ2bD50qRCLQOoABnkeq9K+977s3TFOqN7kwikr56L1ck5yNo1FWsiBuPVHlVhOjxPNmoycHnNXBwu3Ro1QwNlAOX7oeKvruyGNCIDCCWZyf3w3DJD/0nKQbyyUBk05S4yN2B0pyYj1ZkDY/Hm16WtLr60dT+alAqSAVHuT/8U1wWcu2SDUzZklXR/batVCEwogmgZ2Galpcnz+8d7L7eXm1+tToe3oXf9oVAFFkGRaANUWekyu+YuU1e0I7o2jkLm2l+xOtGCzJ3yfIUPwsvdqyHwyHzM2ZmB5DXzcKRUK9QIu/F83ZT1pCvHTp6X6z7T+NLRtW0xoGbjeogxnMHWDeeR4x0L48a584lwGqujSb0Ib1B7J39YteR974Y8pIHGV1hcdxhuyX3xXG5ec18bAOol81pCkSgY1Gaky7zmvnoqlDL+j9uYu7Yb99+7TfLvG8px2XC48veV1Wl0bpxf+jEGPzYSCzIro88LD6J+4ZDcY/7/7cDVNfu4L8q0ZYVDpq0bi22ZtookIEou1CzTlls2BHLflS9lm7x/KeSx8633xlXftG9E9I/cuaTLV0rm/mu5Wx0RiTCNwOUTx5GujHj3va/QaGVtqCmMYsWMN9yyv5GAVXl8tCYBxUrovZXFH6iDEBKkQtqmVdhqlmvQKlP/+V4aK86euuQryP5+yaSSlVBw7b74cM46rJnyBrqXdWPf9Jfw+EdrkJWTF09Ri8S9Pe5FQoAG51b8hm2ZvtuPt+RB6tEjuOQQCI0MgxYpOHE8zTuS/iqVBsrh1sYXk3XLX4hClP2u1RcfyP1e/cub6FHOgwMzXsHgD1cj8/rBdNdRyeOvUXmQeOY0cmSN+IfN9tWgmqBQBKnSsHn1Vphla0x75ZzJl8Z6Fqcu+RoVf0HOts/wyIMf4VTDF/H2073QsHQkAmWg9LdplLs5GsQWjpeNgdsfN024cmVWhdRTJ7yzP1zbZ/lr5XfaeBQrKhuwt0q/MosHhQRBnb4Fq7dlwi2019KvTgPbudPykAUiNEQD5961WJdkvbG7lm0/Vq4+CZs3UPoLNHFo2+1eFMrZiHlL9mH2j4dRqXMDNHukF2qZzmHh9MWYPeMsqrSpIBvfun+Qe27Bu7DbJui/z7dIdVCITFvp2LJmGzJdHhk8XZe2bOdw+pJD5o/c7/4pmnBEhGohTzBOpsng+brjr1LusMlcF1+0qGwT/JXbExpERMj8qkrFqRNpcFw/NZPMr0qZqI0vIpfvW6Y8X226tkQh22bMX7YXs386ggod75Hn6wHUCjiPxTMXY9aMM6h8b3kEB+r/pfOlRny3kfh0eB1cnPAi3vjie0z44iW8tkCNLiM/wMCaMQjO5y4Q6vAIX147iXSHMpHAFb68polHEZnXrt4Z/MduXk4OdnwxEA9/dBQ1nnoNT/VuivLRwbIR8DfXp85NW+o0JW3Jcv6GZOBLW0WKyPLxr6QtIvq3+TEYv3K78IZrfX+JoXobNC9ugmf3Iiw6I1v/VwsaK86dvwx1hXboUOm6K6A386Rj565jUFduj87K925VHmnLon7tQtBemo233piB/bJAy41DPUheMwbfrkqH9R/OhW5d/Q3GbbXKHYpBpfuexjdzv8dj5bQ4u3sP3Ff62HhykHwuGZb/5zbrn6NCZNtn8fx9xWE8Px3vfbEOF2+Y4eAa856pmLQ1G3q3DjVbN0dxk8CexYtxWpn6zvcd5JzD+ctqlG/T3nuX48+yefc7B0Kv7PdT+HrOdxhQUY/ze/fCJSvCW9FXromqsnKxrJuBucctSjx/HSEDbKXbjYCmzD2oVUiHxDlv480Z+5Aiv5h72pLx+xffYXWaBX/lpr/S93LH3FnYfikM5WoVRVhw7t0b7zLl+v7MOXE6bpxu0HLsOM65E9Dk3qreefBvR1/9XjQrHgDsWYrFp3O8M83kysG5C5ehKtca7SoF4RZdayUtytSrhUK6JMx7dyRm7Em+OtuHJ3ktxn6/CtmOUqhfKxYG80p88ekinMjwzUrjycDWb77FJocRDpUsKmRjWQkJXO4/cydFhfCW3dG2uBNbvn8WE80N0LZ0KMIqdkO3BmFIW/oOxiZXk/k3CAFXOhzflu8qnGw93flG/V/g2xf3zXcb/gRtmXqoGa9H8rz38NaMPb4ZNiTPZaz98gesSjHDfodFKsWU8vGVm0jQV0OrpsVlgL8Py5aeRvZ1s4dYz1/AZVUZtGpbCSbTX4lM9ajaqilKBKmxf9lSnM7OudZ/3noeF1JUKNOqHXQmma685Plq0R1tSrixbcLzmJRZD61LhSG8Yhd0bRCOjGXv4qukymhSLBiB/1ogKtfqsSAxtSj6j/kUQ9rXQ40Wg/HFzMl476FaiAv8lxtpN7uSF6/dOoW+aks0KSEbr/uXY+kp87UZTmSdckHmNZRpiTaVQhGg9739b3PuwoK523EhsDRqFAlHqEkG0qrcFCqu207lfCn/cyt58boy5Q/0VdCiSQkEqQ9g+bLTyLJcl7YuXMRllEaLNpUQKBtYf4Un5zLOJ2d777oQ0T/nv2Dck4nMLBlYepR+2Ff6EN6GywmXrLmsWWZv39yrghrhqdd6oYJmO74aOQl7U3KnabPsnYhfthXCgy8NQq2w3EF9auVSkOcCtq896Lu6aMfJeW/ji10V8eTbT6BWuEmGLZLHBrvSv9Zul4Gesq5ANHriabQtqsbJmU+hY4vO6Dd4CAb2aoW2I1NRr2VR6JV70nb5O7ltSsB1ffnk8l5+dcn35Zu+94Uy/7j8rl2uw1sx2w9j6iffYHOiFR5lQFlsSRSNCkK5OjWh8V6xcOPgVw+iaf266PbpNmRei8b+NpWhNB6Q63z53hgcGz8QPYd8iKmbziL7yiO2s05i3aQP8P5iA5q3rYBQGSwGNXwSr/SqAN3Ob/DOpD247J2i0IJ9k6ZiW2xvPD+oNoIC5PaKHOTYBDzyOCtX3K8cDu+xEPK42nJv9wv7UUz79BtsupQDt8a335Fyv2vXgFafG3gIuwN2jwcOeVyVIFtdqAuGPVobUbb1ePfhwfhk+u/YuWMlJo6Zib1mKy7vXoZZc3/HIU9dDHiqLYppT2PWiE5o1aUvHh8yEL3ubYuRKXXQrGgAlHGwSjCmnPMs87VuHremRnCwSf5gP2aOmYQlqxbi5w9ewYQtqcixnsaWmd9h/LyjsNz2CrILp9evxIEM310I635M/mkV9G2ewuMNoxGoBKTKvOLyaP0hnQc2wLCXe6GSfhfGvzsZu33TkVn2T8a0bTHo9exA1IkKvDqI7maBDQfhybbFoTszB892uRdd+j6OJwY+gHvbvYmkGk0gTIXQ6okhaJ6gx+lpw9GxwwMY8PgA9G7dDE9sLYfW1ZX+9SqoA5XgQIX03SuweOVMfDpmHk5m3Tyd5DWqoIbo0aEcNBedqNK9FQrJ46fRFkHHHs0RI39Uoa08P8EBuLGt7MsXwuEb5CepAxEWZoIqfTdWLlmFmZ+OwbwTWbBZ7Ll5TuYnJW3kcnm7EAiHTGfyveuO4g1y90WNtD0rsETuy2dfzMOJTKs8f0pfcHkebki4bu+lA4fM4971BDTAwGFtUcJwFnOe64rWMm0NemIAHmjdDm9eqopGRWQD45YNI4UH2VnZMt0pffeVNKesJBD1h76InpWN2PPde5i8y/cgIst+TJm2HZE9RmBA3RgEe+/CeGCTx0d45L7bc/ORl/dvmefkNirllnepDYbghZ6VYdr3Pd6fsguXvA1uCw78Mh3bI7vh6cfqIjzkWhCmCqyP7veVgy7RhcrdWiI+RJ4beb46dG+OWKE0ttugmHzvhlhc5meHsl6ZPx1Xjrc3/3t8+f/aOXApZYv8vt2X/5V9OTP9A3y27BCO7d2Nw6fOI/HiGZw4fATHTisXHm5x5+t6Mo3YHXI9161b5FhhlRlZSRPKOcsl04Q8zt4y/brtcWebYZHnVunz7/J104A8Bk883xNVA/bhhw8mY8dFJS/KU3FgKqZvj0DX4Y+iXlxul5HcssMKc7ZsZN8QKCvbpZR/N82tLr+vfM0lt+3qifMod+jkPshtsyvbqJaNHaMK7oNz8NWUxVjx20R89PoEbLyUBcuZbZg74VvMPZQOqyHUm37T967C0lWz8NnYeTiWrvTrl+v0lpdX8oRMW4OfR8+qgTgw4UPvQ4LMyg7lHMDUGdsR3mUYHrsnDqFyh5RjZ/PIBq+sb69ttXLslEMt05Wyfcpb7iP4fmBbNLmnC95bewGZeXHzluh/jGak5Pt3PnHjxKrJmPL9V/hh0SEZ0GXg/AUzXBYPIiqURKQMbK+1EDzI3Psrxn06DjO2nkbq+ZM4ZzchtlwFJATpoFZrEFK6EZpW1OH8+mkYP2EOlq9eisVbnWg04h0Mb1XSO/OItytA1dooZUrFrjnf4esfZ2PR4t+wLrEsHnv3TfSpFSuDITU8Fzdhyugx+Gml3K6kRKQhCLFlKqBokWpo0agEPIkncGjfLuw6eA6O+HvxzIcvoUO5cGhPrcD4T7/CLxtPIDU5BRZ1CAqVUWHflG/w9cSlOJCcjOR0AVN0CQSfmodvv5yA+XsvIjkpDZ6QBJRWHcS8FSuwaO5SbNq+DeuXrMTFMoPwxtOtUUw2JpQrI1mHFmLayoso1PJBdKkZA+OVUV5/mwraoATUbt8BDQp7cGHnUkwbPxqfjv0ek6bNwLxVR+Cp2BWDHmyMkuG5FbBKE4LSDZugguEiNkwfjwlzlmPV0kXY6miAp94ejntLhcFoP4Il34/GN9M24/TlJKRa1QgtFI+sDZPw1XfTseX0ZSSl2mGMK4VK1u2YsXw5Fsr93uzb7wulB+A1ud/Fw3W4sH4SPv/yJyw/eBnJKVlQhxdF3fJFUbx+c1QLSsfR7aswf/ZcLN+Xg3JtK8G8LQWF6zZAw7atUK9YJOKqNEPDkgLJJw9j385dOHjOIY/fCHzwYgeUD3Pi0G/f4rNvZmDzqcs4d/I87IYYlK2QIIOe62ZvuUqNyBJxsB/diQ1rVmLDviwUlRXZw6XO4/dtp2GNbo2BDzdCkRBl8KHvJz6ei2vx8y+b4UmIxsXfF2DxkgWYOfk3nCs7CG+/2gNVY0ywHvwN346S6XzTSVw+dwrnbQbEyHReOFgPjZLOSzVEk4oGXNo0A9/9OAfLVi3Boi0O1B8+EsNal0aEybfN7nNY/dN0bNXUQ7+e9RGnzCyhDUeFJg1QEsk4eXg/du4+IPNRHFo+9R5e6FQRkTJy1EVVRdN6hWA7fxT7d+7BoQs2xDQbhndf642ahQJzB9HqYhCWsx9bN6zB78cC0erRvrinqAxMbnsLXYvo6AzsTKyLYf3r+46NCgEJBpzapkX7oR1ROfq64M5zHusnf4GvflqGA0lJuJypRliRiigXF4b4CCsObNuA1b8fQ0DLR9E9fD+mjvka07ecQkpyGnIQjLi4LGz65Rt8N30zTiYlI80ZhPgylVBUmQ3m5uyii0aoDEi2bViN348GoGX/7giXAdcXX0/D5pMpSE7LkY39OMSZN2HquO8xTZ6XJLkeZ1A8ylQqgeLVm6NhCeDyqSPYt2s3Dp61I675cLz7QmdUig68MWD18aTuxq8TPsfoH5biYJJMc+dlEJidDW18KSTEV0DjphVhTNyMmd/9hNlLV2LJ4q2w1RuCN4a2QbkoGRiLS9g67QuM/Wk59ideQmKqQGBMaZRVH8Kcr7/Cj8v3IfGSLLdEAGJKlUdCWATKyvxa0ZgkG4vf46fZS2VjZjG22OriideHoW35KATc0LVJnq+oDOxOqo0nHm4gy55r5+v0dg3ue0Ker5igq40+z/kNmPLlV/hp6X5ckvuTpQpFQnFg34xv8O20jTiulKFWFYLjCsG8eRrGfT8dm44nITHNDkNMCVQtFg51+l4smS/zxG8L8OucOZg1YxqmTpmEn77/Fj8tOo+oOvVQRu77lYGHVyjr/sW7brnPiZeRqQpDlO4MFv3wg8xDx5CUmAqbKhixcdnYPG08fpDbc0JuT6qSr4oVQub6X/DVmB+w5GAiks+dR4YrG2ZNPEoWCkNk2YZoXNGE5K2z8f1Ps7F05RIs3mJFncGvY2jb8og25eDgoh/w+bhp2HA8GWdlI8Kmi0Lp8gkIUZ/Fmh8/xzeT1+JIciJSslUIii0F9aHZ+GH8z1gky/3EpAx4DJGyIXoWi38ehwnzduKcct7cQShUviEalQVO79uM31eux76Mwmj/eF+UTd6MXafNCG/RHw/JuigypJDMiwexY9MarDliRLO+D6DIpSX4YdzPWLJXpo3LWUBYYdQuWwiBkWVQv1FFmC5vxezvlbQlG6CLtsJaaxBeHdIO5WMC4Di2Aj+PHYepG47J46nkJ1n3yWO3dYY8dtM34pjcPu+xK14JxcIdOLliDladjUCjHh1RO0HpRuM7MUT0t6hk6/lKEzjfeJx2OJzKk+2c3isFymA8g/JIfIPSH9j3JR+hPLHSpjwFTbkKq4HOYIDRoMw4cO2LHmU0vs0Bp0eG3cr7KrX8nhF6WQNf/ZbwwKlcvZbrdMvAShlY6Z0qTZkx4cqyPC7YlStLylPRblqXcMvttcnfe/umq2SAo0wvJdehbLD8zOZdtkv+Tiv3wwCDbFQIZ+62K/30NDrlPRkUwAmHchXEJZej0nnXb1A5kWOX+yfkcjVKY0RAKNNXXXc8PA6L9/a1xhiEACVYvLpj/5SA2yG3xyGPn/equHJclEFJymwFyiO2bw5MPXBdOUbyOCuVtUqt7IfvnAi3PM7K1W8HXHJ/lJlwDHoZEHrksZC/U55Cp0zf6N1vYUf2Hfbb41KuoinH3HsA5fFTtkeZgk7IbbDKbcjtX6s8Dl853i65TrnR0Mv16bznXrk6ZYdVOQfK7Qq5vco+KbPaaOQylP1WrjIq+60sXzlvRu/MJ75dvZlwwZaTk7s9yj7L86/z2GCxuaBSBjt6p8v744+d299Biw6jYHt4JmaMqI1opSOszHbeKcp8j/L2pnMlXXjTkEx7euUYKbMfXFuecjxs3vSknB+l68Yt0rljI15v2hVfBT2HddOGokJkQG7j1pv+lWOmPH1PORS5UwZe/9hsZRtsVhscSjq4eqxyt8/3DXncc+TxlOderUyLaYJOnqg/7vF1PHZYrIDRO/PNlRW5YLU4vTMQXb9/uWkrdx+VU6JMOaekE2X/5AfIkdvm9Ki9j0A3ajxwyLSRWy748pxeNqiVPOdNF7lpzyhfyjb+0Y37YlQGjStPLlSOr7JypUySv9Wr5XHz5g95XpRpG+XxNnjT5+3S1vXH6yYyb3jzvnf7cs+/QaZnnUyv3ryjlD++9J472FeeZ2VKSfmd3MMkj4+SZpUp8K4cH2Ub5bFQyjarzEseebZvTDu3zq/6m9LWVcr5ssnzpeSRK58r5ytHni+Z3pXtvPorX3lpl+tVylRveSm3VXjTaW7e1CrbIstQtSe33FPSlre8V46jTHuW3eMxco4OrVuUgEaWcVlZ2fI858CcdgGHVv6KgzU/xU/PNETh0Ju66Nxi3QbZSsgty64rh29OE75jo1aeCKpsj7fbn0Z+V54DpQ7y5aUreU35jVIeevOaPL/KrDRKueJWnuAsP1f2RykLvGWHIbdLiXIulP1Xriirvfsvy31xrdy/8n35dbi8dYSSJ33pVaZ3jTwHVnmOlXEHSj1jkuWKx2aBzSW/I/OsyZserqRfua9yeUpdpIXLmyeurONaeek7Xt7P5PGX+5KbtmS695V3Sv2m3Pmx3fbYKedSmYVMyU9yH3MssMrtMQQEyP24rvwhor/FL8E40f+SK8G4/dH5WPBKfcQG3bYPwz/nWI9XGvXAzIqfY+XnXVEkzPfkVKICxpOyAq8/NB4hb3yGQbXiEayRQaFSHcmXMnONZeWbePl4L4x8pCriQvIwzxAR+RlvLhHlNU9u31ePt/Nl7lv/Jseplfh5wm/Yc9kGl8uMbFscmrWpjRBlTnrfd4gKGvO6Wfh171YsnLkKh5JsEGrfTD96DSwnFmPsQh1atCyCkMDbjcAnIvpv4JVxojzkcWTg8ITH0fGlBTDXfwtzxg1C3SIhNzzI6J9x4/i4XrjvrTWwl+6IXlVzcDqoO958oRPKRxhxyx4aRAWASNuGH157CZ/M3oVkdyBiE+IQEaiF02KDqVwHDHlhCNpXjUWQt2sIEdF/F4NxojxjxbFVv2LjsctIy3ZAaE0IDi+LJt2aoHSQHv/W9T635RQ2L1mFfal6JFSvj3oViiAiyMBAnAo2pQ+9NQcZ5w9g+86DOJNqgzY4FqWq1ULVYtEICQ74/8ckEBH9BzAYJ8ozykCv3MFP1ygD/XIHqP57PN756L1jybRaaJVHiPs+ISrwPG643G7v9IPKQFiNkob/tTtHREQFH4NxIiIiIiI/4QBOIiIiIiI/YTBOREREROQnDMaJiIiIiPyEwTgRERERkZ8wGCciIiIi8hMG40REREREfsJgnIiIiIjITxiMExERERH5CYNxIiIiIiI/YTBOREREROQnDMaJiIiIiPyEwTgRERERkZ8wGCciIiIi8hMG40REREREfsJgnIiIiIjITxiMExERERH5CYNxIiIiIiI/YTBOREREROQnDMaJiIiIiPyEwTgRERERkZ8wGCciIiIi8hOVkHz//teUK1cO6enpvr+IiIiI7g6bNm1CqVKlfH8R5b08CcZTU1Ph8Xh8fxERERHdHSIiIqDRaHx/EeW9PAnGiYiIiIjo/8c+40REREREfsJgnIiIiIjITxiMExERERH5yX86GHc7nfj7w0jdcDo5CJXor/LmOw5FoTzhhM3mApMXEf2X+G8AZ9Y+bDlVGDUqhUOvVfne/PeYV76GjkPnIWLIJEwYVBVhxr8yMtqMla91xNB5ERgyaQIGVQ3DX/o50T/gPr0OM1ftR0q2E+4r2VOlglqthd4UjIjYIihVqRoqFQ2DQfPv551/wrx6JLoNn4Ogx77Ht4NqIjpQ6/uE7mZKmpy1+gAumx3ehpaACiq1BjpjECITyqJG3RooEWFEHhTluRzJ2L1kGib+NBXbiryAyW+2Q1G5voKV+omI/h4/XRl34+ycD/HEW5NxONv+D65e354uLA4JCQkoGhMEjfqvFtk6hMUlyN8XRUyQBn/550T/gKZIPXTp2hiG7d/jk7ffxOjZO3HR7IZaI5CTdADLvn0B9zeqjtqtB+KTxcdhdhScOzhX8110ELQFrKFAf5+SJjt3bgzjzh/x6TsjMWbBYWQ4PbAnbsfk1/qgZaO2GPbdZiRZnDJQ/7d5kHZkNw7sWo1F6w7gTGoOXLw0TkT/JcqV8Xzn2C0+alFIBAXXEC+tuSxynL73/y7LJvHTxK0iy3ptQR5njshMzxBmm0t4PL43/zSPcOZkivQMs7C5PPKvayybfhKTtmaK61ZF9O/z2MWBT9uIQsEmUfmpReJEUqbIyckRlmyzTNfnxY7JT4tmxSNFWHQ10e+HXSLVKsOTfGbZPElM2Zousu3XcoiS77IyZL6T2/PX8x0VaDJN7vu0rSgSGiCqjVgkjidmyvSYJZK3jxU9yseIsIiqYtDUwyLN6vb94N/jdtqF5ejXolvxKFHiwUnieErODeUyEdHdzC9Xxs1rp2DBKTfcOQcxY/JapNn/ydUUB45M/hw/77oMWQdcXY5Ka0JIWCiCDBrlDv9fpILWFIKw0CBvN4CrP3ccweTPJ2JnspVXZihvqTQICjRBrVJDrTchwBQAk0n+NzBIput4VOvxNr77sAeKixOY/cbrmLQ/HTlu32/zg+Mopo6diB2XsmVe8L0nKfkuOFTmO+PfyXdUoClpMsAo06QKap0RRqOSHoMRXf1B9GsVD4P9MGZPW4lLZuu/frdTrdXDKMtjk0bNrilE9J+T/8G4JxELp2xGuWeeQetCeiT+NgWLLlrx/95p9ziQk+OAjLevY8fp397EsPeX4XRKOtJT5Svbfm1wj9sOm1yw8qfbZkZGWqr36aDKKz3L7luWB3ZzBtKU99MzkSMji2s/t8nt8v1tP42FI4fjg2WnkJKejjT5yrZYkJmedm2Z6dlwXFm5w+JbXzoylFu3VxZK9GfdNupQQWMIRsnOz2Bg40hoU1fhu0lbkZGRIV+56TE988qtfDdysq5P37n54Qq3zXb1e8qA5RvTqRs2ixlW57U84WU/g8XvPI0Pl55AUlpuXjDbrvutx5fvbvjRFW44bHca4CnXed0APbdDyfO3+y7lv1skSk0wShSLhUELmJMSkeF0Xw3G75y+JKVc//8GZDptsDrcELIRcKdA3OPIge268vuPPHDk5MBx3UWbP1K+c2Wb/8jjsOZui/z4VgOV/7/PvdwO2OQxus0qpOvygNsJ55U6yEtun1XWl959uM0xJaK7Tr4H4+5jMzH19D24v8tDGNC5OPSZKzFl9lFvAXYr7otr8fXLwzBsxAt4/vGOaNCgE57+aTtS7E5kbJ+Kb+dswvHL2Ujb9jPefu0lvPbjFlw8vgEzR49Aj8a10Pf748iyuWE+vARjh7RFraqVUKX1U/h2zVFku2SBCBvObpmI5zs2Ra9Xp2F7UhpOb56J0SN6oHGtvvj+eBbsrkxsn/od5mw8hmRLGrZNfBuvvfQafli+Dj+/2B31q1dGxRpd8fKkDTid4/JWRO7EHZj4bAfc024Ixq0/KyuJgtOvl/4b1MaSuO/eGgg2uHBi9WrsO70TS395A70a1kS19u9jbbJFVuSpOLLmF7zZqwFqVuuMDzdehsWegWOrJ+L9wR1Qv9lzmLN5Kl7qWg8VKjTAU7NOICv7HFaNGYJePR/F088/hV7N6qBpr5H49WhuXtg5/QfM2XAUieZUbJ/8Ht54+TX8uCkVKae3YvaYZ9GzSR30HX8IqdZrad6duBE/vjkMjw8ZgWeH9UarJm3Rb+RM7E21eRvFnszjWD3pPQxufw9avDgfRzZPwZu9G6FS6ZIoX/8RfL35srehTAWRHYmJqd4AMbRwEURqLDj1+2R8MESW182fxcwNv+DlHg1QqWIDDJ9+FOkyXdhOr8BYWa4PGtAfve+thWqNe+DlqbuRYpVBqHeZHmTum4m3B/ZG70FPYfgj3dBjxC/Yk5IjQ9Dr2XB6xVi8PGwQBvTvjXtrVUfjHi9j6u7r0ov7EjZ8/yZGPDkCzz8/GJ0bN0Ln4d9i4wWZP64kKdtprBj7MoYNGoD+ve9FreqN0ePlqdh9WWnUys9zDmHmOyPwzKvv4N03nsGAB7uh3cCvsSc5Gy7l99ZDmHWnz+VWJ22eiLeeHIwhI57FsD5t0LRtX7wxbRcuyzpDWYWSB36f8iGGdmqI5s/OwPopr+D+hpVQscEwTD0sG9MHZuHdZ57Bq++8izeeGYAHu7fDwK93I9mcuwYiuov5uqvkkxyx4fXmouMHW0RyjlNYtrwpGkQGiMAqz4oVyRZxczds98WF4vlWzcWwqXvF+ZR0kZGyR3zSNl5ExdQTr65KFtk5FpFxdKzoEBMsSvSdLI5cuCwysrPFmR0rxIznm4iYoADR9KMD3j6MbodVZB79QTxQMlgE1HxRrLmUJZzeToce4UxbIJ7s9JxYcOKysFjPiJ0rZ4jnm8SIoICm4qMDaSLH7RaOnAxxdGxHERtSQjw06Yg4fzlDZFttIjtxlXi1YbQIjGgrPt93WWRf6S7pyhALhzcUPb/cIS5kOti/kf4ilzgzrosoHBIoqj6/WlzKuvUgBevyZ0T16AChDeksxh9PEmkZm8RbTeNEWJWnxOKLWcLhkWnXmik2jmwi4sJqiGeWXxQZyUfF5iXfiEdrRIvgmAai25DnxfuvPigaVqwpHp14UOz85kFRtWhz8dqqY+JCarpIWvOGaFa0kKg5YpFMyzZhz8kUx77uKhLCS4o+P+4XZ5JkXrDbxNldq8WsF1uI+NAg0fi9nSIp2+XdRnfa7+LdDvVE53eWisMXUkVGRoo4ufBl0bJUUVG97/diV0q2SDu2VSz7+hFRVebl2AY9xGODXxdfTZohJn/ykKgeEyGK9fxOHE7LEf9+b2T681zilDzvxcICRY0XVonzGQ75nltk7PxS9KoYKQJCqolhc46JlMSjYsvS8WJA7TgREnuP6Dr4OfHeqw+JxpVqiv4/HhDJx+eLlx4cKsatOSwupKSJtAubxKjuFUXhhPrihYVnRIbdI6wHJoj+jZqLQd+tF8cvpYr09HNizTttRfEwkyh8tc+4W1z87WXx0NBxYs3hC+JyWpq4sHmU6FGpsEio/4L47XS6sLkuiaWvdxRth/0stpxIFOkZqWLf511F6fg4Uee5heJiul2paMRvLz8kho5bI9PnZZGWdkFsHtVDVCqcIOq/8Jv8jkUc/PoB0e65mWLf6csiMytTJG74UHR94DOx7UKGrLdc4uA3vcV9z824zedukbbuA9G1QRfx1sID4lxKhshIPSkWv9ZGlCteXTw4bptIzHaI9OMyD4wfKOoUChWx93QRjz/3nnj1ocaicq3+4ofda8Wnve4Tz83YK05fzhRZmYliw0ddRe/PtsrzwAFMRHe7fL0y7kldiomr4tGxczmEGLQIqNYbPeuFAidmYfKqFNgdVy5TKHKw/qt3MdXeAL2al0RsRBhCIyugyyO90aR2RRQO1kOjD0BwsBE6bx/GAISEhCIkMBCFqzRGm0YVEKpR5iPMXabSxzGkVDc82qkUjCeXYeFBG3IvxgtkrFmOjCY9US8uHCZDYVRu1AaNKoTi2s/V0JmCEWzSQqVSQx8YjNDQEAQaDQiMaYjHB7dBIc9O/Lb4LBx233Wb7A1YdqQSurQrhcggHfs5Up7QBJpgUDpnO2ywCi0MATJdGq7rVyvTq84o80agEWrftECq0BKo2fQ+1CthhMYpUL7LYDz2/FdYsHY5Rt9fHMhKQoa+EEoWiUREeBhialVDKb0Dl86ch83tkXkhCMFGnbc/uy4gGCFKXtAbEF+5Ae6V+S5cp7kuvTuw78eP8OPeaDTtUB0JsREy70Si+L3DMbhlCC4u+hhfLk8CClVD4/vqobQsF1TBddH/heHo16Mzejw+FN0qGJB1cC9OWhy5VynJzwQS10/A+2+8iCcf64o2D3yCXYGNMezLb/FSy2IIjy6JGk3aoV5JE3ROoGznQXj0uS/x6+/L8XmvEjg182usckTAmHICB3fvxK5DmYgqHAZ35l7M+XUbsrOOYMbHn+P3wObo27oSisk0ExZWGPd0b4sqoQHQ+bYCjp2Y+NUq2CMMSDlxEHt27sKhjCjEh3mQuXcOft2WjpTfv8Mn082o2rExSifEICw0AuU6PoiezeqhSpFQ6DQquZiJ+GqVHRGGFJw4uAc7dx1CRlQ8wjyZ2DvnV9iz03HiwD4c3rwWh7NV0Ms8FlP7IfTvVA5RgTK9yjR+Yr/y+bpbf+44gImf/oTd4Q3QrloRFIoMRWhEcbQcMggtw5OwdNRXWH4+C7qi1dG4XT2UNOlkOi+LTgP747kvf8WaZZ+jd8kMnDp4GFvWHoYZegSExKD2g/3RsVwUAvNsPkkiyi/5GIy7cXrOFByo3h1tEwKgV9ZsKIkevZsjRpuMRZN/wxmrw9vFw8uxDytXHocrrhRKBOiQO0uaDiW6jMSEKZ/jkWohMNxm7m+NTg+DEqTIddxQTKlD0ajf/aiqP4W5k1cjxeaAcJ/F/EV2NG1fWgYYyqAzDXQysAg0GeTB+ROFnEqPwrKyub+cwM6JP2JDug1O4UHi4lk4VLUzmkT79pUoD7gys2D2eKAKCUO4TGjK4Dqvm5Lulbe9VFqZxgNkw1M2YoOKoEypcG9DNjwyAiFGE6oMnYrN677EA7HZMhj5Aq+/8jO2puQgRxlofYdgWKMMsvPmu+v69joPYMmivUgzxKFYhB5aX15Q6eLQvEUthIpLWL1yN+yyUaCXDWmDWg1jZJwMqIJlY1fJxwmIi5KNWbsFlhv6zpL/qBBT9wE8+dwLeHnkWMxcvQXrl/yEN3rWRHywbKQp849fSV+BRVC6pExfob70pT+DLRuPweoGbJYsZHjH35hhqDcI740eg9d7VEbQpWWYtz4RphJVkBBs8pX9Kuii5O+1mquVlvvUZmw8mgO3sMkAPgPp6WlINxtQb+C7GD3mddxfJRinNqzBcVsEihWVaUuXmyp1xTrglW9+xuiBdRERpMKpzRtxNMcNYctGVkY60tPSYTbUw8B3R2PM6/cjMiwUFWpWhen4FAzp2h2D35mETYlBaN65FYqEBEAjg+MKteTnJ3655eeeQ0uxZG8qtDFFEaE0Yr1bIfcnrhma1QyHOmktVu/JlA1drQzkjd48EFikNEqGy6A9NByRESEwBVREraoBOD5VNk57DMY7EzfhUlBzdG5VFKEBfAgG0d0u/8JEx25Mm3YYjqMT8PRjD+KBXr3Qq9dDeHrmJVlIupG+ZjJmHbbgyoVluC8j8bIDNnM2bNdVwRpDEELDZOEkC9ab4o0bqG6IPq5QwVS5Dx5sEorLSyZhwRkrLHtn4feQtmhVWAkEfF+T37vlz29DHVQPjz7SCMEX5uH7uadgsR7HvLkpaNCpFsKUq+m+7xH9u9w4eeAwMmWm0VeogSom3bWrhn+WbHxqbpoPXGtSI2n15xj6+LtYbK6M3iN6orZsVP6pC3A3ZxzXBZy+YIXT4b6pr68KwUWLIkoPZKamwiMbFLnvKouQjQrvXwqtN4BXyVYAB6oVHGoZbAeFRCIuoQgS4mMRHRGKQOWuxs1pRAaW3vPn+xPuVCSn2mE1FkXjVm3RvkMHdJCvTt16oc+DD6JXs9LQXziJE9kOGTXrrzUuFTJdXL94d0oSUh1WGIo2Rqs27b3L6dChE7r1kmX8g73QrHQAsmXasuWYYbELyLZcLo0BgcpdVJlf1CoPUpJS4bAaULRxK7Rpn7s9HTp1Q68+D+LBXs0QJBuJxR/4BN++0w+1dYcxb/RwdG7WHk/+sAUXvfOqa1C818cYf5vPnRfO4qLVAYdbSePXJWJVEIoWjYJBlYXUVAfc3gySu4cqjcyX3n/5aIqj10fj8E6/OtAd/hWjn+yMZu2fxA+bLyL7asd3Irpb5VswnrV6MpZEDsSX33+P78aPx7hx47yvb3+ahq8HVUewZy+m/bIFZrtvAI86BKHBajj2rMW6ZDtu6MFi24+Va07D8XceV68riq4PtUNh20ZMmbENSyfvQsmO9REpC+ab65E/TaVHyfsHolPRHKz7cSK2bJiCX0VzdKwQAiNvIVJeydmOOb8dQKYjFM27t0XRQKO3Av8rDck/ysGOMQPxyEfHUHP4yxh6fyOUiw2F8fopPv8KdRgiQjRQpZ3CyTQHrh/HrNLKQFulRaEiRaDR3uHqHrNQgaVc9PhLp0cdKINbFdK3r8Mus0wMemWKRN9L78TFc0lQYlaNDJKTz51DjuvKgM7ryXfk/9RBwQhQZWDH+l3IXdS1ZemdF3EuyQVTYBA0rgPYsDEJOdcNKFYGfh78fZ0Mwu0ICg6AKmMH1u8ywwP9te0x6uG8eA5CboMdYaj94Nv4Zeli/PhqN5R1H8DskU/h0xUXkSEDfYfyeZ+3bvm52RiGEJl/0k6f8k7je20rVNDKPACN8qAso/y37+1bko2TsNro89YULF38I17rVhbiwGyMfPpTrLyQDtsfDxIR3UXyJxh3n8Ocn3eics9OKB8Xg4jwcIRffUWjwcMP4p5Q4PSciViSmJM7wl1fGQ1qx0CbsRSjP1mCM8pjmJVleTKw5Ztx2OgIgEupBnyRh8utjCj/MyWSGhGt+qF7eTUOTXkeH5+ogvZV/lzQnHu13Q1ZNv/hKp06ojkGPFQHxpNT8dIL8xHcsh1KBhluvLpB9FfcKTl7UrBu9Nv4aXcaAhs9hWe7lkSISaY2GewEmmQ6zc6AWUa+3quBniycv5gh84hdpt3/J484duLXWZtxNrA0apWIQligXgZGuVelPVcvLV7JCy54s92d6KuhZdPiCBD7sGzZGVhs166PWy9cRIqqDO5tWwkm41++pk9+cKWjkPi7tym0pVG3eiHok+bjw/dmYk+Sb7YSWbpf3jAOP65Khq1kNVQK1cO6cQ4WHMuSAbn3lz5CpjklQBfQlqqDGoX0SJ7/Ed6btRuJFl/g7rmMDeN/wqpkG0rUqYlYQzZWf/U5lhxP9XaPUdaVuf0HTNiYjSybFqXq1EAhfTLmf/QeZu1OhMWXRzyXN2D8T6uQmZWB9RN+xDazG8b4qmg/fAymfv0YKhvPY9++RNjsOVg34afbfu4p1xSNSwRBfWA5lp/Ovm5/rLhwMQUo3QKtKynjLu5QB9nW48eftsk8bUR81fswbMxUfP1YFZgu7MW+RGWqQ9/3iOiulA/BuAcZ677BD0cr4t76UTD6+u1do4KhZBd0qB0EzeVF+ObHnUhX5lhVhaP10CFoFgccmzwUnTr3xRPDn0Df+1ph+PZKaFczBAYZQKuDwhEmg4+03SuwZPUcjB47H2eU+cjtytV0AYfD+YegRhVQEw/2rofAlGQUat0Jpf8QNAvY7Q5Z4Tig/Dz392oEhYXCpErFnhVLsHrOaIydL4OLKxOkq4yo9OCjaBtrwYnMSuhybzwCrvV7IfqLBDIys65237ie7eJm/Px8XwwcsxmoOwJfjnkcdQsFwZu11DGoWD4eutRVGDd6MubOnYTPXn4bC05aYHdcxJbf5mLhhhOwORzeRqXHaka2Mldx7qLl74Ng0ssm58G5+GbqMqxZPBmfvPEztqZaYD2zDXMnfIf5R7OhCZYNWFU69q5aitWzP8eX80/lzjUu841DbvPVfKcKQsMhL6BHJR12f/chftmdlDvlXM4BTJ2xHZHdnsJjdaO9gYiwWmGTv3W6rn8ImAz4ZaDhcdhhk/n52vuU/zzIyjLDLc+ROSsLLvnf25+P3IsWHmu2txvFtXZcIOo/NgStS+hxZs5L6NnhfvQfMhxP9O2ATiPPoUK9BASW6oLH+9VGjHMTPh78FEZNX42dO9bIAHcO9qRn4/K+VZg3fx0Oumqg7+DWKK4/g7kv9ULHno9giFJHdOiMkWfLoW7hIMS3HoBBzYtAf2YGnr2/O/o+PgSD+3VE62EbUKRxFRiDjAis/yieaF1cfmcuXurVET0fGYLhT/RFh84jcbZcXYgAE2xHZmHsD5txzuyC1hSM+NLFEB1cFtWrxMJgUMF2VPl8060/j2yIx5/pgcqm/fjxk6nYedHsveCUc3AGZm0PQ6ehj+KeuFB4Y3HZulUmx1W6Zyr56OphEzYcnfUlfth0DlkuLUzB8ShdPArBZWqgSqzptuOniOjuoBkp+f797/NcxpaJH+Dlkd9h7bFkZMlKPzChGkpF6qG5Eqe6T2LF9+Mwcd56HE2z4NKerTiY4kZE6WooXboWmtWJQfbpg9i7cw8OnbciuvFgvPXKA6gZFwidMjuELhrB5j3YvH4N1p0IRqv+vVH49Dx88/XPWH7wMlLkMnWRRVGnbCx0V1aq0iK8mAaHNgei1/PdUDHC6BskJLnPY/3kL/DVz8tx8HIK0iw6RBSpiHKywDPGhsK8ZzM2/L4eJwJbov9D9ZAQrPRrzP2pOrAogs/+hn3lh+PFDuUQqjz9M/cjoj/NfXo9Zk7/EeO+n499lyxIO7YFa1Ytw6IFszHt5+8wftJyHFeVxX1D38L7z/dAvaLhMF1NwBrElYpF9oFNWLVkGTYcdaNy76Fog61Yn5WAWnUboHktPfbOHofvZmzEicvnceaSE8boMigfHwy9LhJFo604umsjfl+9CQczC6PdwN4ocX4ddp61IqrFw3iwYTFEJYQhe99WbFwr80JAM/TtUwfq/bPxzTc/Y+n+RCTL4F0bUQS1Zb4LiCiDexqUg+7iJsz5cTJ+Xbkay5ZsQ07NgXhlaFuUjwqA49gK/PzleEyTDYXky5lwaEIQV8iMzdPH44dpcjuTkpHhCkBciUooGm64OhCU8of79DrMnPETxk34DXtlMJlxKQkWdw484WVRVJafyqwkV3jMB7Hkpy8wftoGHE9S0pcDhujSKBevXEBRQxteHg3qFIO4fAqH9+7E7gNnkRPZAINefw6dq8YiSG9CfI36qBSQgeM7VmPhvPlYuc+MYk3LIHtPGuKq10H91i1Qp3gs4is3RL1iQMqpQ7KO2I0DZ3MQ2WAgXn+2C6rGBUGvj0alhjURZ7uAI/vkug6dgyX8Hjz26ovoXa+oLKPVsjoIR/kGdVEMKTh1aC927j6AszmRaDDwdTzbpSpig1Q4umoqli5bhAUrtmDHtk1YvuYcEnqNwNB2FRAbCByTny+57edGhJash/pl9UjaOhc/T/kVK1Ytx9Kt2ajW/0U8cV9F+R0NLIeW4Kex32L6umNIPH8WiQ4DokqXQ+EQmd7dR7Fq2lIsW7QAK7bswLZNy7HmbAJ6jRiKdhVivTOqsK4hunuplPkNff/OA8rTzLKRbbHC6VGmBzQhICDQe0X7WsHhgt2SA0tO7lPFlAFleqMJgcrMCvJ7wmVDtjKIU3mqmVoLnTEQwYFKZXxlCQJOSyaychzwqI0ICg2CzmOD1WJBjnLvTmNEgFxWkFF3pUdLLo8dWZmyklAeeX91WQq39yltFrlNuT8P8G6LUScLbeGEJTNLLtcDtTEIocFGaK9fqOcMvn/oaSQ/OR5P145GwJ/o+kL0B24HrDY7bL6nBSoD15Q+1d7BbELpeqLyPh7cIPOTSa+92hi8yuOAJUsZtOYCtAYEBskg25WFTDugN8jfyEai266kcZu3D7dGvqfkS5M+9xH2HocFWWZf+peBUVCQER5LBrIdKuiDQnKnNYQTOTIvKHeGlLwQIr+jlnk1x5J9Xb4LkPlO712mUPZJyZN2t3dwmrIvGoPMWyZlpiQln9uRI8sKi9UFj2wsmwICEGBUttPq206VLD8Cvcu8sfygfHElTSpPf1Se4qrWwWQywiDLaoNSNvq+5iVc3rSbI8t0p0wKal/6CvClL+9X3PJ8Z1tgtTvhlunZm86ClTL/yrI8cCp1R07uFLRKeg8I1MKpPGFZZ4AxwASjzBMqlfCmZaWOsStPtVTqD2XqzevrCGV7ZLq0WJWpMeW6dEaZJ3xleu43lA2C3Zv+7HKbhUyjephkvlEGparlOuzmdG9a9yizbSlz3spqU6kbAgzKIND/7/PcVbgdSp7L7VKiVh7rL79rUPKdMhWo/I5S1+Uox80qj4nMYQaT/L1M73plvIaww5xu8V4tV2lknvGuQiOPg8wPNx9/Irrr5HEw/r/Fsfcz9PnEhDc/74+KkSb2FyciIiKiO8rzYLxixYpIT0/3/fXfJpzZyMjReB9EdO3KPRERUd7ZtGkTihcv7vuLiO42eR6MJycn33IQ2n9DOuYNb4MX5p9HNmLR+MkxGDOkAWI5tzgREeWT6OhoaJS+K0R0V2I3lX/EA8vJdZi/8hi0ZRuhcfXiiA65bjAoEREREdEdMBj/pzxO2JUROVo99FcHHxERERER/f8YjBMRERER+Qln6yUiIiIi8hMG40REREREfsJgnIiIiIjITxiMExERERH5CYNxIiIiIiI/YTBOREREROQnDMaJiIiIiPyEwTgRERERkZ8wGCciIiIi8hMG40REREREfsJgnIiIiIjITxiMExERERH5CYNxIiIiIiI/UQnJ9+/8Zd6PrafiUb1iOPRale9NIiqwPCnYMX8+tl/MgdOT+5bKVAatejZD6WADNLlvERER0V/gp2Dcg3MTH0a3BfUw4bsBqBRm5CV6ogLOsfszdOs9GpsumeHylhoaxHQcjd/G9kKZcOZhIiKiv8M/wbhzLz69rx3e2loITy5YgtcaRMGk9X1GRAWPJwnzRgzFwpgmqBETCIM38tYirnZ7tKgUKfMv724RERH9HX4JxrNXvYT7Bv6I7WeyEP/YL/h9VAfEB+rA6pyoYHLs+RyPfWnEU2/0RPkoU26XFJUKGp0BOo2KeZeIiOhvyv87y55ELJyyCWWeehr3FtLi0oIpWHLRerUPKhEVMJ7LWPLDJKxeNBrDn3gOH05cj3N2DfQGI/QMxImIiP6RfA/G3cdnYeqpuri/a1881qk49JkrMWXOMeQ43L5vEFFB4kneii2ntQhwXcKeVdMw5qU+aNdlBCbtTIE1t/M4ERER/U35HIxbsfWXefC06o6akXFo2bcrKpgc2PbLdOw02+HyfYuICg51dAu8MGEB1u7ehbXTPkL/umFI3zEJLw5+CwtPZ8LOu1pERER/W74G457UZZi0Mhbtu5RHiFGLwBq9cX+dUIgTszBldQrsTl5lIypwNCaERsUgrlBJ1Gj7GN6dOBNj+pSDOPoLPp+0Fxk5bEYTERH9Xfk4gNODU9/3xsO7emLShx1RNFgPFZw4N+lhNBk6D9bmo7B6Un+UCzFwijSiAs0N24WFeKHTAEwNfw7Lpw5FlehAzjNOBZ8nA8c2b8XRFKtvek5JFYBitRuiguECduw4ihSrC9c+KobaDSsiLkDPeomI8kz+BeOOnfiw/SOYqy6JYhEBuDITmseaiD3rNuCEow5eXzEfz9WKgIm1OlHBJsxY+Vxz9N3aFtNnvoj6ccHg7KRU4Dl3Y9T9/TB280VkXbkTqymGh76bi1fjZmHQwC+x+WIWrn30EL6bOxJti4bDwJHKRJRH8i0Yz1r2LDp+l4CPPuqJkjdc/XZg96dd0GvsQRQaOBur3m+J6AAtZ2ggKtBc2P1BGzx4oA/mftEHpSNMvHJIBZ/Iwslt23E81XbDlfGEGvVQ3ngJu3ceR6rt+ivjCahRrwJiTDqmbyLKM/kTjHvOYWK/vtjU6Ud81KU4QvTXh9oCtkNj0LXla1ir64xxq8ehV4lg3PAVIipYZJ7+qd+j2Nn5K7zVsTTCjQxV6G4g4Ha54PGIqwG3rAah1mqhVXngcnngub5KVKmhlZ+pWR8RUR7KhxrUg4x14/HDkQq4t0E0TLqbSzUVjKW7omOtQKiSF+Kbn3Yi/borE0TkT04cm/cBXnzjKyw9kgGHW+ZMdxI2fvM+VhQZgIHNiiAk93GcRHcBFTRaHXR6PfRXXzpolWhbpYFWp7vuffnSMRAnoryXt7Wo5zK2ThqJwc98h+1Hfseksd9i8SELnNdPKe4+iVU/5r7vcGRhx1fDMfi1r7HsRA4fBETkdwJZx9fj1+/fwsPtmqNd587o0PUp/GJri+eHt0P5SCM0DFaIiIj+tjzupuKGPTsLWWYL7G4NDIGBCAwK9l4dv1Z/u2Azm2H2fkdAqOT3AoIQHBwM4w3fI6L8J+Awn8eBzZuw52wOjDGlULlqacRFhCMsyACtijmUiIjon8jHqQ2J6O4k4HY64HB5oFJrodPreDWciIjoX8JgnIiIiIjITzjyioiIiIjITxiMExERERH5CYNxIiIiIiI/YTBOREREROQnDMaJiIiIiPyEwTgRERERkZ8wGCciIiIi8hMG40REREREfsJgnIiIiIjITxiMExERERH5CYNxIiIiIiI/YTBOREREROQnDMaJiIiIiPyEwTgRERERkZ8wGCciIiIi8hMG40REREREfsJgnIiIiIjITxiMExERERH5iUpIvn/nATdOr52JNUcyYHV6cHVFKhXUah0MQeEoVLIKatUshSiDBirfx0RUkOTg0LLZ2HjKDLvb99ZVakTV6ISOteNg0rFtT3erbBzeeQbRFcog3KTnVSoiyld5HIwDTqsZaUcmY0Tf97EiMQSNhz+HB+skIBhmXDy0GQtnLcB+UQU9X3wHz7UvgyBW6EQFiidtAZ5pPwIzjqXB5vG9eYUqEh0+X4ov7i+BMCOb03R38lyYjqF9F6DCh5+gf81CCNb6PiAiygd5HvnqTMGIqdAQVaJsyM7WoETDe9GsSWM0bt4W3Qe8hDFjn0UN8xp89fQwjNmSDtsfrrwRkf94kLxiKY6XeQCvjP0Z02bOxKxZs7yvaW+2QWxYddSvEQq9noE43a2cODxvOlbtW4yJs/YgPdtx7S4uEVE+yJfL0CptKEICVFCpNDI4N8FkNMJoDEBQSAQKVe+FxzuWgCd5E36ZtQ1mu8v3KyLyO08idmTWw2tvD0e/Lm3QvEkTNG4sG9ON70FIxiVo67ZEk0ImGHlDi+5Wls2YtfAoLLYsHJwzE+uTs2FjNE5E+SjfqlDV7S6caQIQExkMtcqJ5OQ0uDzX9S0nIv9Sx6D5A91Qq2gMQkx66HS63BcOY9XaNFRq2hixJiP72NJdyoPk5TOxOeERDGheFIGXl2Dm8rPIyuEtWiLKP/6vQx3HsPz3I7C5AlGjbmWYdFoO5CQqMLQICA6ETn1jrnTuX47VlyuiWeNYBPCyON2t3Kcwf9ZJVG7XAQ8+1gmlAi1YO3MBjmZa4PR9hYgor+VvLSrMOLd7C7Zt34Gd2zdh1fwJeGfgY/h4gx0l738Lb/YqjSA9K3aigs2JgytWIaliUzSMDWAXFbpr2XbOwm/2e9C2RhyKtuyNDhVD4Nk9C3N2psFi5z1aIsof+R6MH9+4HIsWzMOcmTPwy8SfMWXRbpgjq6FB7fKID9XjpgtwRFTQOA9jxcpEVGjaCIUCDOyiQncnTzpWz1iD0GatUT4yCPrAqujRpQ4iNafx68y1SMy24ebJg4iI8kL+1qPqGNzz4FAMf2oEnnnhVbz/5VQsmD0aPSIPY86HA9H3lQU4ne1kAUhUgDmPrMDKSxXQtFEhBBg0vneJ7i6ecwsxa18ptGleHGGBWqhURpTq0h1NChmQsmwGlpzKAruOE1F+yOeLWlqYQsMRERGBiMgoxMTFo3T9h/DW8/chypaE7T+PwbRD2XCwACQqoNw4tnIlLpRvgsaFAsBYnO5OTuyfNxsHzMcw/a0RePyRfujXrx8ee2kOzslq0Z2+HjN+PYiMbPYcJ6K85/c7zCpdAOIb1EYZowYe8wkcP+eAm5fGiQom9zGsXHkO5XxdVBiL013JvB4zlwWg+1ufYNSoz/DJxx/jY+X16ZeY8PkA1IkCDsyZjW1p2WDXcSLKa/kWjN/pOZ/WU6dw0emGCCiFcqVkBc8anqhAcp9YhZVny6Npo3h2UaG7lAcXFk3HjuJt0bZKKRQvHIe4uGuvhEYP4f56UdCeW4DpK88j08qrQ0SUt/InGBcZyDSLWwTkHmQdmoO335yCw9km1BgwAj1LBsLg9+v1RPRHbpxauQKnyzZG43h2UaG7kydrM36aeBBFG9RBXLDpD3d3VMZS6NC2JsL0qVj6wy/YkWyGg1fHiSgPqYTk+3cecOP0uplYvmouxo75FQczNYitWA3lixZCTJgRbnMSzl/KgghKQK3Oj2Fwn2YoHx0ILWdUISp43Ccwvmd3rGj+M75+tDKiAxiN093Eg9Sds/Dtl19g3Jz9CGz6GB55+GEMalcRYSat7ztunFk3BRO/+BijFx5BhjsUldv2Rf9Bj2NAyzIINjLNE9G/L4+DccBpNcOSk40ssw0uD6DWaKDxvtSybHTB5QY0OgNMwaEIDTRAw0CcqGByncXamdugbdQWtQsHgo8EoLuN22ZGZkYGsqwuqI1BCAoOkfWOXtY71yoepzULWZmZMFud8AgVNMZAhISGITRAB/VtHyVNRPT35XkwTkT/FS7Yc1xQGQ3eJ3IyLCEiIvrnGIwTEREREfkJbzQTEREREfkJg3EiIiIiIj9hME5ERERE5CcMxomIiIiI/ITBOBERERGRnzAYJyIiIiLyEwbjRERERER+wmCciIiIiMhPGIwTEREREfkJg3EiIiIiIj9hME5ERERE5CcMxomIiIiI/ITBOBERERGRnzAYJyIiIiLyEwbjRERERER+wmCciIiIiMhPGIwTEREREfmJSki+f+cTD8xn9mDXoVM4n2yFPrIoKtWti7JRBjhPHsDZ2PIoFaiBRuX7OhEVADk4tWYmZizbiwsZdphKNEK3BzuhZlwAdGzS013CfXYT5q8/jBSzAx5Z9eVWfiqo1BroDAEIiy2OijWqo3R0ALRM10SUT/IxGPcgfe9sfPPlRKw8H4GajeuiYtFIGOzJOHFgP865wiCOnkWFD8djSOVQGDW+nxGRf3kysWPcCLy1uRQeHt4LdSKSsWLUG/jmVA28OPo1dCwTCgMDF7oLCGcOzGnHMOPVx/HxktPQ1xmAYb3uQYkINSyJx7B92TwsPuBC2Y5P4rWnO6BChAla32+JiPJKPgXjHlxc9jaeePEXJFd/Cu883wGVY0MRoNfKDXDCbs3CycXvYdjLW9Bw4gq81zwaASwBiQqEnC0fo9djS1D+o3F4oWVpROldyD75C4Z3ewt7a4/ElM96oVy4kX3e6O4g7Ng3qhs6vLsGQQ/+gtmvNEPRcB2EywFr5nH8+sZgvLUkDeUe/xY/jmiCwiF68EYtEeWlfKk/nccn4ZWXvsU6ZzM89UJPNCxXFHGRYQgJDkJwSDiiYouiRo+X8ELnaDhzBPK95wwR3YYFG2bNxE5rIVStEI1ggxoqtR7BJTugfR0jzi+ZiLmHs2B1+b5OVNCptAgNCYRGrYZGb0JAgAkmUwACg8MQlVAd9z/aHqU0adg6fS62pVngYHVERHks74NxTzpWfvMllhzJQrluD6N5sQgY/9AhXAVdUHG0HdABpVUaqFn4ERUM7jPYty8ROR4d9FrVtSuE6jBUq1ICupy9WL8tBXaHx/cBUcGnUt3uWrcWgTFRCNaq4bycjFSnG27fJ0REeSXvg3HzOvy66DgyXMVQr0lpBOvVt7nlp0ZQtUfRv2UYjDreFCQqEDwO2O1ueDISkWiWgcnVhrIaIaFB0KhsuHguCW43Qxb6L3Dg5O8bcMxsh7FyTVQMNEDP6oiI8lieB+POYzuxJ8UOt7owSpY0QXOnaVJ0IQgN1OC2Fy2IKH9pi6BUiSBonbuxZl0irPYrV8AFsrKy4fF4oFIrGZaZlu42ApYL+7Fj507s2rUDW9YsxMQPh2Pwx6uRXqg9Xny5FypGBnIAJxHluTwPxj2pqUh3eiD0gQhU+pv63ieiu4AqHC16d0PFECt+H/sOft5wGpm2bFzcMQc/Lz6ILLsWsfGxUGvyZfgJ0b9IwHxqK1Yt+Q2/zp2FGVMnYeKUBdiWEoQKdWqhUtEIGDm/IRHlgzwvaVQBATAqV86cNticV+Z1JaK7gxqRjZ/F6I8Go1ngLnw5pBs63f8EPl15BGcvmuHWlkOdmuEw6Bm00N1Gjaha3fDooCEYNnwEXhj5GSbM+AWf9UrA+WVj8eTANzDvSCqs7IFFRHksz2tQXZlKKBekhcZ1GseO28GupUR3F5UxCtW7v4ivZy/B8kWz8dOXH+DpOm6cT3MhoG4X3Fc6mM8FoLuS1hSGyKgoREXHILZQYRQt3xB9Xnsa7Qq5cHnHZHw9Yz8yLU7ft4mI8kbeXxmPboUuzQvBqD6LVYt2wuxw3f7quCcdJ44nwenmzAxEBYcK2oAIxBUpgVKlS6FEER32zFuII/ZS6DmkB8opD0Zh/zP6L1DpEFj4HtQsEwSDMOPkifNwOjlvJxHlrby/t6yJw30jnkKrBA1OTvsY4zcnweq6VTiejQOzp2KbWQcPe5YTFVBunFv0KT6bn4JyA97A8ObFEMYuKnS3udOzLGzncC7RDqfHiGKlikGn0/k+ICLKG/lQi6oRUukhfDjqaTQK3IOvhz6K58f+ih0Xc3zTpHlgPr0JMz4fhSWoi6ZlQqD3zs5ARAWLE4nrPseL765GUK/38OmwligVrgezK91tMs25MwHdTJiP4rePP8Ave9OgqdQXQ7qXQ2gg51MhoryVT4/DlyG3LR0XD/6OGZNmYMWOY7iQbocuNBoxkZGIK1UTrbp2Q4uqxRATYmDlTlSAONLO4sTRfdiwdAFWHFahcoeH0KtVdZSIDoCWmZXuIu6zmzF/1WrM+foLzNt9GSK6AqqVL474uDAYPRZcvpiIDKcesVXaod/APmhVtTBCbvtsDCKif0e+BeNebhuyMjKQlZ0Dm8MNqDXQaLTQGQMQGh6OIIOGhR5RgeJB8r412HHeCVNUAhJiIhARFYWwAB0bzXTXEc4cWf9kw5yRhRynrINUsg7SaqHVaKCWad3lUuolHQyBIQgPD/ZObchkTkR5LX+DcSK667hsFtjcKmj1Bhi0fCgXERHRv4nBOBERERGRn3AaBCIiIiIiP2EwTkRERETkJwzGiYiIiIj8hME4EREREZGfMBgnIiIiIvITBuNERERERH7CYJyIiIiIyE8YjBMRERER+QmDcSIiIiIiP2EwTkRERETkJwzGiYiIiIj8hME4EREREZGfMBgnIiIiIvITBuNERERERH7CYJyIiIiIyE8YjBMRERER+QmDcSIiIiIiP2EwTkRERETkJyoh+f6dB9w4u3Ee1h5Jh9XpwZUVqVRqqLU6GIPCEV24BCpULofCwXqoVb4vEFHB40nF7sWLseuSFU5Pbm5WmUqjWdeGKBlkgMb7DlHB5T63Gb9tOIIUswPuq1WfCiq1GjpDIMJii6FCtWooFR0ALS9VEVE+yeNgXMBhyUTK4al4ccAnWJVkQMX23dCiUjzCtA6kXzyKnRs24mBmKCq27I1hTz2MRgksBIkKIse+sejTbww2XTLD5S011Ihq9xHmfN4TZcKMvM1GBZ5wWJCZegyzXh+CT5efgb5Wfwy5vx6KR6hhSTqOnSsWYOkhN8p1GIaXh9+H8hEmaH2/JSLKK3kcjOfyWHfjg7at8N7WOAycNQfP141GoNYDt8MGS8ph/Pb56/h4/mnoyvfAe+PfQ9eywdCzZicqODzJWPjicMwx1ULFSCN0yl0slQ6F6nbBfTVjEahjhqW7hMeGvaO6oeN7vyOozxTMfKUZioXr4HHakZNxFL++OQzvrchEhcfH4funGqNwiB68aUtEeSlfalC1PgyhQWqoZOUdEB6JyIhwhMv/RsUWRrEKTdDvnS/x2r2hSNk5GW+8PQPHsu3w+H5LRP7nPDgLszMa4dFHHsaj/fujv/J65CF0kIF4AANxupuodQgLDYJGrYbGEICgwAAEBAQiODQCscVqo9ej96EELmPT9HnYnmaBI88vVxHR/7p8qkVVt+8PLgvG4Liq6PXco7gnyIEzi8Zhyo5s2F2+z4nIvzypWP7TJKxa/j3eePkdfD1nB5I9BgQEBcMkA3FeNaS7jUp1u1SrRVBcNEJkunYmJSLV6Ybb9wkRUV4pIJe0tAip2AmtqwVAm3MQy1YdhlUWgkTkf57L27D5mBs662lsXjQJo15+BN36vILpe1Jhc/OyIf2XOHBq3SYcz7bDWKk6ygcaoGdrk4jyWMG5v6wvgoqlI6FT23Hy8HFZybuvzr5CRP6jjmyIoWOnY8m637Hwu1dxf0UNzq77ES89+QGWnMmCnX3K6K4kYLlwADt37cLu3Tuxde1iTP7kaQz5ZBXSYtvhuRd7oWJkIGcJIqI8V4A6e2oRFGSCcvfQarFcN+0UEfmVNhixRUugVNmqaNj5cbz9wyR81L0YbHsn44tf9iMzh33K6G4kYD61FauWLMSvc2dj5tSJ+Hnyr9iSFIjydWqjSokomLTshkVEea8ABeNumM3Z8AgVgkNDobttnz4i8g81dKZQxBSrg96vvYRuxd3Yv34zEm0ODrimu5AaUTU64+FHB2LwE8Mw4tUPMX7yz/jo/sK4sPJrPDv4Lcw/mgYre0wSUR4rOMG4+xQOHsmE02NAheqVYdBqeUWCqCBS6RBcojW6NC0CrSUDWS43g3G6K2kDIxAdG4vYuEKITyiGkpWb4MFXn0KbGAcubZ2Ir2fuR6bF6fs2EVHeKDDBuHXXPCw8mA1XaGN0a1sUJk40TlRwqYNkABOGsCJFEaXXFqRbbER/n0qP4CL1UatMEAwiC8ePnYPTyW5YRJS38q0OvVMXcE/aJnz53k/YlR6E+kOfRbdSwTCwdicquDxJ2H9Yg2YdGiImwMBgnO4ud6qQ7BdwPtkOp8eIYqWKQqfT+T4gIsob+VOHikxkZYtblH82XNr2C94YMASfb3Ch5tDP8Nnj9REfyC4qRAWDCycXjcbID77HquOZcChTGbqTsfWHT7Eyti8ea1EMIWw5010mSxmf5Plj5yqRfQyLPvsQ0/amQVOxDwZ3K4fQQM6nQkR5K48fh+/G2U3zsGrNXHzx2WzsTdeiSJ1GqFk6FmF6AWtmCtJsekQUqYjGHbqiTd0KKBodAC0HbxIVEA7sGNUD/cbsQk5IcVSpmACTyoj4Ou3xQLeWqF4sDIbbPtGLqGBxn9uC39b8jrlffY7ZO5MhYiujVsUSKBQXBpPHgpSLl2SdpEFkxdZ48LE+aF2jCMIMGl4cIqI8lcfBuIAjOwPm7CykpVvg8ABqnR56nRYalYDH7YZHpYUxIBih4WEIYqFHVMDIRnPKUexYvwn7zlthii2FipVKIT4mDrERAdAxEKe7iHBYkGk2IzM9AzkON4RKA61WJ18aqOGBy+mC0OhhCgpDZEQIjHzCLBHlgzwOxono7ueB02aFTQYvKq0BRqMeWgbhRERE/woG40REREREfsKRV0REREREfsJgnIiIiIjITxiMExERERH5CYNxIiIiIiI/YTBOREREROQnDMaJiIiIiPyEwTgRERERkZ8wGCciIiIi8hMG40REREREfsJgnIiIiIjITxiMExERERH5CYNxIiIiIiI/YTBOREREROQnDMaJiIiIiPyEwTgRERERkZ8wGCciIiIi8hMG40REREREfqISku/fecCDxB0LsfpACnKcHt97t6Yr1hg9mpZGgI7tA6KCJQdHVy3AljPZcPwhG6sRUbUd2lWPgZF5l+5CnuzzOLjvCE6dT0aONgyFy9VEzTLRCPCcw5HzEShRNAh6ncr37Ttx4/y2Rdh4OAXmGzKKCmqtDsbAMEQVKoayFcsiIcwIzZ9ZJBH9T8jjYFzAaclA6tlleH/Q6/j1tAn1Hx+BjmUCoffV28KRiVPrpmO6/WH8NrYnCgXpZdFFRAWFSF+MF7s+h5nH0mC7ORhXR6DdxwswqnsJhBmZc+nu4ck4hIU/f4dfVp6CqWxtVC9fFNEmF9LOHcORi04Eu4/jfOmX8fFjNRAbovP96k4EHNkZSDk2GyOHj8LyM0CpVh3QtHIRRBpcyEo8iT1btuBQeiDKNOmOQUP6okmJUBg0vp8T0f+sPA7GcwnHKXzVrR5eXBmMPpOX453mkQjQ+ipujwu2tDX4YEwqnnq3L4oGG9l3hqjAEEiaMwIDZ+nQuEVNlIoKuHpFz31wIl761oNh877DgMpRCGBQQXcJT9LvGP3CG5h0oij6PDMUHWsWQ1SICTq1B06rBRmnVuKLl9/GxmqjMXtkWxSLMPzpi0Qe6x581r0z3v/dhJ4/TMZzTYshQi/gcthguXwYS8e9j88XnIAo1Qmvfz4S3ZW8o/X9mIj+J+VL3KvShyM0UAOVSg19QBBCQkLlKyT3FRaBmBL34uGetRBi1PKqOFFB4knCrtRqeOaNJ/HoA51xX7u2aNtWebVEYVc6DLVboml8AK/u0d3DdQqz3h+J8UtTUKXfUPRsWQvlihVCdEQYwmR9FF2oCErX7oonh7VHIZVT5oE7d7G8mVrWd2FBGqjVOgRGRCEqMhKRkdGIlcstWbkpHnz9M7zYOgpZe6bhvQ9n4ECqBS7fb4nof1M+XYRWyUBc+f+34EnH6dN2lK1RAaFaGbD73iaiAkAdifrduqF+mcKICAqA0WCAQXmpT2Dt+lRUaNYY8YEGMBanu4NAxrqf8e1ve5CY0BZ9WpZDfIgO6psqHpU+FKXa9kObMjKta//qzeM71HdqPUIKVUWPJ/uhfqTAuSUTMH17KrLteX6DmogKML/3CPFkbcacRUfhVOugUUowIipAdAiNVPq1qm8ILlyHVmBVYlk0aRSPQF4Wp7uGGVsWLsahyzkoVLsRyoYH4HZjM9XBVfFQn6aIDjb+yxeJtAipcB9aVg2F0X4Iq9Yehtnq9H1GRP+L8jcYF5nYv+A7fDV2DMaMGYPPP3sPLz7xFmYcSYfdLcBrA0R3AxcOr1yJi2WboFF8ILuo0N3DdRJ79iUhx65CfPESCNTp7hBoGxAeEQKtbIj+6/QJKF8qCkadE6ePnESOw8n6j+h/WD5fGdcjLKEUSpcugzJlyqB0yaKINgg4PSyGiO4ariNYufIiyjZphMLsokJ3E3caUtIccHl0CAwyQn1z/5R8o0NQoFy/XL01xwKX4MUoov9l+RuMq4yIq1gfjZo0RdOmTdH83k549NVBaBlruu2tQiIqWFzHVmHl+TJo0iiBXVTo7qIywWhUyyDYBbvdiXyYTOw23Mi25MAtVx8UEgKd+sZuYET0vyWfr4yroDWYEBgYmPsKCkVUiTZ4oH1ZBOg5eJOo4HPj+KqVOFu6MRolcBYVusvoSqB8qWDotW6cO3kaNqefuoe4z+LIsXTYnXqUqVRe1n98vgbR/7J8DsZvQVsIlSsXgl6Tg+OHTsLqdvs+IKICx30Cq1eeRukmjZAQYGQXFbq7qKLR9L7GKBysw4V1y7EnIweO20bjAhlnTuOy3SmboP8u276FWHYwHdbAeujQqiRCOEk/0f+0fArG73TtQQO9Xgvn4RmYtj4LTg4qJyqw3KfWYOWp0mjcKAEBRgYQdLfRIK7NYAxqURzGs3Mx9qfNOJ/pwK1mErccWYh521LhcYrcitKRjksXU5Hj8vypq+m3+45I344fPpuErZd0qPnoMHStGIkg9tMk+p+WP8G4xwKLVRZgwgGbXfyhn57z0u/4/K3f4CwVB63W/xfriehW3DizegVOlmyMxgmBYCxOdyNNaBX0fuM9DGkSgoMTXsTw177EvK3nYHbmBtkey3nsmD8eXy+1oEytEgg16aByn8XsV/uhR4d26PPeYpzKtN8ygM+VBXO2Ut/5/rzKjqRds/H+k09j1MpMlO33Nt4f3Aylwg0F4BY1EflTHj8O34PEHfOxcPlC/DBmCrYlexBbryPurRwpK3LlSoCA25aBs4d2YZ+zHX5Y8B5aFQrElSflE1EB4j6FH/p0x6IG3+ObAdUQE8honO5SbitSzu7F73OmYe6avTiVZIbLEILIqAhExhRDpYZt0K5JdZRJiIBJq5bB+An8/FgPvLkqBe6gtvj4tw/RpUQkTDfUVW5c2L4Yv6+dhy9HzcCORIH4Wo1Qq1w8IgyAzZyG9BwVgmLLoF6bDmhdvypKx4VA760Lieh/WR4H4wKO7HSkZ2QgLc0Mh0euUG9CgOHaYE3hccFhs8Gpj0HpUrEIUAo+32dEVIC4zmD1lPVA405oUCyYgzfpLueCNSMVqWmZMOfY4RRqaHVa6HRGBIVHIyrMBN3VqQ8dSD97Cpcy9uC71zejyZhX0LZY1E3BeG59l5mVgZTUbDjcAmqdHnq98kA7+anbBbdKC2NgCMIjIhBs1P7hyZ9E9L8pj4NxIvrPEE7kmO1QByoP+lGx0Uz/YwTS1n6CkWsqYvjQligVaWL3EiL6VzAYJyIiuhNPCnYvWojNFwNQuWUL1C4e4etqSUT0zzEYJyIiuhNhRcblLNhUJoRHBEGvYXdKIvr3MBgnIiK6I2UWMBVUjMCJKA+wyxsREdEdMRAnorzDYJyIiIiIyE8YjBMRERER+QmDcSIiIiIiP2EwTkRERETkJwzGiYiIiIj8hME4EREREZGfMBgnIiIiIvITBuNERERERH7CYJyIiIiIyE8YjBMRERER+QmDcSIiIiIiP2EwTkRERETkJwzGiYiIiIj8hME4EREREZGfMBgnIiIiIvITlZB8/84DbpzdNA/rj5lhd99hNepglG/RAXUKG6Fl84CoYBNmnNy4HCu3HIfZEI0qre5Hk9JBMGh8nxMVUO4L27Fk0xGkZDvguVIlqVTyfxrojYEIjSyEomUroGzhUJmeVb4vEBHlrTwOxgXsWZdwetdMvPvsl1iXEovWTw9Es0ImaGU5J9xWpB1fjzmzDqL6R/PwVqtoBGh9PyWiAsd+diXGfzQe61EL3Xq1R90SkQiPjEGoSQM1Yxcq4ITdjLTLRzH3nafx+YqzQKmWaN+kEhLCDXCZk3Bq31ZsO5KFoDKN0G3AYDzYqDhC2MokojyWx8G4QshCbiveadcen+wogaeXzMSTVcJg9F4B98BpTce+H17Dgkpj8W77SATqWaMTFTwC2Qd+wZsvfYU9hXrj+aGdUbdsPMKMWuXCItHdw2PF7k+7ofP7axHQ8ztMeq4piobrIFwOWM3JOLR0PD4auxintWXR+bVReKNrJUTKxiYRUV7Jh04hKmgDwhBiyr0VaAgKRWhoGMLClFcEoguVRKO+T6BbuUDoeVuQqEDyXFyKj1/6EAuyG+Dxod3RqFIRhJsYiNNdSK1HRFgQNBo1dEFRiImJRnR0DGILJaB42epo2e91fPxcC4Sl7sQv736EmQdTYXH5fktElAfyqYe2EojfotYWZpw+lQxVfG3UKW2ElhcfiAoecRkrvvoUU7YINBrwCJqWi0WA0s+M6C6lUt+u6lNDH5qAmj2fRL97wuE+sxgTZuxAWrYDeXwLmYj+h/l3uKR5C6bP2QuLSweDXgbsvreJqOBwH5uHH+bsRmqxtri/kgsnNi7C7FkLsO5ICmwuhij036MNq4T2Lasg1GDFwZW/43C2FU7fZ0RE/7b8DcY9ydg28zuM++pLfPnFZ3hzxDv45UDKnWdaISI/cuH48t+w7ZIFGs85LJ/1G9Zu2YhF376FIb374NmJO3DZ6uJVQ/qPMaBIhVKINGrhOHkEJ3McYLuTiPJK/gbjKi0CQ670Fw+BSeOGy60MDSOiAkmYsW/nYWS6wlD/gUF4pF8/PNRvCF554xFUsu3BrA/ew+R9GZDxONF/ii44CCalO4vVAovLc20qRCKif1k+B+OhKNmgNdq2b48OHbvj0ZeeQdcygdD7t7MMEd2OJw2JyTlwiViUr1kBJUoUQeHCRVC6Xh8M6FgKqqS1+HXlCVjtjMbpv8WdbUGOxwMEhSBYp+bUnUSUZ/I5DNbAGByKsLBwhIVHIKZEE/S4rxIC9Br2FycqkJTB10L+JwAhoVqorkQkunDUaVANUXoHLpy6BJdLBi1E/xlunD1yHBk2F/RlKqF8gAGcdZeI8op/r0mrIlChUlEYNJxGhahAUkehaEIYdBoLMjPcUC4U5lLBFBeLUJ0WAQEBt54tiehuZduPRcsPIt0WiLrtW6FksAmspYgor+RTMC6Q+2wh5b+57+RSw2DQca5iooJKFYTazesjTp+EA3uS4HC6fR/I3Gy1wY5CqFm3JPQGPjqX7iJ3etadSMeOH0dh0tZL0NV4BEO7VkRkoJZ3b4koz+RPMO7JRrZFCcStyLF47lgOElFBokZMq4F4pGEIDi+aj33pVji9+deCPRt2wl33ITzUMJZPzqW7Sla2BZ5rt3musifvxtyPRmDEqBXIKP0Q3nz3CbQoFQYDH0hHRHkojx+H78a5zQuwZt1cfP7RdOxJ16Jsp6EY2Kk12vdsgtKBOj/3kyGi/5dwIGXvLHz8xngcTOiMh9pXgPb4Kvy2S49mgx5Ht9oJ3gFuDFeooHNf2IGl69Zh3pefYtq2RCChHprWKYf4cIOMxM1ITbMApkiUqN0K7Vs3QPWyhRFq4JgmIspbeRyMC9gyU5CRmYbky2Y4PIA2MByR4RGIjAmDScMH/RDdFVzZSDxzBqmeEERFBECVk44MZxDiEmIQrGcgTncHIQPutIwMpCanwGx3Qah1MBgM0GnVgMcFl1sFnSkIoRFRiAw1QccpVIgoH+RxME5ERERERLfDXiJERERERH7CYJyIiIiIyE8YjBMRERER+QmDcSIiIiIiP2EwTkRERETkJwzGiYiIiIj8hME4EREREZGfMBgnIiIiIvITBuNERERERH7CYJyIiIiIyE8YjBMRERER+QmDcSIiIiIiP2EwTkRERETkJwzGiYiIiIj8hME4EREREZGfMBgnIiIiIvITBuNERERERH7CYJyIiIiIyE9UQvL9O594YLl0GHv3H8P5FAvchnAUqVATNcrGwGg9ieMZRVAqXg8NmwlEBZQHiSu/whcbItFzeFdUDjdB6/uE6G7jyb6AwweP4fSFFFi1IYgvUx3VSkchwH0exy6Go3hCEHQ6le/bRET/vnwNxm1nf8ekb77D/EMalKlVHeWLRCNIY0fa+eM4fN6JCOMlZNf6BO/0KIRAPQs/ooLIfW4+Xur/PKamtME3C99Fm/gQMLvS3caTeQRLp/yEGWtOQV+yGiqXLoxIkxuZF0/jZLIbQe7jOFf8Obz3SHXEhrC5SUR5J5+uPwtk75uElx4fgXH749F9+AgMfvgBdOnQDm3bdUS3Po9hULeSuLh+LXadTITT7fH9jogKFNcZ/PrlJKw/eR7/x959wLdR3n8c/0iytbz33k6cvXecvfcmbGihUEoLZbT/sqEtu0CBsDcZEBJIIHvvvfdOHM8M721r3P9kK5OE0hJHlvm9X1VxpLOs3z03vs/dc6e80gqs1/vEmhDXgP3MGiY9+keenp5Jo3H3cd9dtzJ+5FAGDRrG6Il3cOfwBM5u28LOo9lUWG3qHkwIIerOdQnjSt5K3njiJaYfjubGR+5lZGorGsVGEBocRGBwKJFxybRMnciD9/bDp7wIm+zghaiHqjn+3TvM90ilc7QZo04Ohws3pHYoZ7/yD96bm0WjG+5h4sCutEqOISI0mCB1fxQRm0izLmP4w70DCdVUo9jl4JAQom5dhzBewbbP/sUXa04SNvReJrSLJcCg5fLduMYQRLMx9zCutQ8GnfNJIUS9UXV4Bu8sMTN4QiqJgUa0ksWF21EoWj+ZD7/fRlbEQG4a2JxoP/2PlmWNIZCUYbczMEmP0UMODgkh6lbdh/HS9cyYvoXsimi6D2lLiNnjR0H8HJ1/O0YNaopZL2lciHql8gDT31tN4LAJ9GwcVHNUXLK4cD+lbJ43n72nywjv0IOmQV7or7IX1Pm25ZYbexDsY5RlXQhRp+o8jFsOb2TDyVIs2lhSUrzxuPzUtlJKzuED7N+3j737jpKZeYL9+4+RU2bDLgckhKgHytkz9X02RIxgbGoSQQadhBPhnqwn2Lkrm7IqDZEJiXh7Xv3gEBojIaEBeMqtvYQQdazOtzL2Mzmcrraj6EyYjVfY7CkWSvPTWPvx/3HX7bdwy++eZ9aeLIqrJYkLUR+U7vySj3bEM3p0VxIDDchQceG2bLnk5ldjs3vi7W1Cq5WgLYRwvbrfEpmMGDUaNXMXkleohvLLM7bWh5jmnRnUPpi8owc5aIkltVMzon10qL8mhHAhpWQrn39ygEZjRtApPgC9DBQX7kxjxKDXqvsWK9XVVnV/JAd9hBCuV+dhXN+4Fc38PPGwHWbHjiKs1ss3fh4YfQIJr7nnuBadfwSxwT6YPWRMqhCuVr5+Ol/Mnc3bj9zMkF6pdO/WjW7dR/PSytMUpX/PY6MGMujRb8ktrnL+hhD1mGcCjRN90HvYyDyRRqVFDeTOl4QQwlXqPIxrQvszYVC8Gq7zWfPdItIrqrnSjaI0WjV8O9K3+l+tHBIXol7QhbZhxI0TGNqrK507daRjR/XRqR1JQQY8TOGktG1Pu8ZhariR0/3CDWhC6DmkG5E+nmSuXcaewnKuPiJSUTucJ8mttmBzPiOEEHVB96zK+XPd0HoRmehFxuqVbN1zhKpG/eiVEojhsoGntvQlfPz1ZvIi+3P/xA74G37iwhohxHWh84+lWZuOdO3endTU1NpH9yaUr/+OjWWdeeDlv3JztxSCfAzSiRZuQIt3VATWvStZu303WV7t6NEmBj/jjy9KLj+yiNk7NSTEh+Kjl4uWhRB15zocztLilzKGJ/71DDc2ymfO84/w7JerOV5kvehuKVWcPZVPpU1Bo5ONnhD1hcbkT2h4BJGRkRceEaE14UXrYSYgLJzwQC90MpZcuAldQGtufvJZ7ulqZs+nj/PI3z9gzrZMSiz2miEr9rIsdsz/lA8XFxLXKg5/k6fsk4QQdUqjXKcrWJSqAjKO7GDV3Hms3p9FieJDSGgQvno7FSX55BeUQ3BL+t5wC+M7R2OW095C1E/2DD6a0J3H9g3mo6WvMizKD72kFeFObGWcOrqNZd/OYN6Gg2QXVoHJj6CgAAJDomncoRd9urWhSXwIXuq+SBZvIURdum5hvIZioSz/DKdzCyitUtB5euKhbuVsNgs2jQFv/yBCQwIwe8rGT4j6q5rTh/Zwstyf5ObxBMgpfOGOzu2PzuRRWFqBRdHhoe6T9AYzfiERhNd8IZAs2UKIund9w7gQQgghhBDiPBkLIoQQQgghhItIGBdCCCGEEMJFJIwLIYQQQgjhIhLGhRBCCCGEcBEJ40IIIYQQQriIhHEhhBBCCCFcRMK4EEIIIYQQLiJhXAghhBBCCBeRMC6EEEIIIYSLSBgXQgghhBDCRSSMCyGEEEII4SISxoUQQgghhHARCeNCCCGEEEK4iIRxIYQQQgghXETCuBBCCCGEEC4iYVwIIYQQQggXkTAuhBBCCCGEi0gYF0IIIYQQwkUkjAshhBBCCOEiGkXl/LkO2MjcMp8NR4upsp37Mxq0hhg6De1GopeW09sWsO5wIZWXvB5Fh8HdSfL2RKdxPi2EcJEKjq1ZyLaMMqrtzqfO0xLQvD/9WgRj9JS+vajf7Gf3smL9AU6XVmH/qT2fR5S6j+pKoq8RD+dTP8mWzbZFGzlaUI7lJ95X453EqIHt8DYbnM/8l+zlnD66j/1HM8ktseDpF0mjVq1pHOZFdUYaheExhBk9f95nFkLUG3UcxhUqCrJI2zWLVx9/jzWndbT8zfM8NrELTRNC8FK3GFWFOZzcO4fXH3+L5VkKTW78O0/c3oPmiaF4e2rUaC6EcCWlcClP3/h/zDyST+XlYVwTwIB/zuTVsQn4GWVtFfWbUlVM7pl0Vkz6P16ecwRNq5u4e1Bj/M0etfsaezXFGZuZO6easZ8/z4TEYMw/Z7FWKinMSmP396/zzEeryfLtzl239iRGDfM6jYKtsoC0zfOZc6AJM6Y8TnRkgPMXf64qsjZ8w6efzWGPJYpmLRoTG+qLp6WInBNHybb4os8pp9XT/8fohCC8pV8shFup41VWgykgiuR2nYnTniEry0pkuzY0jgvB28MRtDUY/SNIatONZMMZsrMqCGnTjibxofhIEBeiHlA4u3ohu/1SuemBJ3juH//kn88/z/Pq47nbWqKzRdEkxQdPdX0Vor7TGHwJiW5EhwQT+aeyydMn0rlnXwYMGFD7GDiEkTffxy2dvKm2qiH6R2eCrkJjxD8qiTYd4/DMP0VWiS/Nuvakn/N9Bw0dw21/eoDhMWDW2py/9DMpZRyY8Q8e+su7bDb34tZ7fsttN4xm+OBBDB46igm33c7whLNsXr+NI+o+1Ppfvr0QwvWuQ/9Zg6dXMP5qV12jNeMf6I3+krEnGjzMIQR469TXTerrag9fxqYIUT/Yz7DrdAr3PfYA99xxI+PHjmXsmDGMGTOcFEMFpvb96R1jxqBzTi9EfacxEOjvg4dOi1bvhX9AAIGBgbWPoGDCopsy6JbRtHXsq/6bXZHGE69Af7w81H2dhxEff/V9gxzvG0RQSDgxKT255a6R+Ph5OX/h51DIX/c+/3x1Kjt8B3PPb8fSv1NzkmIiCA0JJiQ8ioTGrekx/j5+2y8IW7kd2/khn0IId3GdTmadO8p9taPd6vOOF9T/k+PhQtQjGn/aDh9DrxYJhPl7YzabMJnUh0c669efpXGvHkR7GZEsLtyJVnu1PY1CUWYm1kataRpgRP8/7SF//N5KaSbpZzWEt2uPp9HofPZnqNjF1+9MZvlhH3rfNpZOjUIxqZ2IS2kwBDVlxJ2jaRP0X3YghBD1wnUK40IIt6QxEBwRrIZv7SUBw3p4GcuzEunRIxovo0Rx0UAoJWyfv5TDVeChu3aHhkq3z2be7kIqdaaag04/V9nW75m5MY2ikA70bxeBn0F3lc+kw7/NUPo188MsQ8aEcDvXN4wr5eTs38LGDetZv/6ix4ZtpBVafvrqdiFEPWHlyPJlZCT2IDXaC8niwj0plKidyq8+/4QPP/iAD95/l9f//igvfLWTnFKr+ur/zp67i3lTP+cj9X3ff/tFHn9xCluzSrD83DHoNSwc27yJtKJKlOhGNPLRc/kNi5Sy0xw/fJD9+/dz4Hg2OScPceh4DtUWGTguhDu5/mH84A62b93K1osf23apYdwqYVwId2A9yvJlGST26EGsDFERbszDK5DQsHDCIyKICA8h0GilvNyxL/plOyONVo/BZKwZ0mXUa7BUVmL9r3dwds6ePkul1YbOZFY7vdof7bAVSxn5Jzfy5bP3c9ftt3HPP6az9USeGvplZyqEO7m+YVzjR6PUYYwc7bgA7KLHqMG0DtPLPcWFcAPWYytYdjKBHj1iZYiKcGMajKFN6Ny9B7179aJXnwGMuP0R7uwTha/hl+0aNb7xdOozkCFDhzJ8zO08/MdRNAkw/5f7OPXzGfRo1d+xFhVQpIbyy493a70jSGnfmzaBBZw4uI/SkLa0TonF6CnrpRDu5DqHcU98QqOIjokh5pJHJAEm3X8zlE4I4RI2TqxcxomEVHrEyhAV4d40nia8fX3x9fPDz8+foIgUBo8fSGN/Ex6/ZH/kYcI3IJCg4GCCQyNp1GsMg1s4xnM7X/9ZPElqloK/UY/9+B72FlZRdfkwF/Xv+ARGEhPqg6dOh394LKH+XugcCV4I4TaubxgXQrg3Wxorlx0nPlWGqIiGyIOIFi2IMhqoSjvKyXIL1msw4kMT0JRmsSYM/1XC1xDSazR9E/wwFm5kzrI0isutztcupdXU7so1Wsd/JYgL4W6uUxi3n78Y5srbNYXaIXrqf2v+LYSoj2zpq1h2LI5UGaIi3NhP7Wc8jEY8bceZO3s9eeWV6t4LLIWnOFVQ8TPHfTv2Z5dNpzNg0GsvOfv7c95TF96Le/84hpZBZWz87EMWHs7nKnlcCOHGrk8Yt5dQWqYGcns55WU2Z/C+iFJMseN1WyXllVd4XQhRD9jIWLmUIzGp9Iz1li/6EW5KodwRshU7lurqH984wHqGTZ/8i7n5QfhpPdFmzeEfv7+dieN/x+tLT1L8o7EiF9hLSymzqWG8soJy9Y2vti+zZc7ln/fd8Z/fU+tHyohH+efjN9GsbBlvPPk8Xyw/RF6Vup90TkJVPmcL1VCvaGqGp8hwTyHcj+5ZlfPnOmAja+sC5s+ayuTZ28goK6GwVP2jFi1BydH46+H09oXMmzWZL7/dzMniUopKFXQ2DQEJMQTodTUXrwgh6gFbBt+/9h7ZXf7Ard1i8P3fvhFFCJexn93Dkjkz+HLyTNYdyaM49zSnTu5h3cplLFmymEUL5jDzi4/45NvjJNz8O4a2CMFUsIkv353BtoyTHFFaMKFHEr6mywZ/27LZvnghs6dO4fvNaRQWFlCqaKnWBZAY6Y/hsvv0K2c31L5n+k+8p5PW6E9kcis6t0/CXHyCXWuXsHj5GtatX8/qZQv5YfY8thUE0nbE77h7QncahxnxkB2nEG5Fo/zofNq1pFBRcJrcvDNknyqiyq7g4R1MWHAIYVHBeOnUTn2h4/WzZOcUUmlzvh4STGhkMN6XbcCEEC5kPcmSz5Zg6zWB3kl+cvGmcDtKVRFnzuRy9tRpCiss2LUGvLxNeJ4Lr46j5ZXllFcbiGzRgjh/A7qq0xzel0be3i94fkc/PnpyKJHBptrpz1EqKDyTR96ZbE4VVmJTPPAKCiU4JIzIIG88L7uNilKpvud+9T33/MR7XqbmNoanT3Emr4gKuw5PTw+02LFarGgMPvgHhxIW5IP+Gn5ZkRDi+qjjMC6EaDCUKkoKKtD5+GLylI6y+BVRClj/7+dYHP97HhjUiEDzNeiJ1sV7CiHckoRxIYQQ4irseXtYsngzGZoEuvftSqNgEx6/cISWPW8vS5ZsIoNr955CCPclYVwIIYS4CqU8j+y8UvAKJcz/2ozHrov3FEK4LwnjQgghxNUodhTNNR6WVRfvKYRwWxLGhRBCCCGEcBEZpSaEEEIIIYSLSBgXQgghhBDCRSSMCyGEEEII4SISxoUQQgghhHARCeNCCCGEEEK4iIRxIYQQQgghXETCuBBCCCGEEC4iYVwIIYQQQggXkTAuhBBCCCGEi0gYF0IIIYQQwkUkjAshhBBCCOEiEsaFEEIIIYRwEY2icv58zYwZM4bi4mLnv4QQQggh3MMXX3xBdHS0819C1L06CeNr1qzBYrE4/yWEEEII4R66dOmC2Wx2/kuIulcnYVwIIYQQQgjxn8mYcSGEEEIIIVxEwrgQQgghhBAuImFcCCGEEEIIF5EwLoQQQgghhItIGBdCCCGEEMJFJIwLIYQQQgjhIhLGhRBCCCGEcBEJ40IIIYQQQriIhHEhhBBCCCFcRMK4EEIIIYQQLiJhXAghhBBCCBeRMC6EEEIIIYSLSBgXQgghhBDCRSSMCyGEEEII4SISxoUQQgghhHARCeNCCCGEEEK4iIRxIYQQQgghXETCuBBCCCGEEC4iYVwIIYQQQggXkTAuhBBCCCGEi0gYF0IIIYQQwkUkjAshhBBCCOEiEsaFEEIIIYRwEQnjQgghhBBCuIiEcSGEEEIIIVxEwrgQQgghhBAuImFcCCGEEEIIF5EwLoQQQgghhItIGBdCCCGEEMJFJIwLIYQQQgjhIhLGhRBCCCGEcBEJ40IIIYQQQriIRlE5f75mJkyYQElJifNfQgghhBDi1+ajjz4iJibG+S9xNXUSxlesWEF1dbXzX0IIIYQQ4tcmNTUVLy8v57/E1dRJGBdCCCGEEEL8ZzJmXAghhBBCCBeRMC6EEEIIIYSLSBgXQgghhBDCRRp0GLdZrdidP//3bFit//tvC3HOL1sOhRBC/GJ2C9UWBblKTtRHrruAs+wY+7JDaJzog6dO43zy2inb8j6PvLISvwnP8eToRvjo/5t+Rxlb3n+EV1b6MeG5JxndyIf/6tfFNWQjZ+cythwrouKizpFGo0Gj88Rg9iUwLJrERomEe3uivfaL0i9SvvVD/vLqCrzGPMUTo1PwM+qcr4j6yJ67j1WbDpNbVo39J7aMGo9I2g/qRLy3gfMtai8je/9O9p3IpVznQ0RSc5onBVB8Ih19XBwBenX5dE5aX9hz97NarfdsWdV/rLedWm+CKZ/dy7ZwvLAC609N75XIsH6t8TLpnc/UDzX1blbbt7QKm/PzazQ6PMNa0KtzMgFGD662CbGXZXNg1z5OnK1A6xNGYrPmJAWWcDJDT0xsAAbPeriTsOeyf80WDp8toepCweg8w2jeqzPJAUY8Ly7YnsPOZVs5XlCOmluvSuOVwNC+rfE2G5zPXEfqZ9ylfsZjP+cz9mmN0ZLJlhWLWbhoLdW9n+HREckEeckOXdQvumdVzp+vIzunF7zIw18V06FnEwIMuqtuAP9XtoyVTJmxFU2b4QxsEYzB47/5CzYyVk5hxlYNbYYPpEWwgf/q18U15NhxmDBU7mDKy28xZf4mMhVvzOoexFaeT/bhrSyd8QWfT1/I5rRKAhOTiahHodyasZqpM7egtBxK/5YhmDxkJ1CvaT0xmuD4D//m9c++Z3NRGCkxfugdBwwUBcVWTXHGJr6buge/QT1o7GeqCTP2/O1Me+mffLA8nUqNncozR9g4dwpfzpjN7FV5JPdoR5SXGtzr23ZE61FT74k5b/LGZ7PZVBBKSrRar2ODd1G9s6btwXdAKo39vfHygKId0/n3u1OZt9dCfKMIvPVql0SxY60oIG3jbKbOz2XE0M74eBudf6iecLSv0crhWW/y5uezWXwAWvTuQ+emsYSqbelxxQ2HnfwdX/HKPz9gWVq5WmcluUc3M3fqZGbOns3KvERS20ThrXa061vzOk5+exqMWI/M4q23vmD24n0ozXvTu3NT4kL9arZHl35mtWOitm/xzhm89d5U5u6uIjZJbV/HPvpc+276gWkLzjJU7Zz5+aoLz3Xn/Iy7aj/jvB99xkL1M35f8xmHDGpP9dmj7Fz4Oe9+vZzC5BsY2TECX6Nsh0X94pol0nqMOVO+Z9W3n/P9wVKqbc7n/1eVe5m3YD/lF72RodlEnn373zwyKK4muP13DDSb+Cxv//sRBsWZLzlyULl3Hgv2l/3yzyx+Jg3moCgSW6thRsni5IliwnqMZNToUYwcNYbxN/+G+/54J73801j08fM89OeXmX+shGoXjAup3LeAhftLqbQ6n1AZmo3n6Tff4NHBCf/l2RnhChpjABFxTekQq+NUehqntPF07tGb/v360c/xGDCQYRN+y7gWHur2xl57NNmey4p3/8m7GzzpNmYc48aMYtTYG7j1tzeTak5n1/4citUNxk8cxHOZmnrjm9I+1qO2Xl08nXr0uUK9nlRYHPWaCYpNoV27SJRTJ0krMNO0Sw/61EzfnwGDRzLxd3fTN6Qao6b+bSQ1Rn+1fZvTKV7Pmcw08ryb0LFFCslRARh0V14/7bkref+F91iv66y26zjGjBrFmAm3ctfNqXhn7uFAVtGFo871jcaIf0QczTsmoD+Tyck8b5p0aEFKUlTNQbAfVaxR2zdGbd/2UXA6o6Z9m3ROpe9F7Xvj7+6ib6gVk6va99xnbBeF5kwGJ9TPmNLp4s84Qv2Md9Mv1KZ+RgW/mBZ0axGJp7ovqdOBAFUHWLJ0P4Wl1fVyXRf1m0vSQfn275i1u4jKs5uZ/u02Cqutv2DhtZA+70M+W5tBmbqzOPc+Wt8YWnZoR0q4+SpHO36KFt+YlnRol0K42ePCUVZLOvM/+py1GeVYfuqcrrjmdKYwQvzUnYfWSGBMPHGxscTExpOU0pKOvcdw79P/4N52dg4t+5h/vv4Dx0qqru84bXXZWPCxumycLL1k2dD6xNCivbocRnj9D8uhcAmtgZBAP7W9tGiNvgQFhxASGkpozSOcqIRWDL9tFK381G2LY/rSrcydtYm88C706diSlIQ44hJTaNVlILc8eBf94nww1Od+mBrYQgJ98VTDqNbgS+AV6h1260ha+XtRc2BC64lPSCDeOh0aDzN+QcHOaUMJi4gmqdUAbv/tcHx8zLXvX99oTYSF+OOh88AcHEGQt/4nz6SVbpvP7E25hHTqRYdWTUiMiyNR3e50HnALD/y2Hwn+Rhcd1fq5tJjCQvD31KEzBxMR7KV2PH6iYLV9vYMD8PZQl4ea9r2wPDjaN7Flf277zXB8/Vz4RS41n1FdBj3UfYKHqWYZvPQz9lM/4zD81M9o9A0mLDwIs2N5df76tWclc8mXTFl9jIJKOVIn/nvXfxui5LH6mxX4j7+FLkE2Ds/6htWnK39y/GENxUJlpeWycY0WctZ+wHOvfs+enAKKikooKVd7peemsVuocgZ0e1UZJcVF6jS1j+LzY0IVLOUlFDueLy6l0qacD/R2S9WFYGXJYd2Hf+fV2bvJKXBMW0J5ZSWlJRe9Z4ljDNu56Sucf6+Y0kq1s3HuTcX/SN0xXG1p1ZkIbdyLO/58M+3Nxez97iNm7iqmsqLifPsUl1Ziq2kEG5VlV25vB1t19fnpfnQBr62ayvIqdVm9rDHVZWP9x//kX7N3kZVfSKFj2ai+6H1rLhy60FG8hE19Tf07V3zNQf2b1ec/ow2L432uOrG4NjTqsqYubFfccysUZ2WjNGtPs0Bj7bUktiK1zavI272KdccLqTq/MdMT2GQIg7tE4F3PT4vX1HtFjnpzausNMFy4dsZxzYbzx4spZVlk5mmJ6tQJD5MLxhP/TFo1fTs+v6Pu/xTQ7MWFFFflsWf1Bo4XXLSv0geQMngwnSN8MNXv5nUUWtPh0Dj++x8rVtW074+nO9++HTviaXLxEKSrLoPZNZ8xsuYzOofRONr5J8u2Y6m2qpngpzeu9upKyqsc0zmfqGHh9KbPefn179iadoaCwmKK1Rzyn95LiItd902ILX0BX+9JZMQtd3F7/yg0WQv5elEaFVcZV2A7u4Nv33mVV19/i38//xC/vftR3ph7gEKLlZID6nt9N481+06Tu/sHPpj0byZ9v4fczF0s++oN/va7W3l6dgZl1TbKTqxj2vP3c/MN45jw+5eZufkk5TbH36wie/ccXn/gbv46aQH7covJ2buMr974G7+79WlmZziGpJRyYOF0vp27mn2nc9n9/Qe8/ebbzN6wlR/+/Sh3TBzPuBsf4q0fdpCl9ood72rL3ccP//oTt9//AtO35ajvcV2P0/76aPSEdBjDgGbe6Aq3s3DlEUpOHWTDvHf5yx03MvGBT9lRqO5I7UWc2DSPd/56BzdOfIjP9xRSaSkhY9s8PntJXb7u+Tcr9i1m0l9+w4QJd/Pasmw1jGzmq5cf57F//Is3Xvkb995xL098vJqMckfnsJSDi77hO3XZ2HvqLLvnfMQ7jmVjtxr2s/ex/Ot/89g9t/HUd2kUV55bBmxqcJvDB6+8yMtv/JuXn7ife//0LB8tO+YczmCnNGMr8z99kYd++3veWp3OvoUf8sTvJjJm9Hju+se37CusUt9FXHdKCTvmL+OIRVdzdLFm/+7Vhh6dwuDkXF5+9FFemLya40WOTp36mi6UvjePopnjKPrPyED1jqPeBUs5Uq3F8KPxxT9WtuN75qnLfrWnWQ0/9T2h/jzm1ql0VJs3Y/6r/PUvz/PFyqMUVtUOO9KF9uGmUc0J8HYMgmj4ynbOYcHuAio91Pa9agfOtcp21X7Gip/xGe35e5n/yeu8/MrrvPHyk/zp9w/yzPuLOJh/8QXKVs5un8nrTz/B3199nVce/wO//f1jvK9ur4sqrZQdXsZ3s+excncWp/fM57MP3mbSd9vIleEq4r9wndemKvbO+pbcdqPpFtuIobcOJkmfz9ppP7BPXXAvDxdK7jreeeI1Nuhb07PvAIaOGkDoie949+lnmLyzBE1oGwaN7EKMwROvmI4MHjGS4V2iqcjLU8OOGvJnLWDziTI1gGkwRrSg18Am2PdvZO3+MkKiA/CsOTfpSXCUJ6dP+dCuRytizCXkns1j98KvmbVgMyfKrOrnMhDRZiAju8Ri8PQiptMgRowcQZemjek6KJXQ09tYv/Ekmrgo/Dxrd1ha/0gMZw9TldCd9vEBeNS7K7caHo0xkRaNA9HrKji87yhV5giad2yOV9YW1m85Qp4j6Gq8iGzWkabGTLas38rRgmosJbmczs1g4w8z+WHxIqZ/s16dtoiTe7azP+uo2ql6hteWV9Kyd3+GjBpPT+99zPj3K0zdUUiF1UB464GMUJcNk15dNjoMZLhj2YjXU5p7Vl0OF/HN7AVsOl6CpSaLKxTv+JxnnptBTkwXevdXl6VxY2hvW8cHT/2FVxccp6SylNwz+ZzcMJuZPyxiwdcf8fXWUkKbtyNZOcCCT17hw2U5lFXJpr5uKZQeWck3U7/gs08/5dNPP2LSS0/w0tc7OaVuF87Pfc8ERjzyGHelBpK7bS4f/vPP3P37x5n0/Q5yyu0ExESr2wWP63/k47+m1nt0JTMuq/flr9U61HqvdDhBydvDwulT+Fyd/pMPXuOZV6ayNavUJdds1BV9/DAe/tvd9AjOZ8e8j3nhod/x+8fUDve2LMps/kRH+eHZQC/MVtSwuuibC+377CtT2JzhmmtyrqbmM86YetlnLP6P13UpJbuY8vzzzEgPoW1qPzU/jGV0Bw1bv/gHj70yh4N55TWZxJ6zhHeef50lRcl07T2YUeN64n90Lu+9PpUtZ0ohrCV9h3UmwceEd1Q7+g8ZzvBuyfgafx0dNHFtXNctiFK0nm8WetBrVBtCTHpCut7IyJbelO2ewczN+Red3nWoZOe01/l4fwA9+nSibetWtGrfn4nqihDnpfZV1bXEwz+WJk3UAKxuCPWB8TRv2ZqWCSGEJLama4twtDWn92tP8Xv6RZLS4zbu6K8G6jN72Jenwa7UxGYsR/ZS3fUmhrRNJMQriPhWXWkRrq0druB4aDzxj2lCk2hfNVTrCYxvTqvWLUkMDyWh/Sjuu10N5Jo0dh8qV/+mOrn6rhrbcfbmpDBqfDdSwr3R/fQ5MnEtaPT4+5lrTseWFRdjM/gREZdEpP9Fd1fRGPALjyM5yl/tjNV2nDSmUJLbdqOxvw17VQXeLYYw4f5/8t7n7/JQLwNZe/aR69uEDo5lsG1XhnWPx5K9k53HyrHYPNRlI0VdNtQdsrpsBKjLRkvHshFsJDi+JV1aRKCzXzRkxXqU2ZPeZ1FxIn1TO9Befc82Hftwwz2jSMhdz+TXP2d9rg3/xLZ0VTsWNsWGNqw9g0eNY+Ktd/Pn3w8mpuII6zafoLz6oitFRZ3QGb3x8/PH3199+PlgtBdTUHxuKJOT46xMq5H88aVJvP7oaFJIY+Ocz3ntiT9w7yOv8cOeXCr/4zi8+kFnuKxexVGvBdul5+XPc9wW0HEEvOZWo/YqioscF+Q3oCTuoA+h5Yg/8MLbr/GXMU3QpG9m3hev88Qff88jr81m15mfvs2jW3O0rWNoy2XtW5/K1aCr+XznPmPJz1oGrRyf8wEfLsgjqnsXOnRoTas2negz4W5GJRez7Zu3+WJtNkWVCvb8o+zal4s5qQ2tWrWhbdchdEuEs3t3c6y0EnyjaNQ4mgCDB3r/GJq0UPcTiSEY6+OtLkW9dR2XFjvZS75mc/gQhqb41Z7i9W3NhHGdCVQDyg9frySnwnLh6IvlMMvmbOJsSAtah5rU4KQ+pzHTfMITvPbmM4xvdrV7f2sx+QYRGhaA+dxpZCeNPpr+twylsXUv387cQkGVBcWew/L5p2k5pBXBjnvMak34BoUSFmD+eQFa56d+pt8wOLaYdZNnsNMxFELdUeetmcWOyEH0jfNWa3VOK+qYnfLyypr+k9n7XAdIXQau0IyO8HCepxf+wREE+6obdWM4TdukkJjcks6p3WgR05QJ//iUT58YRkjFUVZO/4jPVhyntKpM/Vs/NX5bi/H8cnjh9L716FJmrTyOEt2MOF997a3u1M5eQIsRDGplomj3XJbsq0TnHURUqJ/a+TMQlNSa5o1iCQ8OJbZVYyL0UJJfiPXikC/qgAZjWDO6pPaid58+9OkzgBG3PchtPcPxvnzj4+FLdItejLvvKd78aBLP3NYJ37O7WfbV2zz5yAvMOlhIxX84Uud6GgxhTdV6e16o99Y/q/U6bht3lV2Fbzyd+g5g8NChDB11Cw/+fhiN/E0X7r3eQHj4RNOi5zjufepNPpr0DLd38SN/z3K+nvQUj774Hfvza4+iNjQan3g69u7vbN9beUBt3xR131hz4XJ9oS6DHXsPYNC5z3iv4zN6/fSwMOtxVsxZzTFLGI1j/c4HZw//pgzp3xqf8v0sXLaX0rIqdLEjePy9D3hyTAz29DV8+8nnLDuUT3lpORXqNriBdT2Fi1xlC1sHLIeY8/U2SgrX8+nLz/HUE0/wxJPP8/kuC156CxmLpzH/uOMuJc7pbdmcSC+j2uIYWuB8zrFzDG1E63bNifG96C4nV+Dozf/4ZR1BnW9mXHs9x+d+zYrsSiqOLGSZpQv9G6kdhPNrr+MCrp9aky+mQR/ZhzvHt4H9M5i8LIuKqgyWzj5Go6HdiDTXvy/6aLBsmRw+Vki1TU9y8xRMHlf/Ao8fqw3tGp0JL6PjSJ/zaa0vCc1iqN70Kf/6aCmZ5hS6tozGS914Xz2IX1B7VMn5D5U17QBHiqqx6zzUpfGiFzzUnUJyMHprDhnZVdhsivq7jte1eOo9L3wegwG9+rPd7hizKlG8rmn0Zvz8/QkICCAgMIiw2FYMmzCAZF/jhXuG23PJyCzBYtXhHZZM215juPv/XuGDd59hbLKNtHVTmfTVZkrKqp2/UH9p9V74+qu1nq+3JUPH96eRWu8Vw42HmYDgEMLCwgiPjKNZv7EMauaHydP5egNgz80kq8SCVetFWFIbeo65i7++8j7vPDOexko6G6a9w7RNuZQ0xGFjNe0bSmhN+8bSvO9YBjb3V7d/ztfrAw8T/ueXwVia9R1T8xnVXe/VWdM5pO4rKq1adOp29sKi7UFociLBBoUzmTlYLFa1QxJHSrSNHVPf4pPFx9EldqRFjG/NQTZXfWeiaHiuW04s2/otc62DeOTB33DDuDGMHj265nHD75/k/8Y0wli0ka9n71E3aM7jCxoDRj1UHdzK9gJ1Q3jxMl91jC3bcv6nr6vXeDdn3MSeBJ5Zzlfz9rJ+5np8+vQi1lv/vx/N0frR5qbb6RN0isVfzGL3ztnMym/LsLZyqup6qjywgMX7irF4d2BY/0TMNackaje0Vzo6/rNUHuCrv/+NN9Z70K5ff/qkdqZNQtBP3xrsJ2iMxprb3BVkZVJsvfiWnjqMJoPaGQgkKFjtwNUE8Sv8jV9UjPjldES1bk20unGqTj9GRoUVa/UB5s7eSn55VW176swExbeg6/Df8sRfxtLUq4z92w5QXWWpeQf34qxXXTZr671sW3wZbVALWsSZ/ssvWauPFEr3bqu5ULrswDy+35pHqTNs60xBxDXvxrDfPsajY5vjXXGA7QcLqPqpr4N0A0rpXrbvVwNq1dX3q5qg5jSPM2P4r7+74/o59xmNP/UZ1XxhcJzdKsomu7j6wkFAlbZmG60jICgInU5H1eFveempf7PK0pTUPn3p0aUtSSHm2rP1Qlwj12dxsp9m6bS1BA2dSN+uXejUsSMdzz+6MuausbT2qWDvzOmsy62o/Ypbz8a0bRmI9vRiPvhsPdnlltodnVLCvplTWZOHOp26sjmDic3+M08Sqith/JBbGBRXxtYpL/L2rkgGdAzF9DPWrNqhDTZsjqG6l2x3NRjjh/Cb0U2o3jmFl174jqpOQ2gecJWjSeJ/oPzkkWilcCdT/v0lm8/oaXXr/Yxr7o/JEZi1JowGDUpFac3dc2reQynjTG4JVrsaLH7Ulpey7J/H5FlrKQjvQpfWTYgOMDmPiF7+eRxP2qlZDH/i/TybdqNjpBHL3pWsza7gwn6virNnC9HEpdKnqZcaZpxPC5e4ehNqam6XpredYP7sDeRWqAFc3SYdWTCLFemOW2U6J1NpjcE06tCMCKMB/8AgtOqOvb76WfV+v4Gz5zoc6sJf+zuXnZ/RGTGpvc363l/8jwc0LSdYtHwfFdXV2EuOsnD2Ck6WVFw0FEXd5gc1on3TSLXTH0BQoLHmCGv9VdtO5x4/ZiFt8Qr2lVVR7Wg8daJzv3FJC9en9v0ly6BnCl3aR+JlP8iaDdmUXjSGrCo3jyKi6dKjCWYvLQcXfcUPa84Q2K4DrZvGEmR2nHF1zKCL/27tH3Ocsbz0wwjx81yHMK5QsmMan20Pp2+fOHz0l994X4tf6/EMaWHGdvx7Pv5uf+3t3bRh9L/zJjr4FbH548f440PP8NK/XubZP/+eZ1aYadXEcTGlBo3JFx81bBUd2sSGbcv56ps1nKq0YKu21Nzz23Ga6fKVQxfanVtGt0RzfAfVbQfTUt2QXhqaFaotavhX1Pc4f42cBpOPNwZ1NT28eQNbV3zFN2tyar6VroYuiC633Uyqdxbr9gbSf2Ayvo6v5619VfxipZSWqxu/H23oqjm7Zy5vPv5/vL4wl8SJj/HcH/qT7Ov8Ig+NGogSQ9DlbeCbqQtZuXIBUyd9wPK0MrVtT7N3zQrW7c6i2qouM47taHU55dYLG1mNvUL9u9VkblrA8i3b2bhgMh/M3U9RZRU5+1cw5/s1ZJRbMTiWDY1j2djINnXZmLEmu+YbGhV1Oaq2K1jVBclxSlMb3JO77u5PYtUmPvtgAYfzHfc/h8rjC5i3y5t+v72DbhFeNddDVKl/Q1GsaudPneDcB1I/pOP+tRY1JPx4XohrQ6G8olLdsTruPXyF+Ww9y5bPX+f73AD8tY7hRmqUyVzCW89PYtaWdIod94JXn1Mq0ln17TKOGdpww4TOeHnpa369/lGocNR7frm6rGBHvV+8wQ9n/fFz1KuuV/ayMsrV+aNUVrrhuFk7ZWXlNQdwSvLyajvpzlcc7MXHWPbBq8w+G0CAhyeeGguZS9/mhUnfsSmtCMd9/2vmWcZqZq04gmer8YzrHIK3sf5u7e2lanupddpL8slXg2dNCefYizm2/ENenX0GvwAPPNWdoVLTvmq7nmvfyxaJ+kApV7fV6jL4cz6joi7Xjjzg2K/X3P9bG0z3239D/0YKO6Z+zIJ9pylzHAWsTGPJwl3ou9/MLamx+Bl12B0Hcqqy2LJkJZu3bWDhtI+ZtydXDfCnOLhmPj+sTqMMU811FSVHt7N5+wqmf7ua9OKLO29C/DTdsyrnz9eeUsDe+Z/z1r/e4ftdpXiF+BIQ0Zhov4vubmFTF/K5c5k7byl7TuWTdSSDQrsHAbEpJDdqRtNIHWcPb2PTpu3sO34aa2hnxtxxI/2aBmNSNxqOb4Czpm1m09Yd7D9roHGPXkQVbWL21GnM2ZZFsc2L0KhoWsQFquHd2ffQGAgOq2DrWh0jH72NTo5vRzz3eexn2LVgOpOn/sC2rGJsXqFERScRpwZ2g5eVk1s2sXXHAc4aGpPauy0JjiMiNV1wDZ7+UegOzGFn7N38bWIbQmp60OKXsZGzcylL5nzFlG83kVZUSn5OOod2bGTdiiXMmzWT2ct2kGmLpvdtf+QPtw6nS1LghWEkGnVZCtKQtXMDa9ZuZo8awoPa9KFF1VbW5wXSpEV7OjUzkr7mO6Z9s5x96jJYpvHBPySOhBAvPH18sGfvY/umTew4mE6hVwpd23txfMNucizBdBjQj3aJQfj42Dm5VV02tqvLhmcjuvdujVfmKr6dOpUftmVSaDUTFhVD84QoItTlOt63lGObV7Fi/TZ27dzMuq0Z+Ha7hd+O605iAGRtnsO0L79m2f7TlGoDCA4JJaRiL4u/+Yrpy/dzqkxLQHgUsckR+HpKp+9asefuY/n875g6ZSbrjuRRUlCgLm8H2LRmJcuXL2fZ0oXMmvopn844SMxN9zC8WTBmjrF2VR7evmqnbc8alixezOKF85g9awGbTgXS6zd/5M5BLQjz+unrXFyhtt5ZNfWuPZxLSaEa1hz1rlWXTWe9s2vqPUT0xN8xrKmVI6uWMefrqczelEZhUTFVHh5YdQHER/ih/xn3Incle+5+Vi+bz9dTvmG1o97TaRzas4GlC+byw/ezmTXza6Z8OYXp844SNe4eRrQOQ39yHWvyvPBWA9m+deq2aMkiFs5Tp52/mRz/HtzxhzsY3CoCb896WLs9lwOrlzH/68nMWH2Is8WnSTu4h43LFjD3h+/VZXSmOi++ZMrXczkSOZbfDQnl9ObVzJs+lVkbj1NYWEKlTm1fD3/iw/1/1r3m65z9FLuXL61dBtXP6PiSnXPLYFzE5Z/RTv7BFcycMoUftpwkt9KTwOBQWiSE4heRRON4fyrStrFm1Tq27txRc7vbk6aO3HD7OHo0VtdtDx1e3nZOHdzFFjWDHEwrwJDUkbY+mWzbn0WVX2v69mlPcmQwmqyd6vZ/O/tPaYnvlEq7pNCaa4vq8/og6g+NUpdXIChV5Gcc4+jxDPKrDARGRRETm0CYz0U7JceQgbQ0TqRl1nyNrKIxEhAVS0JCAiFeOpTSbI4cPk62456favAOjFJXoMSwizZ8VgpP7GHviTwspnAat0jBvyqHjBPHOJlXCeYw4hMT1JXF/9LTiJbT7NtZQFirRgRdfARbqSAv4yTHj52k9tfjSVQ/S6S/Hq2tkBN79nIiz4IpvDEtmqgb4ItXfHsOU+/6HbtvmMST/ePwqcfj6tyHQnleFqfP5HAyI6/mjhQ6gwmzyVAzZs9mqcaqdq58AkOJjI4i5Apfba1U5XF83wHScsvRmEOIa5JCUNE+9pzREhgWRXSYkfJT6eoymENxNZiCY4hT2zympqNlIe/EPnUjnEuFRl3+ohuREl7FkZ1HKNCFkNyiCVE+aufSsWzs3af+jWqM4Y1onhKBR3E26cePkZ5XgaIuh473dCyHHjqFyrx0db3IJLdCi8msR6czE6KuG9EBjtPddkrPqJ/nqLrcqx/Iw08N3XGxRJrKOZ2hris5xVR7+BEdn0h8XMily6D4RZTKArKzc8jJzCKvzIJda8THz3GmwjmHFTvV5SWUVpmI79iBZMdZNftZjuzPR6O3UVZSrL7mOB6m1JzR0Pup7Z4UT9h/+Mp1V7livb5qvec6sxfVG9ehA40C7BTlnOaM2iHOVLfJVsUTn7BIwh0dwzDfC79XTznqzTl9hlPpGZyt+W4LLR56fc13TtSMzrDbsFRb1Oe9iG3XkcbBJrR5RziQr8HTVk5JcQm1zWtTa9fjGxZHUnzoFc741hNKJQWnTnNWba/0s45b/oHWQ4/esf+sLbhmG2pRn/eKbUuHRl5UnM3lTPZJMvPV9rXXtm9YeCRxNe17HU6m/ydKOXnZZy77jBHqZ4y6wmdUqCrM5uQxNQ/klmE3BhMTF0+j6KCae8MrlfnqNvo4mWfLwWjCoHY8TMHRxEcFYT6XMaoL1A7MQdLOlKEYA4hKbkyYJY29x/LQBCbQNCUKfwMUn9zP/hNnqdSHkNQshUg/gwxTFT9b3YbxXxnLkc/4/bOn+c2//kSX8P9wayUhhBBCCPGrV+dh/MYbb6SkpMT5r4bNXnSU7WkGmjaLVHvVMnRACCGE+LX68MMPiYqKcv5LiKur8zC+dOlSqqvr//11/zclrH7tQd5ec4YKAml9w8M8PL4lQfr6e9cEIYQQQtS9Xr164eXl5fyXEFcnw1R+kWqy1kzhi4XH0MR2oGfvVNonB2Os5+MmhRBCCCFE/SBh/BdSqovJzStH6x1IQD29SEsIIYQQQtRPEsaFEEIIIYRwkXpwnyIhhBBCCCF+nSSMCyGEEEII4SISxoUQQgghhHARCeNCCCGEEEK4iIRxIYQQQgghXETCuBBCCCGEEC4iYVwIIYQQQggXkTAuhBBCCCGEi0gYF0IIIYQQwkUkjAshhBBCCOEiEsaFEEIIIYRwEQnjQgghhBBCuIiEcSGEEEIIIVxEo6icP4u6VH6c/dnBNErwwVOncT4p3JlSeIBVaw6SW2mldiXSYIztRP920Zg8pZ/r7iy5e1k2fyX7T1fgEdaOQcNTSQ4w0GBXX6WIg2vWcPBsBRZ77VMaQwwd+rUjxkuPrvapBsOSu4/lC9T2PVWOLqwtA4ep7RtoxKPBbp4Vig6tZe2BM5RfaGCi2/elXaw3hobWwEK4EQnj14Wd03Me449LW/P8P8aR7GuQUxJuz8Khz//Afe9s5FSpM4xrA+j1+Ge8PK4RfkZpYXdWnb6If78wg9xWIxjeNoDc1V/zQ25H7nt4Iu3CzXg2wMBmOTKZB//4DusyiqiuXaAJ6Pl/fPTiBJoEmhpUGK9OX8xbL83gTPOhDG0bRP7a6czJbc89D06kQ6RXg2xftYGZ8tADvLMmncLq2jCuDejBXz54ngnNQvCSMC6Ey0hiuB6sx5k/7XuWf/s5PxwspcrmfF64LSV/LdOXVdCiz1BGjR3LWMdj/E2M6hyOUY6KuzdrGnPe/BffZETQq083OnfqSr+RnfDY8AGvTd7MmTKL80xIA6Lks/6bZZSm9GDQKOfyPHY8N47sQqRZ37B2FGr7zpv0Ot+kh5LaqxtdnO2r3/Qxb0xWO9cl1Q2vfdWK8jfMZEVpI7oPHOls37GMu3EkXSK9McgmSwiXkiPj10H51le58bZ/sexoFc0emcEPT/ch3OyBDFZxV1aOfPlnXs4exgM3tCTkXFtqDPgG+2HSaaVt3Vj5ln9xwy2vUXzjN3z9l65E+Kjta8th2t39+NuO7rww/WXGNwqkIZ38sB6dyqOvZjDg9+NpFe7tPDKsweAbhJ/JA20DWqDLt77OTbe9Rv64qUz7S3ei/Txr2vfrewby2PZOPDv1ZW5oEoypIQVU61Gm/fU10vvczdjWkfjqaxtUY/AlyM+ER0NqYCHckPSH65qSx9oZK/EePZGOQVYOz57B2tMVWKQL5LaUwnVM+3IJGxZN5dOp89iUYcE7KJTwsADMEsTdXBV7F89nd66RhCZRmDx1te2pC6Z18xjsmctZtDmfitpxHA2DUsiGryezZP0ipn42lXkbTlLlFUhIWBgBakezYeW0KvYtXcjuM3riU6Iw650daV0IrRztm7WKxZtzKatyjqluEBQKN85g6pJ1LJr2OdPmrSet0kxgSBhhAWYJ4kLUAxLG65gtYxHTd8cy/Oa7uKN/NJqshXy9OI1y55g94W4U8neuYWeBhbM75jLlvZd58k+/5+E3FnCoqBoZgeTm7Dns2plGiSWIiCgTuvNX83kQGRmGQcll964TVFdbnc+7PyV/F+t25VN1Zifzp73Py089wH0Pv878A/lU2hrYUYPz7Rt4WfvqatuXXPbuTqO6quG0r2MI0u71u8ivOsPOBV/xwStP8+B9D/Pa3H3kVZy7+FwI4UoSxutUFfu//44zrUbSLT6FobcMIkmfz9qv5nCgpEqCm5vyShnL3978hCmfv8nfbuqAV9Y6vp30FE++t4ac0gY4nvjXxJZNenYlVrsPAUEeaM9vITUYvb3w1No5k30Km60Brb1eKYz66xt8NPkz3nr8Vjr7nWLjrHd5+qn3WZ1ZQoM6bmDLITO7AovNB/9AD3TnL1rUYPDyQq9R2zfnFFZrQ9o6e9F45CP868PJfPbW49zWxZ8zm2fz3jNP897KdIoa1FkAIdyThPE6pBRtZMZCDakj2xJqMhDabSLDW3pTtnsG327Op1LGqrghNZRFNKNzah8GjpjIXQ/9nTffeIReXmks/+hdZh0qplJ6We7LXk55udqAGiMmg+bSIRoajdr6CtVVlTSkS200xnCaduxOn4EjuOE3f+a5N17nkd5+ZK76hPdmHaCwogEdJXa0b4UNRW1fs0HraNILHD+rj+rKKnXj3YC2zWqt4U060r33AEbc8FsefPYNXnu0LwE5a/js/Vnszy+jAbWwEG5JwnidsZOzbDobQwYxpIk/Bg91R+7bmgljOxFoPcYP36wip8KiTiXcls5IQHQTOg+/h8cfGExowQaWbjpDhQxBcl8aPXrP2tB9eRyzWyxY1Sf1BqP6+sUprqHQYQyIIqXTMH732J8YElHM5uWbOFVW1XC2U2r7ep5v30tb2G6x4hiVU9O+l6T0hkNn9CcqpSND7/obfxoSRdm2lWzOKZUDCEK4mITxumI9wrzpWyku3MyU15/nuWee4ZlnX2bqHitmfTXpi79i4YkyqmUj6PY0xjDajBlHaqSN/NOFWG0Sxt2WLpzwUD1aTTmlJXbs55tSUf9dhtWuISQ8Ap1HA74ps8ZIaOtRjEmNhsIzFFptDSeMO9o3RI9OW05J6aXtW1ZahkXdHoeEhzXs9lW7IsbQVowYnUq0pogzRVZ1uXa+JIRwCQnjdaRs63fMqe7Hg/ffwqjhQxkyeDCDBw9h5G//j0dHNcJUtJHp3++lpAFdCPZr5hEcT1yQH+HhfnjoZLVyW9pIWrWIxKjLIzunGtv5CxhtnDl9FosSSLOWMXh6NvBvSPEIIj42CL/wcPzUYNpglmhtBC2bR2LyyCfH0b6OUx01bJyuad8AmrSMRa/3cD7fUHkQFBdDkL/aOfHzUDsnzqeFEC4hq2BdsJ9hxddrCBh0A/1TU+nWtStdzz96MO63Y2nlU8Gemd+w3vHV05eeLRVuyJ57jJMeXRnYJRSTXlYrt6Ux02ZQb5K98jmy9xRV54YcKYUcPpyFJaw7AzsFY2ro35Jiz+NYuged+3cmzKsBfWOw2r6tB/ZS27eQo/tyqDx3alIp4sgRtX1DuzKgQ3DNePKGzU7eiXR0HfvSKdy7Yd1TXQg3JKvgNadQums6n28LoXfvBHwNzvsUn6fFv804hjT3wnr8ez6dfYCiKttloxdFvWXNYNUX7/Dht5tIL60d82/L3823H67Ae/SdDEj2Q21y4bbU9bP9LdzRL4yT61ZxvLSy5uI2q+P+0zuh7YRb6Rnj04C+sdBK5prJvPfRTDamFVPtOBNgz2fPrI9ZYRrGrf0aEWBqSEeJHe17E7f3Cydz/RqOF1fUXAdgzV7F0p0KrcbdQs84P4wNaB22Zq5l6vsfM3PDCee+xk7B3tl8usLI4Jv6kRJk5vwdHoUQLqF7VuX8WfxSSiH7F01m0uvvMGtHKd7hfgSGNybKzxPduY2dLZttCxYwf/4Sdufkknk0mxI8CIhJJty7oX3BRgNkPcb3L/yDd79bwppNO9mxYTlL1x/FltSPsSO6kxxovNDWwi1p9IHEJfhTsHkB6zJs2Av3s2DabNKix3D/74bRKsxxi8OG0shWjs95heff/ZaFqzexc8dGVixdzxFLPH1GD6d742BMjovPnVM3BI72jU3wo3DrYtZnWLAVHmDhVz9wInIkv79rGK0jvBtQ+6otfHwu/3rhXWYuXMnGnTvYuGIp649YiO01kuGpjQk2ecp+RwgXk6/Dv5aUKvJPHuHQsXTyKvUExcQQG5dEhO9FIVsp4/Tx4xw/7pim9hZbgdHxJCYnEuYlYbzesxdyZPVCFq/fzymbH1GJjUiOjyEhpQlxahCXb7NrIGzFZOzdwe7juZTbNHiaAohKaUmL+EA1nDakE4p2Co+uZfGSdezLtuIbmUByo3hi4lNoEh9UU2uDXKId7btPbd9jte3robZvdOMWNE8Iwtyg2texyTrGuiVLWLcvG4t3BPGNkomPSSAlJY5gswRxIeoDCeNC/LdslRQVFFFu1aD38sPfW4+ugd4K7dfNTlVJAUUVYPL1x9sx5KxhJlMqi9U6y6xo9GZ8/X0w6BrmzRsvdaF9jc72bajB1FZZTEFRGVaNHrOvn1qrHPgRoj6RMC6EEEIIIYSLyAWcQgghhBBCuIiEcSGEEEIIIVxEwrgQQgghhBAuImFcCCGEEEIIF5EwLoQQQgghhItIGBdCCCGEEMJFJIwLIYQQQgjhIhLGhRBCCCGEcBEJ40IIIYQQQriIhHEhhBBCCCFcRMK4EEIIIYQQLiJhXAghhBBCCBeRMC6EEEIIIYSLSBgXQgghhBDCRSSMCyGEEEII4SISxoUQQgghhHARCeNCCCGEEEK4iIRxIYQQQgghXESjqJw/i1/MRs7OFew4WUKl1c75GavRoNV64GnyITgyiSYp0fjptWicLws3U5nGxhV7yKmoxn752qP1J6VHd5oEGfGQBnZvShGH1q7jUG4FFnvtUxpjDO37tCHarEdX+1SDYs0/zNpF6yhrNYa+Kf6YPJwvnFORxdali1m7J50CmxeRzboxcEAHYn3U+eFuy7vavofXrefg2fIL7WuIrm1fL0ODbF+1gdWaF7O+tAUj+6QQYPa8bD9UQfa25SxZt5u0fCteEU3pOqA/HeL8MLhdAwvhPiSMX1MKpWfSyTg4l9ef+ZzNeWZaj7+ZQc3D8FI3cvmZB9myfidnvVsw6PZ7uKV7DGYPOTnhXhSKVz3PHU/M4mhh5Y/CuNa/L09NfZ5Rcb4YZN/l1ixHpvDgn95hfVaJGtYcDa0loMdf+ejF8aQEmBrUaUWl+Bjrly1izrc/sHJHAZ3+OYPnhsQQYLxoIa44wvev/JMPV5yguKqU3DMFWM3hNBtwL0/+3w20CTXj6UbLvOXoVB5+4F3WZhRRfa59Ux/l/Rcm0DTI3LDCuFLMsQ3LWTznW35YuYP8Ds/y9bPDiA8yXRTGKzg65zWe/3AZx9RtW2nuGQqsZsKa9ueeJ/7KDe3C8XanBhbCjeieVTl/Fr+YBr2XP4EBVrZ++R5z92rodN8j3NS9GckJscTExBHnn8eKKVOYvzET3/Y9aR5qQvK4G1HU9vvgfbZ5daBfvz706NKJjh07qo92BGSvYpuhH7+/sSvRXp4yBsydKQWs++A9Nng0pmWzJjRJaUzjlKZ06jeU1JQQTOpK26BiicWC1eBF6ZbpzFh/lughdzC4qePI+Lkq7eQsfp9P9vjTfcwExowYTN+2weRtXcry9bspjOxB72ahmD3dZKlX23f9Rx+wXpdEc7V9m55v3yGkNqmto2HFTisWqx5z2TZmzlzP6chB3DqoGYHqdup8C+cs4YPPduPTZSTjx45gSL92hBRsZ9mKdewqiCC1R1NCvfWyXROiDsiR8bpgO8GkUV352/Jw/rh4KU93CcbsPN2rVGQy6+Hh3P1lJk3/8h3f/7UbwedeFPWe/ewKPpmeR7M+nWgc5Y9Rp0GjUXdnlv1MuvG3rBvwGZ/8oR2h5gZ5kvtXw3p0Go++kkb/30+gVZiXc8iRBqNfCP7q+qptWElNXbBt2NSaTn4wgb5P7qTn28v495h4As8dGbefZcGkL6noMorerRMIMOjUbdkZ9s14kjsenc7p3q+z4t2baBRsdosQaz32Ff/3ahq97h5L6wgf5xH9Bty+amfK5mjg9A+5sf9TbO/6OgvfGEdyyLkj43ZyF73L5LIODOvZhqQgIzqlgrP7v+Wp3/yFr7NTeWXJO9yidlS8JI0Lcc3JalUndGgdc/YKG3SNKYImicF4UsKxI1lU2y4aWy7qPY1XY/qPGUznJjGE+Pvi4+ODt7c3xlObWX86kV694vBWg4pwY0ohG6dPZsnG5Xwz5RsWbc3C5htCeEQEgV4NMaiptDp0aqfSy2RU67vShsubFkPH079NfE0Qd0yhNYXSfHAPmvnpsZSVY1MU99iWKUVs+mYKizcsZcbUGSzakonFJ5iwhty+6q5e5zhwYDZjVHdOPy5RbfvmQxjXvy0JgWoQr21gQpoNpEczfwyWMsrtdjWyCyHqgoTx682SyfZdmVTZTSSmxGHwqN2xCfegMUeREOWNxyUXM1k5tmIpJ2N70jPOC8ni7k3J382aHblUnt7GD5Pf5eWn/sz9f3mThYcKqbI17K5zzVmeK22QNCZikuPw1Xtc8rLGw0MNbkaSm6fgrb/8YsD6SSnYzbqduVSc2s7cKe/x8tN/5o9q+y44kE9lA29fx80ErtxIGkzRScT6GrhkpJFGbV91e2Zs1IwUb4NcByNEHZEwXpeUCk4f2ceBgwc5dGAv29bM5bMXnuStVQWE9b6HB8c2UXdg0gRuz3qcFUvTiOvRg/iGeheGXxNzMiMeeZX3P/uI1x69gbamDNbMmMTTz3zAmqxSquVUlpNC8c5dHDd3ZPTQpvj/6M4c9ZTavsMeeoX3HO37l4m098pi3cx3eObZD1idUUyVHP49Tyneze7jJtqPHELTAC+3ukBXCHciSbAu2Ys5vmEpixbMY8733zF98id8+PlcDmuT6NijF+3jffCU20W5PeuJlSw9EUOPngl4GWT8v7vTmCJp0bU3A4aO4ebfPcxzr7/Kn3uYSVv2Me9/f5CiCqtzyl85SxqLvt1J2MjbGdYyBLObJDWNMYLmXXrVtO9Ndz/Ec6+9ykO9fEhf8Snvzz5AYbm0by0LaUu+ZVfIcG4d2oowbzfpbAnhhiSM1yWtL0nd+tN/wAAGDhnO+Dv+xN8ev4++ofns+PY1/vHBWrLVDb8caHNnVk6uXMKx6B70TPBCsnhDosMUGEOzbiO597E/MiisgA1LN3O6vFrGzlJN2oLPWKj0484bU0nyd8czQrXt27TrCO752/0Mjihi8/LNnCqrwuac4tes+uQivlxop9ftN5CaHFBzsboQom5IGK9LGhOhyc1p0aIVrVq3o1P3vgy/+Y88dkcrqo9uYNY77zHnWKmcFnVn9nRWLTtKdI+eNUNUJIs3QOp6HN5uDGO7R2HPP0WhxfYrD+MKxXtm8sUaA71vHkcPNai59RfCqO0b1nY0Y7pHQ+FptX2tv/rOllKyl+8mr8Gjx0TGpjYiyHjptQJCiGtLwvh1pvOKpN3QHjQy6ajM2MKOE5VY5TCM27Knr2bp4Sh69EjAWw6LN1weISTEBeEXHoafh/ZXveGsTFvM59+lEzNgDIPbx+KrbwAXoXsE17ZvWBi+nrpf946x8iRLvpjFyYi+jBrcgXg/g/t9u6oQbkbCeJ1Qav53NdaiIspsCoohlIhgz9rbIAo3ZCdz9VIORfagZ6K33EWlIbPncSLDg879OxNqNjT8DedVtl/VmSv5Ysp2jO0HMah7I4JNziOmFSc5fKIYi9VNB93Z82vat2PfToR7GX8FO8arNXAWqyZPZbu+Nf0HdSMl5NyX0lWQfiQNS7WlZjIhxLUlMbBOlFJarobtH23vFMrSVvHx27M5WOZJ41G/YUQjLwzSCu7JnsXqpQeJ6NGTBG85etQwWMlcO5UPPp3F5nTn1+DbC9j7/SesMA3jtv6NCVADaENlsVhQ7Fb1v/Yfbb+qMlbw/guTWHQ0n4Ks3az4fibTv5rGlM/f48Un3mJRZhmV9X58h5WsdV/xodq+m04WU+24laHavvt++JSVhkHc3D+FwHMdjIbIUo3Vblc7TWo7Xx7IqzJZ+eFLvLPwMLn52exZOYeZ079m2pTPee+lJ3lz4UkKK2RMpRB1Qb6B85qyk7NrOZu3zufNZz5k7SkDTYeOpHtyOME+emwV+ZxKP0ladjlB7Udw629uZGDzULkwxk3ZM6fxm9HTaPr2J/ypYyhe5786XLivanZMuo37PjqMR0xL2jaLxKzRYgpJpH3vQfRuHYV3g/uqdFVlBttWb2Tpx8/y8tyTRIx8nIdvGsSgAa2INHvC6TVMeupZ3vluG4XeIfgbL3w5jmKrotxnAK9MfYFRjYMw1euDC9XsfOdO/vDRATRRLWjnaF+tDlNwAu2c7evTEIbd/EglGdvXsGnpx/z9lbmcCB3O/z10I4MHD6RVpBd6zRnWvvs0z73zHVvzTQT5mS7c6UuxUVXuQ/8Xv+SFMU0JNsvRIyGuNQnj15RC6ek0sk9lcjwtl3Ib6PRGTEYjBnUDr1grqahS0HsHEh7XiORoPwwN8+vefhWsafN5d3Ylfe8cSlM/57fWCTdnp+DwShYsXMe+Uzb8ohJIToonJrEpzRKDMXs0wCDuYC0mJz2bzLRjZBdVo/OPJj46hrj4ELXzoYOyDLZv3EVmURU/HomiQevfmNRuKQSZPOv56VZH+65i4WK1fbOt+EYmkJQcR6yjfRMct2dsoO2LleJTGWRnpnEsq5BqnR9RcTHExMUT6uOJjjIydmxid0YhlVcYaqTR+tOoe1eaBJsv/VIgIcQ1IWFciP+RUpHP6VIPAoN80EunqgGxUVGUT1GZBY3eG78An5q7hUgLNxQ2KtX2LTzXvv7eGBpqJ0sI4RYkjAshhBBCCOEicsJJCCGEEEIIF5EwLoQQQgghhItIGBdCCCGEEMJFJIwLIYQQQgjhIhLGhRBCCCGEcBEJ40IIIYQQQriIhHEhhBBCCCFcRMK4EEIIIYQQLiJhXAghhBBCCBeRMC6EEEIIIYSLSBgXQgghhBDCRSSMCyGEEEII4SISxoUQQgghhHARCeNCCCGEEEK4iIRxIYQQQgghXETCuBBCCCGEEC4iYVwIIYQQQggX0Sgq58+iTtgpP3WMw2lZnCmswtM3nIRmTYn102PNPsHpgFgiTTp0Gufkwj1UZrN92TI2H8ul1GIgonVvBvdIIdCgQ5qy4bDmH2bdko2UtxpFn0Z+GD2cL5xTkc225UtYvzeDQrsXEU27MqBfO6K99e61Tqt1bF++tKaOAruZiCZd6a/WEeNz5Tqs+UdYv3QDZS1G0ruxP6bL54ubsBaodajtW9ZihFqHn1rHZcU65ssK53yxOeZLF/r3bU+Mr5u1LxVk71jBsnV7SS+wYY5oQpd+fWkX64vhig1cwJENS9lY2oxhvRoTYPaU7ZoQdUjCeJ2xU3JsFbNmzmdTuobw5AQiA30wKBUU5qsBTuOL/fBxwh94hpsb+2LUOX9N1HtK2UG+e+0d1uo70L9LIsbcrcz+Zh1K6v389a5Uor085ZSTm1OKj7FhxRLmfTeHFdvz6fTPb3hucDR+hosiScVR5vzreT5ccZyiylLOninE7hVBi0H38vij42kdYuLybFcvqXXMfe0FtY5jFFaUkqvWYTtfxzi1DvP5OpTi42xcuYS56nxZuT2PDs99zbNDYgkwuldUO1fHvFlq+25T63j2K54ZGkfgxXVUHGPu6+p8WX70kvnSfODveExt3zahXni6RdkVHJv3Bi9+uIwjBRWU5p6h0KZ2HJsP5HePPcL4NmF4nStEKeb4plUsnTeLOSu2kdvuKaY+M4yEIJOEcSHqkGSGOmEnd/NnPPt/f2fKHiOtBwxhyMD+9OvTm569etIztSuNNbuYv2AV+7MrsUl3yI1Usn/G67y1ykKr3r3o0b07vQaNY3xbK6s+/pcaaDIpq7Y7pxVuS+tFaKPWJOiyOJyWTX6FDfsl66mdnOVfM/9MLAPvepjHnn2eFx+7lTbaIyyf/BqT5hymSP2d+k+tY8V05p+Oof9v1TqeeZ4XHlfr0B2treOHw2oQvagOrZnQ5FaXzhfnS26lpg5H+2ZzxFnHpYel7JxaOZ0Fp6Po/5uHnPPlNtp6HGPllNd554dDFJZbndPWb/ZTK/lmwSki+97JQ489w/MvPM5t7Tw4vnIKr0/6gYMF5VyoRItXSDKtEjzIOZpGdn4FVtmcCVHnJIzXAWvmQt5+/k2+2hPAwDtvY/zQXrRv3oj42GhiE1Jo1akng8bfzoRO3lSVKSiX7uVFfVaxk9mTl5Ae1IHuKeF4e2rx8Iml68RhNC3bxjdfLuJ4aRXuEMPE1WnMISQ07UTfDvGY9VcYemTPZ9cxA31vuY2bxw9n8MDBjLz5Dzz2wHDirMdZvGQ7BZXV1Ps1u6YOPX1uuZVbxql1DFLruOkPPP7AMOIddSzdQUHFhToc8yXeOV+8rjRf3ERtHR3p0yEBb8MVTks65stRPb1vulVt3xHO+XJfTfsm2NNYsnQ7eeVu0L5qpyJ/9zH0vW7illsmMGLwIAaPvIn7/vYAwxMU0pYuZUdeOdUXGpjg+CZ07NOeBG8jbjr6SAi3I2H8WlNK2PrVu0xddYLg/ncwplMC/nrtZTstLV7Rnbnxrj5EKVppBDdiz9rGpiOFYPbFrNWcb1d9TCfaxsGZ9cvYll+JRY4muTet4zoODV5mI1r1vz+ihpamg8czqF38+esEtKYwWg3pRTNfPdWlZdjcoZOt1tFs0AS1jgQCjRfqaOmow0+to6RUrcN+IXSeny+mK88Xd3Fx+2qvsAV2tO+g8Qxsn0DQxfNlcE+a+RuwlDja96L5Um9pMDcZxLiB7UgMNNaOc9eaCGs5mJ7N/TFaSim12S8666NFp06kMZsxXbR9E0LULcmB11rZNr7/dgs5FWF0GtCOUJPHVWayJ6HdbmN8Rz8MbjGwVDjYSosottgoyc+j/OKdsS6EkAAPlKI0jp22yKndBkJztcCphrW4xgn46j0uCSwa9d8eGiPJzRrj5enpfLYeU+uIbRz/4zo8z9WRgpf+xxfv1cyXq8wad/JT7euYL36X1a5R29SD2vb1NujdYBaoYTy2EfF+Bjwv3hFp1Dp0YEhuSmNvPfrLC1GDuBDi+pEwfo1Z0zaz+WQZFm0MKY191A3e1TdqGp9EkiP16KQV3IYuNIoIk47KvRvZlld14Qi4UklllWPIkRWr1Q2OiIo6oFC8azfHvTowemhT/MyXBlz34azDXFuHv9xJw0mhZLdjvrRj5JBmbj1flJI97Dlhpt2IITQLcJcLUYVouCQGXmO2UzmcqbJh9/TFz1srBxgaGG1ID0b2S8Cct4KP3p/LrlNlVFec5eDK71lzVO2E6YIIDfLgSme+RQNnSWPxzJ2EjryD4a1CMLtrwlHrWPLtTkJGuHkd15rlJEu+20nwsNsY1joUb7edLxZOLvmWncFDuXVYa8K8pbMlhKtJZLjGak/vqps2mxWrzXEsRTQonnEMfPBxHhidSN6it3nyzw/z+Eufs3LbTg6dtaCNb02rIL0cafrVqebkoi9YYO/Db27sQZKfAfe8W6mjji9ZYOvDnTelkuTvrnVca9WkL/mShdae3D6xB8n+zvHXbqg6fQmTF1rpcdtEejYKwOiuhQjRgEgYv8Y84pOJN+vQWbM4mVGNXW6r0cDoCGo+lLv/9jKvv/g3fn/TCAb06UZ4eQ75ViMthgwixXEXAtm//YoolOz9li9WedDr5gk1AeeKX6RS7znq+I4vV+vocfN4tY5AN63jWnPOl1Vauk9U50vjIIxuuoIrJfuYNXkVmu4TGd+zMUFGdx1KJUTDImH8GtNG9GJQxxAMmpOsXX6Q0mrr1Y+OKyVkZRVglVsbuheNmfCmnek3fAxjxwxnYCsbe9YfoSJqIHeOb02I244VFv+LypNL+OK7NCL7jWZIh1h83fSWf5Unl/LlrDQi+o5maIc4/Nz41oXXUpU6Xyar8yW89yiGdIzHz12/ZbfqJMumzOJEWG9GDe5Yc1Gn9LWEqB8kjF9r+iRG3HsLncOsHJjxPt/tyaPyit/qU8GJlQvZftYmd95wZ/bTrPt8EjOOhTLy/j8wvFmQHE1siK7SX67OWsXkqdvwbDOQIakpBJucHbGKdI6klWBxk4t5q7NWM2XqVjxaDWDwf1NHAz+O4Jgvk6dtQ9eqP4NSmxBy7u5Y6nw5erKYaoubzIDqLNZM+Yqt2hb0G5RKSqgJj5pCKsk4ehJLtaVmsh9z1NfAG1mIekDC+DXnSWSPu3j8LzfStGwFk559jre/Wc3B3HPftGmn/NReln8zlWWnA0iK9MZTwpt7suax6+s3+NfsAjrc8xgPjO9ApPlqt7IU7shisaAoVvW/yo8iSVXmSj58cRILDhdQfPoAq+d9x4zp0/lq8oe88szbLM4so8oNOtpVmav46CVHHfkUndnPmsvryCij8rI6auaLvXa+uHNWq63DgvVK7at2tD5++R0WHMqjSG3fNfPV+fJN7Xx59ZlJLDpZ+qP5Ui9VZbH6k1d4Z8FBcgvPcGDNPGbN+IbpX03mw1ef4e2FJym6vBA1nFsVRZ0v1su+mVQIURc0isr5s7hmFCz5R9i45Ae+/WEtR4vseJp9CAgMIsDfD7/AMBKatKRV6zY0i/HFU2654kYsavDKIv3YHjavWcfOTBuRHQcxfFB3moScO9ok3F5lBtvXbmbZR8/w4pyTRI55kkdvHMiA/i2IMHnCmXW8+/QzTPp2G4U+oQRc9H0Ciq2KMu9+vDzlRUY3DsRYj5cJu1rHe888y6SZWylw1GFU63Bujmrr6MtLah1jHOOkHXVUZqrzZRPLPn6Wl+akETHqCR5R58vA/i2JMHu6T0e0KpMdjvZ11PHDCcJGPa7WMUitQ21fsx7NmfW8/6xjvmyhwDsU/8vni1cfXvjyRcY2DcZUn4u2n2H9B8/x3Nsz2FLgRYi/Yxt1vhCqyrzo88KXvDimKcFmRyFVZO5Yy+Zln/Dcyz9wPHQ4f3v4JgYP6k/LCC/0cjWvEHVCwngdUqryST96lLSsM+SXVKJ4GDEajXj5hxHfuDEx/ga59aG7sedzcP120ooqsWk9MQfF06x5Us04cWnLBsRaRHZaJunHj5BZWI0uIJbE2FgSEsPw8VQTSelJNq/dTkZRFT8ewaFBG9iE3j2aEawG9/qc1ZSyk2xZu4P0wsqfV8eP5kuMOl/izs8Xt1kFHHWcVOs4dlSto+pHdfCf5ktAE3qp8yWkvndAlDLSt65j+8kCKq8w1EijDSClZw+ahZrR1zYwxTknyUw/zpHMAqq0/sQkxBKbkEi4r17GmAtRRySMC/HfUCopOJVHhdaIb4A/XnKRmxBCCCF+AQnjQgghhBBCuEi9PsMmhBBCCCFEQyZhXAghhBBCCBeRMC6EEEIIIYSLSBgXQgghhBDCRSSMCyGEEEII4SISxoUQQgghhHARCeNCCCGEEEK4iIRxIYQQQgghXETCuBBCCCGEEC4iYVwIIYQQQggXkTAuhBBCCCGEi0gYF0IIIYQQwkUkjAshhBBCCOEiEsaFEEIIIYRwEQnjQgghhBBCuIiEcSGEEEIIIVxEwrgQQgghhBAuImFcCCGEEEIIF9EoKufP4hezc3rvanall1BpvTBbNRoNGp0HepMP/sERxCXGEWL2QKtxTiDcklJ0hA0bj5BXZaW2tTUYotrSs1UkJk/p5zYE1gK1jZdtorzFCHol+2H0cL5wTkU2O1YuZ8O+TIrsXoQ36Uy/Pm2I8tajc8P121pwtLbe5sPp2cgP0yX1VpGxbS37csqotjufOk+Lb3IXujQKxOhGy76j3o3LN1HWbJiz3p9oNKWc7D2b2bLnJKUe/iR16kfbWG8MOufr9VolOTtXsWLjXjIKbJjCU+jcpw9tY3zQX2lBtRZwbNMKNpU2YUiPRvibPdWtmxCirkgYv6YUSk4dJ+3AQt55YSpb8z2I79qL9okh+HjaKC84xYnDRzlLKCmdBzJuwhBahxndcqctLByd9jAPvruRnDJnGNf40/3R93l+bCP8jBLG3ZlSfJxNq5axYPZclm87S4fnvuHZwVH4GS5aWSuOMe/fL/HRsiMUlJdw9mwRik80rQbdw98eHkPLYBM/le3qE6X4BJtWO+qdw4qtubR79iueHRKD/0X1KiXree33T/PdwTwqLg/jGl9S//oxfx+VRICp/i/7SskJNjva93u1fbeepd3T03h6SCyBxis3WPWpLcz+cgYbCkNp1bkdTWNCiYhvTJS/Ho96X24lxxe8xSsfLeVQXinFuWfVjqMPUS0HcvdfH2Js61C8PJ11KyWc2LKa5QtmM3f5Vs60eZLJTw8lIcgkYVyIOiSJ4ZrS4BOeRLN2rQkqO8z+fafxaT+AQYMHM2jQEIYOH834Mf1IKNvCN2//g/97YhLLT5Zh+dFRJlHfKQWbmLE4l+h2XenZuze91UeffkPo1zYM47kdm3BfWhNB8U2JtKVx4FgWeRVW7JcctrBzauV05mWF0eu2P/Hok8/x90dvpLn9AIu/+BfvzD1CUaXNOa0b0BrVepsQZTup1ptJfoXtsnoVCjYtYlN5DB0HjeXGm2/hlltqHzd2D6TwjCehkWZ07tL70JgIrGnfkxxU680rVzvUVzwspVB+fBHv/ONFpu430qJHX/r26k7Hti2IC3SHIK4uqadXMWN+BsGpN3H/o0/w3HN/4aaWcHjpl7z+7hwOFZZjdU7r2IeZAuNoEqmQfug4mXnqa7J/EqLOSRivAzrvKCICPNCqO/SwRs1o0rgxjRo3oYUa3PqNvp0Hn3qcm5IL2TzrHV54ZzEny6vVXbtwH1ZOLPqWY0k3cs/9D/Hwww/XPB76828Z0Mj3yqd9hVvRmEJIaNGF/p3iMet1Pz4qaM9n1xEdvW6+ndsmjmb40OGMve1+Hv/TUGKrj7Jw8XYKKqqdw5fqP40plMTmjnoT8LrSuAu13r3pwYz90wM88Kc/cO8993BPzeO39Evwwq9tP3on+fz0MI96xNG+ic07q/UmXrleJ3vuRr549VW+3O1P35tvZkzf1sT6G9zobKadgt1H0aVO5NbbbmT08GEMH3sr9z/2J4bF2zi+eAk71MBdfW5B1ZgJSWhO534dSfQ2cvmoLCFE3ZAwXid0aB3b9yttsHXeRLcdyj0PTqCV5xk2TfuQ7/eVUu1GB9F+7ZSizUz/YjFb1s/ju7mr2ZerJTAiipioYLw9tHI6tyHQeeCh0eJtNqHVXKFFNSYaD5jA4A6JBBlrw7rWHEGbYb1p5qenqrgU26WHlus3nU4NmFq8fqLehJ6jGJbaksSIIPz9fPH1VR/mXLZvyiG2WyqJPu4zLOdCvUZ02qvsBpUCNk+bxMdzM0kcewcjuybhrwZ391q/NZga9WPsoI4kBTnbR2smvPUQejX3x1hdQon14rMgWnXWaNB6mTFpNbItE+I6kTDuChojUakTGNDEC83ZjcxZeZxySeNuQqFg9yq2ni4nZ+NMPn7zRZ565CGeen8ZR4vlDEdD47j4+oo0XiQ0TcRP73FJYNHoPfFU1++kpo3w8nS/44o19V6pZI2ZmORYfC+r15a2muUnIuiamoCP6dLX3MFV21dlz1jG5K9WccK/B+O6BlB4cCMrlq1m+4l8qi66QL9+02COb0Kiv4FLrqvVqP/21GBIakIjb/Xny2eD3F1AiOtKwriLaMyNad0kAL22lAO7D1NptbnNKe1fO2PcIP74wpu89+bf+cPwFJRDi5n8xrP849ONnCqzSDv+aimU7N7DCXM7Rg9thl+DvwOFjbTVyzge0YXuCb5uM0Tl57GRsXoOq48VgqGKw2tWsHbtcmZ/9BKPP/x/vPr9HnIrzt1Fyf0oJXvYe8JE2+FDaBbghV6ytxAuJWHcVTRGAv290GrVHXhhIVZFjqm6Bw3m2Hb0GTyScTf/lvv/8hyvvvAHOun2M+/995hzpAR3um5PXEOWkyz5difBw+9geOsQzA0qnF6B7SRrlh0jrEt3En3daIjKz6GUsXfzbnIrTbTsO4DOnbvTo+8wJozpgMf++Xz6ypvMPlBA+YUrH92IlfRl37EzcAi3DG9DuLfctlAIV5Mw7jJ2KiurUBQNJrMZ3U+cLhX1lIeZ4IQ29JlwP4/d14+gM2tYtPkMFXJ7nF+hatKXfMkCSw/uvLknyW51kd//xpa+hmVHw+naPQlfNxyi8pPsBWRlF1FtD6Vlj1S6dG5Pm9Yd6DHqd9w1MIbKQ/P5dsVxSivdL41XZyxlyoJqut06kV6NAjDKBedCuJyEcVexZ3P0RBEWuydJTRpj0DWwndmviMYcRecbJtAtvJqzWYVYbTJQ5ddFoWTfLCav1NDtJjXgNA5U1+eGvjbbyVi7jMOhneme1NCGqDjYai7AVTQ+BATq0TrbU2OMJrVXK0IM5Rw7lIXFza71UUr28/2Uldg7T2B8ryYEN7ROlBBuSsK4i1QdXszSfcVYzG0Z3C8Js16awp15hiaRGOxHaKgPHnLx069KVfoypsw6Tkjv0QzrFIfflW6F2NDYM1m3/DChDXGIioM2gPAwHzx1VZSX2bkwilCDX0wU/noP9B5u8dWbF1Sls2LabI4FpTJyaGcSfgVnb4RwF5IA64RS87+rUYr3MXPSl2w4rafZDfcyvpX/r+BIWsNmLzhJlmcn+nUKdauvAxc/01XW5+qsNUyZtgVa9GdIzyaEnDvSWJnB0ZMlWNzmrhuX+Q8f2569nmUHQujSPQm/hnh0VeNLm65tCDXkcuRgLlUXHwG32rBpgmnWKg6DwU3umFOdzbqvvmaLvQl9BvekaajJeXeVSjKOpWOpttRM9mOOBcFNl2Eh3IikhjpRRlm5coVvdKsm7+BSPn7+aV6bk030yAd58o9DSPHTyxEKd2HLZsP0T5k8dztZZdaaWxnaC/Yz9/OV6IfezqDGfhjlmzIaDIvFoq7H1ppQffnqXJW1mk9emcT8gwWU5R1h/YLv+W7mDL6Z9gmvP/cOizPKqHKzywdq6rWr9VrsV/lGSgc7OeuWciC4i9sPUamt14LVcnn76ojufxtj2pk4vGw5hwsrUCdRVXBk+wGqmwxnXPcYvI1ucHS8Kpu1n73GO/P2k1uSz9ENi/hh1rfM+GYan7z+d95dlEZx5WULqjpfrOoCYLVe7ZtJhRDXku5ZlfNn8YvZOb1vNWsWf8vUGes5XlRBeWkBmQd2sHXDapYtnMf85Zs4mGem9ejfcs+dE+jbLASjTvpEbsN6lNnPqzuw71eyafcB9m1by6pNhykN7sTwUb1pEuI4ZS89K7dXlcmO1cuZM3MmS/fmUGkIJcTLi5CYILw8dShn1/PxP/7B29NXc/R0Dge3rWft6lWsWrWKlStXsSYjjGG3DKJ5qNk9hnBUZbFz9Qrmfjujpt4KvVqvt1pvdG29l5Rgz2HRW+9wuMVvuK1nEv7OLz1yK4561zjqVdt3j1qvIaS2faOD8XbWq/MOJy7cg4wNS9h6CrWTXU7Gxu+ZuclGh5vvZHTHGPwM9fxLvuxn2fjZi/zz7WmsPHyK7EPb2bB2dc1yumrlSlatPUnI4Jvp3yIMc82h8iqydq1h5dxvmbl0D9llnoQEe+EVEk2Qlx7ZVQlRNzSKyvmz+MUUSnKOkZGVxqEjZyizKXiYfPDxNuIYEm6tqsSiNRMQGkVCciKRfgb5bgV3Y89j78LZzF93gNNKADGJSSTExtK4VWsaOYKXNGjDYC0k83g6J48eJr2gCo/AeJLj40lMDsdXDWuUnmDDyq2cLKzkxyNRNOiCmtOvTwtCTJ7ucfpRrTfreAZpRw85640jKT6BJGe9lyzV1jTmT5pJSa87Gd7CEdbdcJl31Huitt6M/Cp0NfXGk5QUge9FY/6V6lwObV7H1mPFeHh5Y9Z74OmXQOv2KYR5edb/M5pKKWmbVrP1RAGVVvuPzu5odIE069ObFmFeNfsodcZQlHWC9JNHOZyeT6UugLjEeOKTkonwlTAuRF2RMC7Ef8tWTsHZfEotWgw+gQSpnSq5NaX41VDKycsuwSM4GB81uDb8/qeN8oJcCsqseHir67uvUTrdQohrSsK4EEIIIYQQLiInnYQQQgghhHARCeNCCCGEEEK4iIRxIYQQQgghXETCuBBCCCGEEC4iYVwIIYQQQggXkTAuhBBCCCGEi0gYF0IIIYQQwkUkjAshhBBCCOEiEsaFEEIIIYRwEQnjQgghhBBCuIiEcSGEEEIIIVxEwrgQQgghhBAuImFcCCGEEEIIF5EwLoQQQgghhItIGBdCCCGEEMJFJIwLIYQQQgjhIhLGhRBCCCGEcBGNonL+LH4xO/mHN7LjRCGVVjtXn7MaPMJb0btNFEYP6Q+5naoMtq3dz+lKC/bL21jrS3KXziQHGPDQOJ8T7qcyh52rVrLpQBZFdjPhjTvRp3drorw80V6hXa0Fx9i0YjMVzYeRmuSrrtfOF9yFWu+u1Wq9+7MorKm3I717qfV669FdXK9STtb21azbf4YqFGyKD/GdetIlOUit2Y0W+Jp6V6ntm0mRzUzY1ep1shYeY/OKLZQ3HUz3ZH9M7ta+VHJq9xpWbdpPRqENc1gjOvTqRZtoH/SXNjDl2TtYu24/pyoVFJuCd3xHenROJtikLvvOqYQQ15aE8WtKoez0cU4cW8cXr3zMmmxPmo+8ge4xpvPBTLGWqRvFFazQ3cjnfx9OmJdejebCfSiUrPsX9zw9m6NFlT8K4xq/nvzt0+cYEeeLQRrWPVUeZ8Fbr/DxssPklRZz9mwx+MXQZvA9/PXBUTQPMl5Yn0tOsGXNChZ+P48VW07T5pmveGZwNP7u1PhqvQvffpWPlx4i91y9vjG0HvI7/vrAKFoEO7dfSikHZ7/FRxsNtO3ZnoRAA5ZTW1mwJIvkm+7nxs5R+OjdIK5VnmDRJEe9BzlbclG9g+/mL2q9LUPMF7VvGlvWrmBRTfueotWTU3h6SByBRndauSs5segd/vXxEg6eLaHo7FmK8SW69SDufvQBRrcMxexZ08CUHfqBSR9vQNeyO+0TgzFaT7Nt4VIykyZw38QuxPgaJJALUQd0z6qcP4tfTIPeO5DgIB27J7/GN1vKaHLrw9zSszmNkxJISEggPj6OuIhqdm6vJrV/K/wMHhLG3YlSwJqP3mGtPYXOnTvSrnULmjdvrj6aYE5fxVZdT353UzeivfWy03JLdk4v+5CPNmto2X84Qwb0oVszX05tWsSS9fsoi+1Bj5RgTJ7O1rVUUGZVOL16CtPXnSF68O0MauI4cuoua7Va7/KP+HgTNO8/jKHOek9vWcySdfsoj+lBapNgNaxpsZ9azGtPfEZOu9u5bWQ3WibHERPpT868t/hktw9dU5sR6jhz4Hzn+slR78dqvQrN+qr1DlTrbe7HmS2LWKrWWxaTSmpKSE29NdT2Lbep7btmKt+sO03EwNsY1DTQGV7dg/30Cj75ZCP2pn0YOnQgfbo1x+/sVpYsWcfe0mi6p6ao7aZur+ynWPrvp/g8sxU33zqS7q0bER8TiV/OAt75dCfmjt1pGuqNO/S3hHA3slrVAa0pivBAD3RaHV5BkURFxxATU/uIjU+mRY8buHNYE7z0Ognibsaev5cTQeN48KE/8+Cf7ucP993HfY7H7waSZPaj7YC+JHoZcLuz2KKWvYBdhyD1pju585bxjB41hom/eYAn/jiEmKrDLFi0g4IKC+dOiGhMoSS16s6gzgk167Pbcdbb/aY7uPPmCefrfVytN7ZarXfxdvLLq2vqtR7byKoD+XiGRBFg9KgZruPhl0DjaC1Zu/eTXVGNmlvrN7Xe3Yeh28Tb1fZ11nuno96hxFqOsLCmXscAnFoaUwiJLbsxsHMi3kZ33F7bKXAU3HUit995K+NHjWLMxDt54LE/MjTeytFFi9mRV05VTQMfZ9Oag+Tpgon0N+JZ28AkNI5Cm7WXA9llVNX7BhbCPUkYrwsaLdorDSx1UEo4ddpA++6t8Jej4m5HY4yj5+iR9GyVSESQP35+fjUPr7xtbMyJo1cvdaettqtwUxojyf3HM6RTEkHO8KU1R9JuRB+a+XpSUVysBk577bQOOg881PXdy8t09XW+PnPU228cQzqq9Zouqnd4b5r56aksKsFmt9eEU43RhJF8Nv8wn31ny7A4nqzO4ODRYgIapRBh9LzieOt6xVFv37Fq+yZfVG8EbYf1prm/o95irM56azjb11ttX536X/ejwZjcl7FDOpHsGG7kKEFrJqLtMHo388dQVUyx1VY73E6dNyYD5G+dy4J9Zyipdizn1WQePEZxQDKNI0wY6n0DC+GeJIxfZ0rpLhatOK5uD73Ra2TD5m40XnGkxPvieclOycaJlUs5HtWDnoneSBZ3YxovEpsl46+/tKOsMejV9dVIUpNGmD1/3MBad12Xz9VruHR4icZgqKk3sUkyXnrPmnnhkTyA0V2DyV3zAS+++gWrj6Wz5ZtPWGbryW9+058kPyP1/tyAWm/Cleo1GvB0tq+X/sfX8WjcdlutwSuhKUn+an2XNjAGvRrUE1NI9nbUrj7nkUy/kV0IyV/HRy/9i89XHSVtyww+XW6h++130D850A0vXBXCPUgYr0tKOSc2zGH2tzOYOXMmM6Z/yXuv/Juvt5+iwqpcOPoi3JstjVVLjxGV2pNEdccm+6uGRqFkz15OmNsxamgz/Ey14bThUuvdq9ZrasvIIRfq1fi1YvzDD3NLy2q2zniLZ//yV97e4EX/u+5lYvd4fAxuOEynRm37ppnaMFyt19/c0NtXrbhkL3tPmGgzfDDN/b3Ujpf6pMaXVuP+zEO3tsa241veee6v/N9b6zH2uZN7JqaS4Geo/50tIdyUhPG6pKZtxW7DarVisViwVJZw6vBxTlXYuOhEt3BztpOrWHI0gtSejiEqsrtqcKzpLPt2B4HD7mBE6xDMbnNx5v/oXL1Db2dEmzC8zl2sqDES1XEsd9zUh+aBFexd8APz1+7ltM2AUatx352JNYPls3YQMPi2mnq93ejizP+NlYwVs9gZMIibh7cl3Ptc50ODIbIDo2+7kb4tg6nat4g5C9aw95QVT4P2irf0FEJcGxLG65K684psmUqvPn3p27cv/QaM4Ob7JtA5SO5B3XDYSF+9hCPhqfRM8pExlQ1ONRlLJzOvqjt33tKLZH9D/R8X/YtYyFg2hfmV3bj95l40uqRehcL9i5m7P5hRjz7HY3d2xT9rOZ+88CKfrctwjjF2N856K7py601qvQHGBt6+asWZy5k6v4LON99I78aBl9wfXik6wNJ5+wkY9hDPPPYbugfmsOKzl3jpszWcLK6Sg0hC1BEJ43VJo8XoG0xIaBhhYeojMpYm3ccyoXd8za2zJLY1APYM1iw5THhqL5J8GnpQ+7VRKNn/A1NW2Ohy4430SVGDS4NuYLXeA98zdbmVzhMnqvVe+kU+SuFmpr3xEds8OjFw+ATu/suzPHVXOzT75/L+mzNq7spRc1Gn21AoPfAD01ZY6TjhBvo0CXajW1L+b5TSA8yZtgJLh/FM6NuUENNF10YohWz96k0+3qqhff9hjL/rEZ556i466A6x4MO3mbH9LKXVMrhSiLogYfx680igU8dYjJ7VZJ3MpsomxxrcmT1zLUsOhpLaM6lmzKxk8YajKn0F02YdIbDHGEZ0ice3gd+KtCqjtt6A1NEM75KA3yXLsxrUt85Wg2sJcamtifTzIjCpO+P+8BgPDI2iYNMCVh8vodLmnNwNVGWsZNrsI/h1H8nwrgn4N/T1tyqDVV/N5rBvV0YO70LiZWd5lJJtfP/1Coqiu9Iq0h/voCS6jf0Df3tgKNFFW1i45jilFVbn1EKIa0nC+PWm0ePjY8SWvoQ5689SZZEw7r7sZK9dwoGwVHomyxCVhqQ6ex1ffb0ZW9N+DO1dewSxZmNZmcGx9FIs1oZ1hNDiqPcrtd6Uvgzp3YzQ8/VmqvWWqPXaqcxJ51SFAW8/vfM2jlq847oxfmxXonQVFFfY6v99xp0sOev5Wm1fa+M+avs2I+zcV72fr7eBHQG25LB++nQ2WRrRe0hvmoWanXdXqSTzeDpWiwWlMoeMUxXovX3R62rP3Gq9Yuk6bgzdoj2pKi7HJvcZF6JOSBivC0oFlVUKimKluua87aUbMFveTr55ZxaZXv7qTk2awG3Zc1i7dD8h3XuRLENUGoyq7LV8/to7zN2fT0XRcTYtnsP3s75j5vTPefP591mSUUbVZX1oi8Vas75bHeu7m+WVmnpfd9ZbfILNS9R6Z5+r9z2WpDvq1eDdtA2NfXI5vPcUldXnDoFr8VCDuSGhPW2iHPehdj5djzk6WjX17sul3NG+S+aer/etF9R6T5ZSeYX2tavta1HbV3G3PFqdzbov3uDdOXvJLS/ixOalzP1hNt/NnM7nb73A+4tPUlRhR+PThFaNfcg7sl/tdFVx7hi41kMN5oZ42rWJxmSUe0UJURc0isr5s/jF7OQfWs+GrSv5+O+vMP+YQqMx93NjhwtjEe2WEk4d2sSyfdE8/vVrjI73la8XdlP27G+4e/RnJL72GX/uGoa3XJXr9uxnN/LxP//Om19vpNAvkiDHEWJnsyrWCkqMPfnn5JcZ6xg/7lhvq7LYtWEbKz56kn/MTiN6/LP89cZ+9L34aGs9Zj+7iU+eV+v9aiMFvhEEmj3Odypr6+3B3798mXFNgjBWHmPBW//k/S1muo8ZRc9mwXBmP2uXbKKw5U3cO74D0d76el2zPXcTnz7/D7XeDeT7hKv1XviiIsVaqdabynOfv8T4puo229GxqMpm90ZH+z7FP2cfJ2LM0/zlpv70692ccPV36/2m257L5k9f4B9vTWN9ng/hgeYL35Ggdi4qSwx0f/ZzXh7fjGBTFccXTeKF9zdj6DKSET1bEKo5y4F1S9hY2JyJd4+nU6yP7K+EqAMSxq8phbJTRzmWdoIjR3Iottrx8AokyNdx1NSxAVSwW6soKSikwqc5gwe1IdQo38LprqwnfuCNr8vof+9oWgaY5A45DYBScoy1yzZxoqAK6482jRp0wS0Z1L81oeeCmLWAjKMnOXH4AGn5VXgEJdA4MZHkRpH4ucEYc6XkOOuWb+S4+tmvVu/A/q0IMztCtkJlzl42bNxDVqUHJqMBg6e6/TIE07R9G2ID6v9domrr3cTxgkqsNV87eTG13qAWDFDbN9zL2amwFpJxrLZ9T+ZVqq8n0CghkUaNI2uuIaj3uVQp4fj6FWw6nk+l5aJvFnXS6IJoMaA/rcO9akK2UnmKfRs3siezAp3JiMHgqbapgeAm7WkdF3DJBb1CiGtHwrgQ/yOl7CyZJZ6Ehvhi0MnhIvErYaukKC+vZmiDp3cAQQGOICchreGwUVmUT15xOXYPLwKCAvFSk7q0sBB1R8K4EEIIIYQQLiKH84QQQgghhHARCeNCCCGEEEK4iIRxIYQQQgghXETCuBBCCCGEEC4iYVwIIYQQQggXkTAuhBBCCCGEi0gYF0IIIYQQwkUkjAshhJ5YHc8AADRBSURBVBBCCOEiEsaFEEIIIYRwEQnjQgghhBBCuIiEcSGEEEIIIVxEwrgQQgghhBAuImFcCCGEEEIIF5EwLoQQQgghhItIGBdCCCGEEMJFJIwLIYQQQgjhIhLGhRBCCCGEcBEJ40IIIYQQQriIRlE5fxa/mJ0z+9ayO7MMi9351JVozMS260KTEAM6jfM54baU8mz2bt3G/swK9AGJdOjdmiiTp/R0GwBr4XG2rNpKRdPBdEv0xejhfKFGFZk7N3DwdMUV1ncNPgkd6ZgciMHDDVbyylPsXruaLQezKbKbCGvUgZ6prYjyVpfjiz++NY8Da1ewYV8mRTYzEc260ad7E0JMHu61vKv17lm7Rq03i0Kbo9729OzRikhv/aXb5CtM10OdLury6eq9Sk7tWceaLQfIKrRhCm1E+56ptIryQX9JIQoV2btYt/EApysVFJuCd1x7undMJsjd2lgINyJh/JpSKM7cx/5dS/h80ix2FfrTYfxw2gYbceyPFVsVxdl7WL0qkzaPf8RDqUGYL9m5C/di4fS275n63SYKgprRrmUjokIiSWoWR4BeJzsuN6aUpLF13SqWzJnHsk2naPP0NJ4eFIWf4UJwUUo38u/7n2X2oXwqLg/jGl+6P/IBz4xMwN9Yz5eEyjQWv/sanyw5wJniQs7mlqDxj6PtkLt55I8jaB5kqtl+YTvL5invMGXtCXWaHE4czaDSN4W+9z7J38a3IUTdmLlFPlXrXfLe62q9+zldVKTWUlxb7+C7ePiPI2kR7Kz3CtPhnM4xX1oEm2unq/cqSVv6Pm98vJh9p4soOptLMf7EtR3Mbx++n5EtQ9T9kKMQhbLDc3nv0w3QtDNt4oMwWs+wc+lKcpIncO+EzkT76mW7JkQd0D2rcv4sfjENBt8gggPKWffJu8zZpaXzH+5nTIcmNEpMID4+jtiYCIwn13M8cgR9G5kvOyoh3IZSwYklH/DKm99zMqQLgwb1p2enFiRGB2LWad0jlIirqy6jpNpC5orJfL32DFFD7mBwE39M59OXQuG6T3hnRSXxbdvTrlUzmjZpQkpKCsnGdNZs1dDtzol0j/XBUK/XcTtnVnzMR+stNO41iEH9e9ElxZtTmxaxZP1+KmJ7kJoSjMlTQ+H2ucw7oqdxx1R6pKphLbqSnYsWsPqQiQ4jOhPvY3SDo8VqvSs/4eP11ST3vFDv6c2La+otj02le+NgzJ5cYTofzmxR58s6dbqY7nRPUUOsZ/2PpvYzq/j04/VUJafWbKd6dWmCz5ktLF6yjn3lMXTvlkKIlyda+2mWvfk0n55sxo23jqZn28YkxEXhmzWXSZ/txrtTN5qEeqOXNC7Etec4Mi6uMetB5bUBoYqXqbPyzOZcpczqfL6GXSnZNVOZvbVEqbQ4nxJuxqac3fC+cl+/1kq32/+tLD6Ur1RZ7c7XRINgtSgWu0U5MmmkEhOYoNz+1Qklv+KiNrblKWs+fkP5fNEW5XDmGSW/oEApLCxUH7nKln+NUFoN+aeyKrNYqa7vi4UtV1n81ovK5FX7ldPlVnXrpD5Vmqlseu82pWWQjxJz8+fKkdxy9Xm7kr9/vbL5WK5SYaktyla0V3l7XJISFD5Gef/QWaXMHVYBtd2WvP2SMnnlPrVei7om19a7+f3blVbBvkrMTZ8ph86q9V5tug/uUFqH+CrRN32qHDxbVjO/6jebkrdkkvLylJXK3lNliqW2ECVz8wfKHW1CFN/oG5VPDpypbbuqtcrTPeKV5nd8oRw8c6G2qvXPKD3jOykPfn9Myat0h0YWwv1IH7dOaNBc6QiRUs6pnAKMjfvSK8VxVNz5vHArSuEWpr31HrPTExn/u7F0S/SXMxwNjc4DD40Wby8T2iutzBo90d1HMbp3G5KjQgjw98fPzw8/rwJ2bM4mJrUHSb61w9PqNY2RxD5jGdY5mWCTruaMjtYrig4j+9LcX09FYTFWux1FfcUnqT3tEgIxOovS+sYSE2IiuGVrGnnp8XSHVUBjIKG3Wm+XRmq9tWOgHfW2H9HHWW+RWq8N5SenM1DpmC82x3yp7zQYEnozZmhnGoWY8agthKj2I+jTPABDZRHFVht2RyHqsmA0QP7W+Szaf5bSmgshqsk8fJxi/yQahZtkOydEHZEwfj2V72Heov2UK974e2uvHNhFPWcnc+kXTF6RRmCvG+gZWMDBzatZuX43GUWW2p2aaDCuGMQdNN7EN0nAT3/pOGnbydUsPxZG19QkfI1uMIZa40VSi8YEGC694FhjMqBXw1lCShJmT8+aOjz0josWL1RkO7OV3aVtuOHukbQIVIOe8/l6rabeRleo14hBq3ZMUpLx8tSr2+arTGc0otcaSGychJe+dr7Ubxq8kprTKMDxuZ1POTiCt/qEMbExSec6Uh5J9B3eieC8NXz0yut8ufoYJ7d+xxfLquly6230bxSA2i8RQtQBCeN1SVGD2qp5/DDrO777djqf/fstpmzMotzqDkdUxBXZMlg5ewXHirSY7WmsX7mWtUu/5YOXnuSvT73FwsNFVNuc04pfGRvpa5ZxNKwrqUk+548gux+F0r37SDO1YcSQ5vibLwudlmLSt8/nw5dfZ1GOL3Fx4Xh71h5Vd09qvfvUeo2tGT64Gf5eVwvZtdOdVKcbNlidL2qIddsWLt3HvjQjrYYNpnmAt9rxUp/U+NF6/IM8eFNLqrfOYNLfH+PxSWvw6HE7997Uk0Q/I3IyV4i6IWG8TlmpLMwjN/csZ8/kcOLgUU6VW/mpux6K+k0p28PGHWep8mpJ716taN62E937D2dQSjkbv3mXF9+ex9GSKjWWiV8dtaO2eukRQrv1IMnHeUcOd2TNYPl3O/AffCsj24Tidcn4Ezu5B9ezcslcZs1bz759y/js35+w4kQxVe66YVPrXaHW6zfoFka0Db+s3otYM1kxawe+A9Xp2oWpHRC3bWAyV85mh98Abh7elnDvc50PDcaozoy740b6tAikfPc8tY3XcSAfjI6hOu5arhBuQMJ4XdL4ktC5D/0GDGLQ4OFMvOc2+sSY0ctWzW3ZCzJqhqMQ1pq+fXvQo0sHOnQbwMQ/3EW/sEJ2zprOyvQyOTr+K2TLXMOywyG1Q1TU8OKea7njDjLTmFfemdtu7kPjgMvvkKLBEBBHy57j+ONjjzI2qZw98z/hgzn7KSi3OqdxJ456v2J+WSduuUmtN/Bq4/zV6VZOU6fryM3qdCmB7tvZsmSu5Kv5pXS4SQ3dKUEX3SEIlKKDLF90mOBhD/LkX26nq38Wyz95mVe/WEt6SZUcSBKijkgYr1MG/MJjiIuPJz4hmebdRzOxf6Oa22G56XZcWK3YHLfm9wkiyKB1Hi3SYIrvS7/WQXgUHWJfRiVWGTz+K2Mna+0yDoU4hqj4XhJw3IdC6cG5TFtWSfsJE+nbNPgKQ200+EQ3pW3Xfoy8+ff89dEbaeeTz9aNByiprHaz4Xe19X61vIK24yfSr1nIVdrNOZ06X9qOu4F+Ta82Xf2nlB5i3tfLqWgzjon9mhF68b3hlUK2TX+bjzfZaNNvBDfe8xeefvxO2mr2Mef9t5m5PZfSatmuCVEXJIxfT9pw2ndIxOgpI+/clTYgnDAvD3RVFVSogfv8rkkTQFxsAJ46D7Ryx4FfH3sW65YdJKhrKsm+7nnUtCpj1f+3d9/hTZzp2sBv2ZYsS3LvxjbuuAIuQCBgeg8EEkgISTa97aZ92U3bhCTnJNmT3sNSkmwKLaG30JtxoZtmmm1sA+5yL5KsMt9INh32lMWXPN77d126sKX5g8fPzOiemXfewZJVp+A68E5MHhQBD+f/Zhy43BMxIydjcIQr5BIcmGW4kIFfxXo1t92JSf+k3kvLDZgkLhcJT6VEx8cbLmD3b6twStUfkyYNQuQ1Vz2EplysXrwNtcGD0DfYExqfKAyZ/ie89ux49Kjbhw27C9Gsk+LVD6Kuj2G8U10R1mycoHFV3XyGBuryZG7JGNTXG/KqMzhZa7ziMegCzGYLHHzi0SdUKYZy9vjfiaU8G9tOemPg4ChJDlExlufgt9/2whA5DBNGJMDfpWMWEX0pzp5vhtF04zOiMqUGGqU74ntHS2R2kXbWepf+ugd6sd7xw8V6VTeu96rlRiRetVzR+aab/l26HGMF9iz9DXt04UifMByJ/iq0P69Ij9Ki8zAZTRDEms6Vt8JZY52qtf3qrYMmDLdPvwuDQhyha2gV93ESqZdIYhjGO4PQiladGMQFAwziv9ckcpIyp54Y84cpSHLKw+btBWgymNvbqytA7kkj4iZPx+1B1vsCbEuTxBmtIUUwif9ee2B9JQsqsrfhhOcADI6S3hCVNvFA4pcvZmPNsRoYWs7j4LYNWLtmNVYu/QXffjgXW0qaYbCYUHN6L7IO5KNaf/Em9DaU52zBcfVwTB/TC+4qacx71yYG7F++/LutXn3LORzavgHrrqq3CXqxwH+63EdzsVlcTieFCwJt5chZ8CVmrzkq9q4F5w/twIZ1a7B65VL88u1HmLu5GI1iITJNLyRFu6K24AQqdQZcPAfuIHeCg3MYknv3gFLJuQ2JOoPM+uSfjp/pX2ZB1YlsHD7yOz599SvsKFei35Nv49kJgzB4RB/06Hh4BEmb0HQG6795D19nKjHigXsxNMIJpfvWY9Mpd4x76klMSPCBkmfGpc1QhqN7D2Hn/DfwHyuKEHLPu3h1xggMHxoHPzGQXLUdW8qx/Om78X3w+5j34mD0cJPOGWKLdh9+/K938cXCHNS6B8FHfbk2waxDo3wQ3vnpI0zrZUHmf72AL3J08I3vh9TYQLi01UOrbYE6aQKmjU26fNa4C7No9+PHD97FlwuzUesWCG/rY+A7PrtY79s/foC7/Yrx60c3W04vLjcQb/3jA0yP94WqK486tGix/6cP8d4XC5BV64ZAL9Xlq3aCGfpGOW576wd8ND0BPi56FPz+Ff427xDUt0/BpPR4+Mq0OJ29BVlVMZj+5D0Y0NMNzl29yUQSxDB+SwlouHAaxSUFyDtdjmYToPQJR3R4BKITesJbIeW5eOkyAYbKY8jYvg9FBjW83F3gYAFco/phUEIgVE68QVfyjHUoyS9C4anjKKoxQO4TiV5RUejVqwfcr92OTUVY+/liNA5/AlP6+Nx8arwuSGgqQMambBTU3eimYxkcfftgwthkBKjaULBpEZbtzEOF2RPBYT0RGuQNT78Y9E2Ogq9KGicabPVuzkZhrR7GG9Xr0wfjx4n1Ws4h879bTvy7BGoUXbtuoQmFu7cgu6AGOuP1z7eQOfqg97ixSA7S2EK2oCvHsewsHLnQBoXGBUrrQ60EOXzi+iE53PrQHyZxos7AME70f2VqgbZSi2azAu6+fnBXOnIu3n9HQguqzjdC7ieuA87deB0wtaK2WosGvQWOCjU8fLzgaj0w4TrfzZihr9dC26CD2UkNL18vaHgiiahTMYwTEREREdkJrzkREREREdkJwzgRERERkZ0wjBMRERER2QnDOBERERGRnTCMExERERHZCcM4EREREZGdMIwTEREREdkJwzgRERERkZ0wjBMRERER2QnDOBERERGRnTCMExERERHZCcM4EREREZGdMIwTEREREdkJwzgRERERkZ0wjBMRERER2QnDOBERERGRnTCMExERERHZiUwQdfxMncICfc15FBZdgLZRD7NcA9/QaESHeMLZUI7SZj8EejvBkYdF0mWpwcGVK3DcfTjuTg+HRuHY8QFJlr4Sx7J34+DpcjRaVPCLSsGQ2xMRqJbDQdaxzBVM9UU4uPsQdLGjcVu4G5ROHR9IhVjv8exMHDhddqnewWK9QTeqV2hC0cFDOFunh8nS/pZMEYCEAfEIUMkhibXfWm9OptjfMjSYXdrrHST2V6OA4w36286C2tw1WHVcjdsnD0akuwuk02Y9Ko/nIOvgaZQ2mOHiG4mUwbcjMUgDxVUFC9CVH0PO3lOoMggQzAI0ockYmBoJLxcnnr0j6iQM452oreoItqxeh4zTLdAEBMDXQyN+Sctg0jejUecED6dz0Ib9Pzw71hcqxU2/AahLs6Aq80u89PI8FA/5HMtmjYS/qxzspoTpi7F17uf4fvMJVDTUo1rbDEevcKROeAz/75mJiPNSQtyMbYTmEhwSQ/u29b9j254yJL3xC94cGwwPZwmtAfoSbLPWuyUP5fX10Ir1OniFifU+jhefnoB4bzF0XlGOqXgFZr06F1nnG9FmsX59OMC9/x/x6Tt3iX8bVdcP49Z6532BHzYft9Vr7a/M01rvY3hR7G/CNfVeZKnOwexXXsOc/DT8beGbGBvqCWm0WY+S7fPx5febcby8DnXVNWiWeSAsdTweffEZTEzwgcpWsICW/A2Y92M2zNGpSOrpBaWpCkd3ZEMbMw2P3d0Pwa4KBnKiTsDtqlMI0BVtwZz3/gNfrSuCMjIFt92ejvT0oRhy+wCk9Y5DhEctMpcuw7a8chjMHaeXSHLMFbux8OdVyD5WjIp6Pcw8tpU48eAqaxlWn5IjYcIDePK5l/DSE+MQ2rAfK+d+gjkbC9FkMHcsKxKc4OLtD0X1URzIO4uqFhNs+VQyLtbrhPhx91+ut/EAVs39GHPFehv1V9bbgEOrNqJEFYKYxN7o06eP+ErGbQMS4KeUQlCzoDp7OdacckScWO8TtnrHI6z5IFbP+wRzNxSg4cp6LzJXInvJAqzKOowiMdDqxX22VNpsqc7GijWn4BA7Fvc9/hxeeulxjA9vwaHV8/HpnA3Ir9fBVrGlCpkL/o7VRW7oOzAdw9PTMXT4aIyMbMD2f/yMzfn10N3gT0NE/zqG8U4gNBzGks8+wDfraxB39+N4/MEpGDmwL+JjIhEZHY++g0Zh0rQZuHdMPByb6mCW1rc3XWQqw86FK3HePxw+8hsPXyCJsdTjaF4b+t37KJ589AHMuPc+PPz0S/jrH8egR+txrN2Yizqd8VIQk6n8EZMyHHcMioDGWWpjU0TWek+0Ie2eR/DEYw/gXrHeh57+M97441j00J0Q6z2EWl3bpXpN57Zj5clA3Pn483j51VfxqvX12st4ZlIivF2cuv4VoY56U6eL9Yr9ba/X2t+xCNafwDqx3pqWy/W2M6F89xKsOueFYC9nKG502rzLsqD+6Em0pdyNh594FA/OuBf3PfQ0XvrrMxgbasDJ9RtxqKYFBmvB5kLk7DwOrSIQIV4ukFuHrzh5ICo+FA7njuD4BXE5E7+riDoDw/gtZ8CZNbMxe+l+yG57GI9MTEaQ+vqxdo6ukRj+0OMYHamEgl2QICPOb1uAtZW9cMfY3vDjeMruQaZAz6F3YdLAaPi4ONrCpYM6BP2njES8uwKttfUwXnkly9EJTjIHaDQqOEjxaMxW71RMGhQD34512EEdjH53jkSCtd66epgungUWmpC7cgE25R5B1rYM5BY1Q+kfgrCwMAS4yf/JWOsuRKw3NH0q7hD766u6pl4PZ+is9VrMV4Vx44UdWLy2HBFjRqF3oBrSGlEog6LnEEy5YxBi/FRwai8YwWl3YkSCJ5x1dWgwmjuu5iigkAN1Bzdgy0ktmo3WN9tQml+EJo8wRPqL31WSaDKR9DA/3Gq6o1j1yyacrPfGgElDEe568xuCFMFDcfeoKKiYxiWnrWQLFvxej4TJE5EWpIKcLeweZBpE94mFp7P8qp2jg8oFSpkSEb0ioZZffwbcQSbRkGKtt/dN6nUQ640R90/y9nsghIY8ZOw5h/riDCyc8xnef/t1/PVv/8DOwgYYzBI5Y2qrtxe8rhlS4+CitNUbHmPt7xX3fLSdw/bFG1HTaxzGpYXAzVlqN2fLoInqjV5e15z0cXCBi7MDlOExiFArILcW7BSJERP7wVubgfmffIEFuwtx7tAq/Lxdj/4z/4DR0Z4Qj9eIqBMwQtxipuIs7MirQ5usJxKTPCG/9pKmoEPNhXMoLi5CUXENzOYmnD9fjhqdBRxuLBH6s9i4YDNa+k7C+ORA8cvb4fKXN3VDAprz8lDs0gd3jIuHm0t3v0H3Yr29bfW6qzrqlftj0B9ex3sfvouXHxyKkJZcrPnuM7z70QLsK2+B7USqJIn1njiBEmVvTBybAA8xnLb3V4/iLYuxpSke48ekdqubF4XmEzhR4oykCWOR4Nlxtl/mgb7Tnsez98RDt3cJvn7vDcz6Zhdw2wN4cuZQRHoopTFTDpEEMYzfYubSYlzQmWBxdIWHq+MNpgXTo74sHzmLP8Ws11/FK2/NxvrDxajRW8DbOKVAh4LfF2KHMRV3ju1jm8qtewczgukCdqw4BPdxD+LOFH/x4Kubd1ysd+fKXLiNeQCTxXo1HfXK1OEYOOEuzHzkKTz30ut45/1ZeCTZgqOr52D+hjOol+rdfWK9u8R6XUfPxKTUy/3VFW7C4p16JI0fg749xMDabb4tTSjNWI1c11G4b1KqbTrHjg5DGTIQ0x+ZgeHxnmg+tAbL1mWjoEkOtXVID9MCUafh5nWrOYgB3PqvuRVNLTc42y1TwTs0AtHqcmSuX43VBxvhGxIIbxcH3gDY5QloPb0OizKB/pPHINHvxlOgUXdiROnORVjf1A8PPjACMR7O0hgb/X8m1rtrsVhvKu6/X6zXU3mDep2g9o9B/wl/wPOvPIFhXuXYtXEfKlsMEjyhYK13CdY3pmDmzBGI9WrfpoXWM9jwaybMfcdjVO8AqLrRODRjaQaWrG9A8oz7MDLWCy5X7MSEhtPI2H4WvhOfw+t/non+bhew5fuP8Okv2Tjf2MYTRkSdhGH8FnOyjsHTyOFgOou8k80wXTuWUuYMj4BwJPWOgIfCAY4BMegbGQRPJYc6dH16HF4+D0t37Mba2W/jLy8+h2effRbPzVqMI/WtqMychzf+8jLm7K5Bq3Sv2dMlAppPr8eirS3oO30mRsf52J4T0H1Z6/0di8V6+0y7D6Pjfa8KateRqdFzyL2YNjAIxupS1LUZJRbWrPVuwJJtzeh99wyMive7VK/h6Cp8v2wHMtbOwX++/CKeF7fzZ597EwsPadFUmYMf3n4Vr8zegZomg215qRCarQcZ29CUOBX3jkqA75VX9oQG5C77FvMy29B71BTc/8yreOu1B9HHchSr5nyD5Yer0cL9GlGnYBi/xRx7DMUdAwOhcqxE1vpsVOhu/AUlcxSDuLgblDk62s7EdOev+O5E0EQhOdYNbfVaVFZUoML60jbDYBFg0TdCW1WNulYzx/93A4YLu/HbqhNQDZiCKYMj4O7cPrtKd2Wtd6lYr0v/O3Hn4Eh4/E/qlQciJsoX7j5eUDtJ6+9jKM3E0tV5UKZNxuTBUfBUXv7/C4IGEX1j4GZqRE1VZft2XiEGcYMZFosejdpqVNe1SmtaWkMpMpetxgnnVEy6czCir3h4lZXQnIvVizajJngQUkI84OoTg6H3PodX/zQWQTU5+D3jLJo40ThRp2AYv9UUUZjw9MMYHu6M0i3fY2FWKVqNvLjXPSiQMOV5vPL6LMyadfn15vMTEOumhFfKdLz4yl8wI82jm59B7f6MFXuw7LcctIQNwx2jEuHv0jHbiL4URReaYepm8y0bK/Zi+dIcNIelY+LI6+s13qxeSwPKKuXom54Gf5WzZL5QLtUbmo4JI5Ns936011uGYrFeh+g78Kc/v37Vdj7rzRdwR7wn1N59cdezf8ZfZg6w3ewpCcYK7FuxFDlNIRg8YSSSAtQdM0DpUVZ8ASajCYLuAopLW+Hs6glnx/YDEwfXcKTfczcGBTuitb4FZhO/y4g6g1T2nRLihMBBD+GVlx/HCPdTWPzZJ/huw2GUNV+cy9XKiIa6JtujpGUOHJ4iHY7wCI1DYm/rUweveMX1gJuTI5y9eiIuMRHh3go4csuSrLbyHCz4YjZWHa2Fua0MuTs2Yf26tVi9fCHmfDIfW0taYLgmkxitYUYwiaFG3MglltPbyvdg4ZffYtWRGpgM5Ti8cxN+t9a7or3eLSXWKz9mVBxcgyXLNuNIqRjOrfWLQTx/6xLsEtIxY0w8vFQSeOiPqE080Fr0ldjfw1oYDWU4suvKeudhc7G4b3YLQWxC0tXbeZ84BLsr4KTwRGhcAhLCfaCwTdzdxbVVYO+irzF71WFojQaUH96Fzb+vw9rVK7BozqeYv7kYjTozZJoYJEZpUFt4EpW6tvancoocFHI4KcPQN6kHlErOp0LUGWSCqONnuoUszSXYv+13rN+4ByVmNwT0CEGQrwfUcgFtrfWoKjyGo5VqxE9+Cn+Z1qfbXwLvzizn52HawNdwYuIP2PbxBAS5XZydgKTGUnMAP3/wLj7/JQt1nsHwUV9+mI3F1IoGx9vw9s8fY5r1xjdrDhPD6/H9udg1/694e1kRQma8h9dmDMfQIbHwU3b9B0HZ6v3wPbHeTNR5XF9vo+MAzPrxI0yPc8OZeY/jhZ+LoYlJQ7/4QKgcrDNAqRDcbzwmDAz/nw1rsTNLzUH88lF7vbXuPW5Y75v/+BDT432hujZ3Wi7gh5nD8Prhofj6948wOdwbyq5fMA4u+Bjvf/4zdte4I8hHffnBPRYTWhsd0f+NH/DRPQnwddEjf93neP+7o/CwPhhpSDx8ZVqcztmM3aWRuPupGRgY5gZnnmgguuUYxjuToEP12ZM4mV+CikYzFC4qODsKMBp0MDq4wi80ErG9wtuf9NfVd+p0U0JzHjYsy0FdzxGYcntPqBU8eyRVQuMZbP99N/Jr9TBdNx5YBke/FEyemIpAdcec08ZaFJ8uRP6JYzir1cPJNxpx0eIrPgQe4nrQ1Tfri/UWiPUab1LvJLHeILUjtLmr8OvqLJysEuAVEo6w0BCExaeif0IPuEqgViuhMR87Noj9rRH3wTeq1ze5vV7NDYbcCM04uXklcrQ9kD5pEMLdJDDvttCI/J0bsfuMFjpjx5NUryBz9EXyHROQ2sPVFrIFXRkO796NI6VGKF3VcBEPsASTI3ziByA10jrzCpM4UWdgGCciov8BE1q0lahubIOD0g0+ftYnMnKYXfdjhq6uGtqGVpidNPD29YaGV26JOhXDOBERERGRnfCaExERERGRnTCMExERERHZCcM4EREREZGdMIwTEREREdkJwzgRERERkZ0wjBMRERER2QnDOBERERGRnTCMExERERHZCcM4EREREZGdMIwTEREREdkJwzgRERERkZ0wjBMRERER2QnDOBERERGRnTCMExERERHZCcM4EREREZGdMIwTEREREdkJwzgRERERkZ0wjBMRERER2YlMEHX8TP8yC7Sn9yKvtAVGi4D2v6wMDgo/xA6IR6DSAfX5+3H8fDPabJ9bF7B+7oOYfonooXLi0ZEUGEpxdF8+qg0mWK7dfBxcEZ6agnB3BRxlHe+R9OgrkbcnG4fOVKBRcIFfZDJuHxiPAJUcDlf2VdCh/Nge7D9TjTbxV7OgRmjyQKSEe8JZSiuAqRZn9mRi/6lSNJhd4N9rANJvi4a38gb7JKEZxbm5KKozwCTux6xkigDE949FgIv497G908UZqnDC1t9yNFpc4BvRF4MGJiBQfX1/K47txT5bfwVbf0P63ib21wtKJylt4CbUntmLrP0ncaHBDBf/Xug/ZACifVwgv77BaC45jMNFtdAbLeJvIpkC/nH9EBuggsLRthAR3UIM47eUBfXnjiHvyA4snr8WR+tkCB/7KGaOTENKSiR8nB3QdD4Pecd24df5K5GrtSB4+MN4YOwApKRGwVfpyDDe5YlfVPu+xnP/sRoF9Xqx41eTuQ3CS3NmYWKoG5wZxqVJX4Lt332FHzYdQ1ldHaprWuDkHYl+dzyGF54ch1hPZfuBltCC/A3z8GO2BdEpCQj2VMBUdQwZe+sRf+8TmJoSCLVcAiuBWYtDv87Dwox8lFWWouhsGUyeCRj91Gv485QkeLs44coqTCWr8M5rc5F1oRFttg3AAW5pT+Hjt+9CnJcKXT6rGc5hx/df4x8bj6LU1t9mOHhFoN+ER/H8k+MR5+0CW84WWlGwcT5+yjYhom88QjydYao+jt376hE77VFMTQ2CRiGFPbYZ2tyl+G7hLpwurUBpcRHKjR6IG/UEXn1pKvr4qtrrvch0Dmv+86+Ym1mCekP7Hs7BLRVPfjgLdyX4Qs0wTnTLMfvdUg7wCE1C6oAkqCsP48D+IsgiU5CSHCUGcUfxC00Gt5B4pAxIhkftERzYdwam0GTx82j4MYhLg1CPAxt2oVIThr4D0zF02DAMs73SEWkpQn6rxnZQxe8rqbKgOns5Vh0XA/aoe/HIM8/juYdHIrA2B0tnf4y5m86i0WBuX7IqEz9/sxyF7ikYPHwkRgwbgVFjRqBn9UbM+2kLzjbqxRjU1QloOLoTWZXuSBw+FQ88/gz+eF8/yPM34+dvl+NgbSuMV56uERpxePUGFMoD0TM6DnFx1pe4T0uNg5+zQgL7MAHVOSuw+pgZESOm4+Gnn8OzD41CcP0+LJ/zidjfQjToL/f3l9nLke/aB4PE/g4f3t7fMO0mfPfzFhQ0SKG/YsUNx7AruwKu8cMw5YHH8cwz96G/cyG2/jIbyw9o0dx2VYPReGQtNhY6wi80uqO/cYhPSUWcnwskcexBJEXWM+N0i5kKhC/G+glql2Th9axqocXU8f5F5jJh/tQAQaOKFV7YXCk0Gzvepy7PXJMpzP94nrBuz0nhfKVWqKmtFWqtr+r9wicTE4Qx7+4WysWGWjqWJ4kx1whbv3xP+GHbcaGitb2P5qYSIfPLGUK8p0YIfXCBUFirs71vyHxTuK1HvPDo4rNCre5ixw1C5psDheD+Lwm/n6sXDF1+RbAItccyhKwz1UKr0Wx7x1R/RPh8Srjg5X+XMFd8v+WKGkwlq4S/PjlLWJSRK5zILxAKCqyvs0JZfZtg6vK1iiy1wrav3xf+sfWoUN5iFKwVm5vOCVlfzxQSfVyF0Pt/Es5oW239bct6SxgcmiA8siBf0LZe7m/WW4OFnv1fFNYW1Qp6CdRsqT0u7M4+LVS1tNnqFRssHPnyLiHKJ0CYOvukUNl8ZYPPCWtmPSPMWrBTOJh3pqO/BcLZMnFdNrWvH0R06/E4t1M4wME28FD8V3ajy9TW9y/+e6PPqauSyf0x4M7pGJ3aC8F+3vDy9ISn+HJtOIy9pcFIHxYFV9tVEJIkmRzBQ6bizttj4NsxPMNBE4rb7hqFBHcFWmrqYDS3X7qXyeWQowYHNmzF6VodTNYTjG2lKChqhmd4BHydnSRw34AMmpgBGBDlDRen9q8DR/dwhPmr4J2QiAiVQqyxg9CEw6t+wcYjedi3OwfHz+mgCghFeGQ4At3lErlHQo4eg6di0u294Ndxj46DJgQDpo5CooczWmqt/TW3j5MW++sk1OLgRrG/NS3tVwiMZSgoboZ7mNhfpTRqlrlGo3//aPhY73ewvuHojoiwAKi9E5AQoYLicoPRdGQNFm7MxfH9u7Hn+Dm0uPgjVFyXwwPdoXBkXCDqLNy6iP4XZK5RSIr2gOKqQZZmnNu1Ffn+gzE0ylVaN+7R1WSu6JUcDy/nq29EdFCroHRwRnh0BFRyJ9t7jlEjcEeaB8q2zsbHXy1GTnEpclf9hG2GAXjgD6MQ5a6UxHAlucJ6s/HlddaszUVeS29Me2wyentdHk8sNJzAruwS1J3dgV++/RTvvfMGZn30MzLONqBNCuM1rGQa9OobB2/l1UNqHFTW/io7+iu3HYQ5Rg7HxDRPVOyYK/Z3CbKLziN39c/YrkvDzAdHIcbDBe1rQhfnpBCDtHWQZAezFrl5zUi462FM6uN9+b4GoREnxYOs4tqz2Lng7/j0/Xfw5qwP8dOuQtQbOg5QiKhTOL4j6viZbhWhHvsWf49txQpEDx2IUDShTluN6uqLrws4uG4JMkrUSLvvYYwIU3MsnpSZz2H1p7NRnPIUHh0aDldnB54Z71YENB/6DX/faMaYPz2K4dFeUFrDjdIXwQFy1B7bid+3H0J+ST7yK93Q/64HcM+I2OtufOzyjE24cHwXln/3DZaf8cfIeyYipYeruG/qqMJkgKAJR58BKYgLcELtyUxs3XUIBbVqxKTEItBVqjMIif3NXYo5m4wY9dTDGN7LBy7iEYitv4Fy1OXtwsYdB3CmqEDsryvSptyP6SPj4KuSWH9hRFNpHjJWfI9vl52G7/BpmJgaDHfFxSt5ZhgsGoT17o/UuEDI604ha1sGDuXXQhWVjLhAnmgg6iwM453hYhgvEuAbFQLnxgqUnj+P85deJTiWtQNHq1zRbybDuNSZz6/Bp7MLkfLUYxga7gbnq+ZGI8kzlWLLN/NxLOIB/PGeNAS7dkx/J5PDIzQKgabTOHAwD4ey96GwLQSDJozGAOvUd5IKLgJqTmVg28Y1WLRoPQ6XalFZI0No3ySEuDvbzo7LFF4I7ZWAPqlpSOmTiPhePeBYkoPNOw+jOTQdQ+P8oLp+nryuT+zvtm+/x9GwGXhqen+Euiku9dc9JBKBxnwcOJSH3Jz9Yn97YOD49v5eHNYjFULtaWRu24jVixdhfe55VFfUQBbSG4khHlBaa5Ep4BkSg4Q+qUhLEd+P74UeTuexZ/NOHG4KweAhcfDTSOEmXSLpYRjvDJfOjLthwIMPYWxSGEKCAhEY2PEKcEVF5irkXOCZcekz48K6z/BtQTKeemwowt2cO+4HoO7BiLKd32H+fi9MfmwGBoW5X3F2UEDj6S1YmdmImNETkOJRg7x9e3H0bANUUX0RG6ixDQ+QCqO+BYI6ABHRQRDO5mDH7sOoCx6GUUn+10zh5wCFxgch0fGICzLh1I5NyGmMxZQxCfBRtw/xkA6xv7t+wHcHPDDh4XsxONzzioMoa3+3YmVWA6JGjkOKZx1OdvTXJbKP2F+JnSk26tAiqOEfHoUgoRh7d2bicG0PpI/sbbuqcVWHFRr4BEcjPjYI5jM7sTmnATGTRiHRT1ynpdVgIklgBOxMMhUCYpORmtYP/fpd8Urrg54eTgxt3YGlDJlbTsLn9nREu3bMP03dhICWMxuxZEsjEqfdjzEJ7cMXLhIacvHbV3OQYUjGuOkP4dnX3sIrM+Oh378U33y9Ascu3tQpCTK4h/ZG/6Hjcc+jL+C1P09HH40We7NPoElvFP8SN+CgQVj6fZg2MBDGqguobTNeN+9+1yb2N38Tft3agPip92FMoi9UV8wLLzQcxrJv5yJD1xtj77b2dxZeuT8RbYeW49tvVuBIzTXTPnZxMrdQJPVLx/jpj+D5V1/C9GRX1OzLxonGVlw1u+ElDtCEDcGMuwehh6kaF+raYJTKvQFEEsMwTvQvsJRnYcsJb9w+NIazqHQzbaVZWLrqGORpU3BXeiQ8ruqvdRz5Cvy8sQY9h/ZDqLsavnGj8MALr+GZUb6oyFiLjOJmdExZLS1yL8SPnYr0cA0czUax1H+SOBVBiI3yg7u3F1SO0lr/28qysXz1MTglT8LUIdHwUl45Blzs7+GVWLChGiGD0xDqoYFv7Ejc//yreGa0P6oy12F3USN0kgyncnjFj8GUIRFwk1tsBxQ377ACgb2i4OvuAy/r7DNMDESdgptWp7j4qHvx3/Y3rtP+/s0/JymwoCJrC/K8BmFojCucr5phhaTMWLkPK5ZmoTEkHZNGJ8H/4mPeDWUoLm2ByWyB7vxZXGh1gYe386WpTN2ihmPm9EEIQhNqmk0wS3QDl7m4w03lhrikKKgU/2ToidCI8mo5+qSnIkAt/h063u7qjJX7sXJZFuqDBmPi6N7i//1if8tRUtoMo8na3yJbf929xLpsl7wc4Bo5DPdNG4hgh2bUNIn9ldalgMtkYl1uKrjFJiJKrcDNHxQroLG8CvLeg5ESoIaSiYGoU3DT6gxCK3R6ayA3QK+zXH9iSWhBq0783NIGg+EGn5M0WCqRveU4PAYNRYxr+01uJH1tFXux+KvZWHG4FoK5Csd2b8WmDeuxbtUSzP/sO2wtaYbBLIM6OkEMMjUoOFkFw6Xr905QKhVwCeuLpEAlFF1+bkMzavMPYG9uIbR6U8cwkzZU7NuGEy7DMG1MLNxdrBP4mVGZux5LV27FsbIWGK0LWhpRsP037LIMxr1j4m1nTqWwCbRV7MOv3/wdKw5pYRH7ezxz2+X+fv4dthQ3QW8R+xuVgEhNLQpPVUF/ae7Gjv72FPsb5CIegHe83YWZ6wpwcO9hFGp1EI8xbNrEg5HtJ5QYMnU0Yj3VtrnkzVW52LBsJbYeLUWT2GBBXBsaC3dgaYYZA6ePRoKPuBz3cUSdgjdw3lIWaM/sw96MtVjyWwby63WAawB8nORwD/aBRtxx1xWIX3y71+LXX3fgVI0OgmsgfBVOcAvyhaucU+JJiaVyC7786jgSHn8Mw8KvvLGPpEqoOYhFn/0XPvtxKwrqtCjIzUFmxi7s2iW+dm7H9pNqDJ8xDol+arh4+UHddAp79p6FTuECJ3MTyk7sxoYdxfAYNgPTBkfCW9nFh24Itcie9y4+W7QZ+0+fR3lpEfIO5GDP0ToEDL8HUwdHwNNWgwmFqz/Au39fi+xjBSguPC4GvIM4USYgYsQUjO0bBI0E9l9C7SEs+fwDsb9bkF+rRWHunmv664L0e8YiyV8DlZcv1M2nsXffWbTKxYNtSzPKT2SK/S2C29DpuHtIFHyuGtrSFQmozfkOf/t8ITbtPYVzZRdQdOIgcvYeRZ3/UEybMgRR3uK6KxZhKlyLj96fg9WZR1FQVIC8g3txMK8UQvgw3Dm6L3q4SXXqSqKuj2H8lhLQ1tKA1jYneEX2Q/qooUiJCUfPHoEICPCC2skBJvHzZr0MHhFpGCJ+nhYbgbAeAQgI9LZ9zn2ddJirTuF4cwzGTUpDiKZjujuSNmMjquod0TN1EPon90bvpEQkJra/knqn4LbREzHhNjGgOjvCQeGNsKie8FaYYGhrg76lWdz2AVVof4wfOwBhHs4SCC8m6OuqUV3fZNsvKZRquHt6Iyg+HWOHJ14eviGyBvI2gwF6vQmOKg/4BoYipv9IjEoLg7tU7pdoa+9vaPLAG/d31ERMHBhhGz9u7W9Psb++zmYYjMaO/gpwCU3DuDEDEO4hjRu2zfp6VGnr0dikh0w8aFS7ecI7KA5DxgxDUpDm8kxeYi1mcT026HUwOarg4ROIkF79MXJkP4R7Knnlj6gTyazPxO/4mYj+FyxNFShpkCMw0DodGkd8/dsy61BbVYX6FjPkbr7w97EGHAklF1MLtJXi/19ngaOzBl6+Prabka8vwYTm6gpUNxogU4ph3M/TNq94t89oV/XXB37eUnv4jQkt2krxgEsHs6MzNJ6+8HZzhtMN1lFTixYVVQ0wyJRw9/WDl/UR+t2+wUT2xzBORERERGQnPJ1HRERERGQnDONERERERHbCME5EREREZCcM40REREREdsIwTkRERERkJwzjRERERER2wjBORERERGQnDONERERERHbCME5EREREZCcM40REREREdsIwTkRERERkJwzjRERERER2wjBORERERGQnDONERERERHbCME5EREREZCcyQdTx8y3z1ltvobW1teM3IiIiIvp388orr8DPz6/jN7qZTgnjs2fPhk6n6/iNiIiIiP7dPPLII/Dy8ur4jW6mU8I4ERERERH99zhmnIiIiIjIThjGiYiIiIjshGGciIiIiMhOGMaJiIiIiOyEYZyIiIiIyE4YxomIiIiI7IRhnIiIiIjIThjGiYiIiIjshGGciIiIiMhOGMaJiIiIiOyEYZyIiIiIyE4YxomIiIiI7IRhnIiIiIjIThjGiYiIiIjshGGciIiIiMhOGMaJiIiIiOyEYZyIiIiIyE4YxomIiIiI7IRhnIiIiIjIThjGiYiIiIjsAvj/IcMJufcfKKAAAAAASUVORK5CYII=;" parent="1" vertex="1">
          <mxGeometry x="770" y="4940" width="455.68" height="460" as="geometry" />
        </mxCell>
        <mxCell id="4cucYftqtRLUNSPELrtI-2" value="0&lt;span style=&quot;white-space: pre;&quot;&gt; &lt;/span&gt;5&lt;br&gt;A&lt;br&gt;0&lt;span style=&quot;white-space: pre;&quot;&gt; &lt;/span&gt;5&lt;span style=&quot;white-space: pre;&quot;&gt; &lt;/span&gt;5" style="whiteSpace=wrap;html=1;aspect=fixed;fillColor=#f8cecc;strokeColor=#b85450;" parent="1" vertex="1">
          <mxGeometry x="150" y="5070" width="80" height="80" as="geometry" />
        </mxCell>
        <mxCell id="4cucYftqtRLUNSPELrtI-3" value="5&lt;span style=&quot;white-space: pre;&quot;&gt; &lt;/span&gt;12&lt;br&gt;B&lt;br&gt;5&lt;span style=&quot;white-space: pre;&quot;&gt; &lt;/span&gt;7&lt;span style=&quot;white-space: pre;&quot;&gt; &lt;/span&gt;12" style="whiteSpace=wrap;html=1;aspect=fixed;fillColor=#f8cecc;strokeColor=#b85450;" parent="1" vertex="1">
          <mxGeometry x="280" y="5070" width="80" height="80" as="geometry" />
        </mxCell>
        <mxCell id="4cucYftqtRLUNSPELrtI-4" value="" style="endArrow=classic;html=1;rounded=0;" parent="1" edge="1">
          <mxGeometry width="50" height="50" relative="1" as="geometry">
            <mxPoint x="360" y="5100" as="sourcePoint" />
            <mxPoint x="410" y="5050" as="targetPoint" />
          </mxGeometry>
        </mxCell>
        <mxCell id="4cucYftqtRLUNSPELrtI-5" value="" style="endArrow=classic;html=1;rounded=0;exitX=1;exitY=0.5;exitDx=0;exitDy=0;entryX=0;entryY=0.5;entryDx=0;entryDy=0;" parent="1" source="4cucYftqtRLUNSPELrtI-2" target="4cucYftqtRLUNSPELrtI-3" edge="1">
          <mxGeometry width="50" height="50" relative="1" as="geometry">
            <mxPoint x="610" y="5260" as="sourcePoint" />
            <mxPoint x="660" y="5210" as="targetPoint" />
          </mxGeometry>
        </mxCell>
        <mxCell id="4cucYftqtRLUNSPELrtI-6" value="12&lt;span style=&quot;white-space: pre;&quot;&gt; &lt;/span&gt;21&lt;br&gt;C&lt;br&gt;12&lt;span style=&quot;white-space: pre;&quot;&gt; &lt;/span&gt;9&lt;span style=&quot;white-space: pre;&quot;&gt; &lt;/span&gt;21" style="whiteSpace=wrap;html=1;aspect=fixed;fillColor=#f8cecc;strokeColor=#b85450;" parent="1" vertex="1">
          <mxGeometry x="410" y="5010" width="80" height="80" as="geometry" />
        </mxCell>
        <mxCell id="4cucYftqtRLUNSPELrtI-7" value="12&lt;span style=&quot;white-space: pre;&quot;&gt; &lt;/span&gt;17&lt;br&gt;5&lt;span style=&quot;white-space: pre;&quot;&gt; &lt;/span&gt;D&lt;br&gt;17&lt;span style=&quot;white-space: pre;&quot;&gt; &lt;/span&gt;5&lt;span style=&quot;white-space: pre;&quot;&gt; &lt;/span&gt;21" style="whiteSpace=wrap;html=1;aspect=fixed;" parent="1" vertex="1">
          <mxGeometry x="410" y="5140" width="80" height="80" as="geometry" />
        </mxCell>
        <mxCell id="4cucYftqtRLUNSPELrtI-8" value="" style="endArrow=classic;html=1;rounded=0;entryX=0;entryY=0.5;entryDx=0;entryDy=0;" parent="1" source="4cucYftqtRLUNSPELrtI-3" target="4cucYftqtRLUNSPELrtI-7" edge="1">
          <mxGeometry width="50" height="50" relative="1" as="geometry">
            <mxPoint x="550" y="5230" as="sourcePoint" />
            <mxPoint x="600" y="5180" as="targetPoint" />
          </mxGeometry>
        </mxCell>
        <mxCell id="4cucYftqtRLUNSPELrtI-9" value="21&lt;span style=&quot;white-space: pre;&quot;&gt; &lt;/span&gt;28&lt;br&gt;E&lt;br&gt;21&lt;span style=&quot;white-space: pre;&quot;&gt; &lt;/span&gt;7&lt;span style=&quot;white-space: pre;&quot;&gt; &lt;/span&gt;28" style="whiteSpace=wrap;html=1;aspect=fixed;fillColor=#f8cecc;strokeColor=#b85450;" parent="1" vertex="1">
          <mxGeometry x="540" y="5070" width="80" height="80" as="geometry" />
        </mxCell>
        <mxCell id="4cucYftqtRLUNSPELrtI-10" value="" style="endArrow=classic;html=1;rounded=0;exitX=1;exitY=0.5;exitDx=0;exitDy=0;entryX=0;entryY=0.5;entryDx=0;entryDy=0;" parent="1" source="4cucYftqtRLUNSPELrtI-6" target="4cucYftqtRLUNSPELrtI-9" edge="1">
          <mxGeometry width="50" height="50" relative="1" as="geometry">
            <mxPoint x="550" y="5210" as="sourcePoint" />
            <mxPoint x="600" y="5160" as="targetPoint" />
          </mxGeometry>
        </mxCell>
        <mxCell id="4cucYftqtRLUNSPELrtI-11" value="" style="endArrow=classic;html=1;rounded=0;exitX=0.99;exitY=0.422;exitDx=0;exitDy=0;entryX=0;entryY=0.75;entryDx=0;entryDy=0;exitPerimeter=0;" parent="1" source="4cucYftqtRLUNSPELrtI-7" target="4cucYftqtRLUNSPELrtI-9" edge="1">
          <mxGeometry width="50" height="50" relative="1" as="geometry">
            <mxPoint x="570" y="5220" as="sourcePoint" />
            <mxPoint x="620" y="5170" as="targetPoint" />
          </mxGeometry>
        </mxCell>
        <mxCell id="4cucYftqtRLUNSPELrtI-12" value="17&lt;span style=&quot;white-space: pre;&quot;&gt; &lt;/span&gt;23&lt;br&gt;1&lt;span style=&quot;white-space: pre;&quot;&gt; &lt;/span&gt;F&lt;br&gt;22&lt;span style=&quot;white-space: pre;&quot;&gt; &lt;/span&gt;6&lt;span style=&quot;white-space: pre;&quot;&gt; &lt;/span&gt;28" style="whiteSpace=wrap;html=1;aspect=fixed;" parent="1" vertex="1">
          <mxGeometry x="540" y="5220" width="80" height="80" as="geometry" />
        </mxCell>
        <mxCell id="4cucYftqtRLUNSPELrtI-13" value="" style="endArrow=classic;html=1;rounded=0;entryX=0;entryY=0.5;entryDx=0;entryDy=0;" parent="1" target="4cucYftqtRLUNSPELrtI-12" edge="1">
          <mxGeometry width="50" height="50" relative="1" as="geometry">
            <mxPoint x="490" y="5190" as="sourcePoint" />
            <mxPoint x="540" y="5140" as="targetPoint" />
          </mxGeometry>
        </mxCell>
        <mxCell id="4cucYftqtRLUNSPELrtI-14" value="21&lt;span style=&quot;white-space: pre;&quot;&gt; &lt;/span&gt;25&lt;br&gt;3&lt;span style=&quot;white-space: pre;&quot;&gt; &lt;/span&gt;G&lt;br&gt;24&lt;span style=&quot;white-space: pre;&quot;&gt; &lt;/span&gt;4&lt;span style=&quot;white-space: pre;&quot;&gt; &lt;/span&gt;28" style="whiteSpace=wrap;html=1;aspect=fixed;" parent="1" vertex="1">
          <mxGeometry x="540" y="4950" width="80" height="80" as="geometry" />
        </mxCell>
        <mxCell id="4cucYftqtRLUNSPELrtI-15" value="" style="endArrow=classic;html=1;rounded=0;exitX=1;exitY=0.25;exitDx=0;exitDy=0;entryX=0;entryY=0.5;entryDx=0;entryDy=0;" parent="1" source="4cucYftqtRLUNSPELrtI-6" target="4cucYftqtRLUNSPELrtI-14" edge="1">
          <mxGeometry width="50" height="50" relative="1" as="geometry">
            <mxPoint x="570" y="5270" as="sourcePoint" />
            <mxPoint x="620" y="5220" as="targetPoint" />
          </mxGeometry>
        </mxCell>
        <mxCell id="4cucYftqtRLUNSPELrtI-16" value="28&lt;span style=&quot;white-space: pre;&quot;&gt; &lt;/span&gt;35&lt;br&gt;H&lt;br&gt;28&lt;span style=&quot;white-space: pre;&quot;&gt; &lt;/span&gt;7&lt;span style=&quot;white-space: pre;&quot;&gt; &lt;/span&gt;35" style="whiteSpace=wrap;html=1;aspect=fixed;fillColor=#f8cecc;strokeColor=#b85450;" parent="1" vertex="1">
          <mxGeometry x="670" y="5070" width="80" height="80" as="geometry" />
        </mxCell>
        <mxCell id="4cucYftqtRLUNSPELrtI-17" value="" style="endArrow=classic;html=1;rounded=0;exitX=1;exitY=0.5;exitDx=0;exitDy=0;entryX=0;entryY=0.5;entryDx=0;entryDy=0;" parent="1" source="4cucYftqtRLUNSPELrtI-9" target="4cucYftqtRLUNSPELrtI-16" edge="1">
          <mxGeometry width="50" height="50" relative="1" as="geometry">
            <mxPoint x="570" y="5270" as="sourcePoint" />
            <mxPoint x="620" y="5220" as="targetPoint" />
          </mxGeometry>
        </mxCell>
        <mxCell id="4cucYftqtRLUNSPELrtI-18" value="" style="endArrow=classic;html=1;rounded=0;entryX=0;entryY=0.75;entryDx=0;entryDy=0;exitX=1;exitY=0.5;exitDx=0;exitDy=0;" parent="1" source="4cucYftqtRLUNSPELrtI-12" target="4cucYftqtRLUNSPELrtI-16" edge="1">
          <mxGeometry width="50" height="50" relative="1" as="geometry">
            <mxPoint x="570" y="5270" as="sourcePoint" />
            <mxPoint x="620" y="5220" as="targetPoint" />
          </mxGeometry>
        </mxCell>
        <mxCell id="4cucYftqtRLUNSPELrtI-19" value="" style="endArrow=classic;html=1;rounded=0;exitX=1;exitY=0.5;exitDx=0;exitDy=0;entryX=0;entryY=0.25;entryDx=0;entryDy=0;" parent="1" source="4cucYftqtRLUNSPELrtI-14" target="4cucYftqtRLUNSPELrtI-16" edge="1">
          <mxGeometry width="50" height="50" relative="1" as="geometry">
            <mxPoint x="570" y="5270" as="sourcePoint" />
            <mxPoint x="620" y="5220" as="targetPoint" />
          </mxGeometry>
        </mxCell>
        <mxCell id="ECMHKfFTUjoVE-dwBOPZ-1" value="" style="shape=image;verticalLabelPosition=bottom;labelBackgroundColor=default;verticalAlign=top;aspect=fixed;imageAspect=0;image=data:image/png,iVBORw0KGgoAAAANSUhEUgAAAUkAAADjCAYAAAAIeuaUAAAAAXNSR0IArs4c6QAAAARnQU1BAACxjwv8YQUAAAAJcEhZcwAADsMAAA7DAcdvqGQAABEfSURBVHhe7d2/cuLMl8bxw97JboEDhivA+W6Bk4mcOoMQVe2SOXTGL4DQZE4dTWKovQB0BYwDi9pbYbslYSQBbeOZ1/RpfT9Vesf/hrfGxzpqdcv9NLaGQIXfv3/Ljx8/8vegATXTp1qzf8v/BAAcQZMEAAeaJAA4NNbrNXOSAHACCzeKsAigDzXTh4UbADgDTRIAHGiSAOBAkwQAB5okADgE1iQ3MrtuSON6Zt76jHO/HsCfWg51nXMXbJJ5g2o0ZLjMP4QA7et88sh/ADaz6+Of5yL2jzn6PeeELLlck1xOJIoHMhiIzH99oSjLoSnotcxKZ09TRqutbFcj89ZnHPn6o6+Lr8u/x9v8WJiCS1emSeFjj73sS1MDWew+vjs+XU98SXcqyfv3eyGDeZ8LU8HFmuTy19ycDz/l8WfaJYVrF+CDnoynXZH4WV7okqkLNcmlZD3SjCB6P83YYS4PR4Zu1VuB6/xr0jmNvnkBiSVqHflcfhVM324MDxrwwdcU3z7yup95HSAUzatO/lYm/Tk3t+DZeVD5mU/vvPKPVz+Xe/979lB4K3+ZJrn8ZdriQGyPtFcuO5iMn19K31zbIFuRFG7LErl9vktvg3uP5v3KbdtqdHhD1rMvbP5P5bv5rEF3b28ObuFOvW5vPDUfqbzOZiYPttHfcyuIsGze1vlbBeYWvC+L7FzMpz/SQUxfCtMjiUwlklahUdoG2Z/vp1CS9oN5P/+kEhdokhuZpd3lp2mPmbSZlYb3G3l5jqU7fZJ977NzW6vC+5/QG4u9c1i/Fdpv3qDvz3mh5o3cmtcpzp1uXp7NeHPX6PH3zKVfHJkwP/y9zMX/Lort1b9yrplGV5o7XsrEfN1g8fh+Hqfn6H3xXM4HJNPx+9c0RytJxyGKfH+T3LyI6X/ZrfZOessdy/OuS+Zf07k6pyMe05Qb092Ko9TdXOh5vS17nf3cadbEz38dfKy6cHPmhRHni83ob3dRym7fKotpRvVnffMmdrw57xcvaOYoDhPzr/nz8/iyvr1JZiOw6je3b8YPtlaTg3m/P9W8uZVu5cpWatCf1Bzdm9M3nzs91ugBrUqr28enrk4ZLIoXtN0R1oXtm5vkbgSWz20Uj3QMns/7Na/ETh2XbpO/Kr1Vzkep9lbb/ECMv9Tb9nOnS9vov/w6QAA+c47+zfP4gr63SabPRp4YgaW33PaO1nbJ7DGEOMoWajL2oeTC/FSrLeYr5DXJ3z8pmyexzW1mhpHHFmxKHK+bzZ1G0jf/iA9fBwjasXPUsKvd7ws3+cCicIeYLeTk7yjxrU0ynQ80rfD4XWr2Dd3N+9kJ3mQq74/iNBoteb4tLOQ0R2LniHe37c4nC2wDNs0tmnfl9uaD1uZ63XwhyK5+f/g6+KLqwo05eMzKS4fnqDke2pIUHv7vPSbmnNnX9KGdmL+TnkRqsDP5WexotiWRTEs/CN+FXa71oWb6sDP5n9gt2PBsJFAbNMkzLCcRz0YCNUOTPEP6Gznb4sOzAEJHkwQAh4Y5WLgBgIL1ev/766xuK2IfoaBculAzfao143YbABxokgDgQJMEAAeaJAA40CQBwIEmCQAOATVJcry1KgVF2YMCwiPhNMk/zfHGBWQXtv66vDP2QXQAcEHBPEyebuZp09x+/soT3ML7HevqQ67aZYmYnSBrtRNazeqgWrNARpKfy/GGT3aJmPskPcBHYTTJT+R4wzeJvNpEuNeJXO/mItODCFn4JYAm+Zkcb/gqXrflyc5Dpofd6j+WqDX866mZwFfpb5KfyfGGt8qBanm4/S41E/6xQV+lkX/4FzT1TfK7c7zxD0vTKuGt3mM+6t8d4W9CrbxJfjLHGx5qSdt0w4O54+TVXPS60m7l7wMXprtJfjrHG/7Jb63jSCbvJVrK0IYyD+730cHAhalukufkeMND5tbNZjDvp0r6Mrd3BTxMDo+wM7kitpFQLl2omT7Vmulf3QaAfxBNEgAcaJIA4ECTBAAHcrcBoILcbaVYKdWHmunD6jYAnIEmCQAONEkAcKBJAoADTRIAHGiSAOAQTJO0yXt26b58kJfis4O87fwgdtt39cq4D2wkOZDFdr/x7mJg81JolF7rVjK3zcFOaZ6rWcZ90LfbvfFUumTdAH9Vuo/r4Kc82g1ba7Bfay3mJDtXbHMN/B31y7gPukkuJ5EZR57auRxeiCNpFeYjr5kb8VsNM+4Da5Jz6RdOOBuX0p2Og09z06r3WJ6LtFEOcdSiUXqrnhn3QS/cbJOpiDnpGtezoK90oWiOVmJDLkMfmahV04z7sOckmyN5MqOT0K90wYlfJcnfhD/qmnFfi4UbaLGRN7uNX7ctxG77pr4Z94E3yaVM0mBucpy9s5nJdWUaZDO7y3LU70dCuTxT44z7oBduyHH2WPNGbqW8st2KOumcMuXyT50z7tmZXBHbSCiXLtRMn2rNmJMEAAeaJAA40CQBwIEmCQAO5G4DQAW520qxUqoPNdOH1W0AOANNEgAcaJIA4ECTBAAHmiQAONAkAcAhvCZpt+BqFHcCIjfFK8thVpejgc1LGVZqRwa3j8jdVisNu29F0lkUNwVN5PaZ3JTLy08sGzx0wnLYFynUzu7lOu+Tm+6dmuVuh/MwuR2hmBNwYE6yUPcjtFdureXazK7FXL9kmjyJ3LUk6nxin097V5D9JVkp3TVZc81OsYORvpj6/fxlzjl7XXsMKmyvWrNARpJ5ilt3KmM2bPWSDfnabldf2iGe3HSfkLutVCKvNqGoc8W2/8EwF767SGIufH4hd1u3bpv4KN32CwKNhrkljweyWJF344/8jo3cbb3iV4JIdWvKaLVfuEmm6zSziEU3T5C7rVlL2l3zx/ot6GF/3TRHT5LGpgec6awJuduqNeXmNj2bZMLZFB5yuD1A7rZ6u1GHvcpVH3C1jyxwy+Y7+yD5sDwaybOeu7c3zEteWo1zt+2VICjJtGsfcCod3WmSf1Y3zeU6VpfsGGwXjq8Z7D6plP03hMAMFs2/ZV+rqo8+r0m1ZuxMrkiIDyaHjprpU61ZUKvbAPC30SQBwIEmCQAONEkAcCB3GwAqyN1WipVSfaiZPqxuA8AZaJIA4ECTBAAHmiQAONAkAcCBJgkADkE0SZvEZ5ftqwfbo+mQRgEXa0fYtpeOn2fhR/4GNJIcyGJb2Ag0mYpELWlcz9it3FtZpk1/PZWkWLtQM4GDUD7PFoPYnGZhN8pwb7ebI1mZRtmNI7ljROmlzeyOsC/lemNzjpFxo5hplPc2zI2MFA9lcQDd6TioYPu6CjkbPfiFm1aWECZvDCY9k2elv07kumZzXCFZTiIzjtzlcIcp+CbZvOrkb8FH8botT+9zXIlMu3aOq5J1A4/M05jf3UWtP5fg7waCb5Kbt/1uHvBPOeSrKSM7PxJw8p5+9VsgDb5JJuk9XUcCnjIJS6stdoIESjRH8pSGoz9LqGs3YTfJzUweanA7oFNL7HRx/PxSHoEkrxKbNtkmaBueCLdJmgZ53Yok7k7lacQw0j/5rXUcyeT91nopQzvJNbgXSqbFUiZpIHe4NQti0137mwAtW6iKwWIrIT2XbCfKAyhXyUHtBougHiYPqWanzrPQa8bO5IqE2CRDR830qdYs+IUbAPgTNEkAcKBJAoADc5KKML+lDzXT5T/+57/yt/bI3QaA3L//93/mb+0xklSEUYk+1EyX3Ujy//71v+mfFnOSAOBAkwQAB5okADjQJAHAgSYJAA40SQBwCKZJnsreJlLWU3Yru2P1yg+itz12pHYhZ9wHNpKsbC1vD+JK/WQjf6u1Mkdid7kOPFhKs+XQNMVWJJ1FsW6J3D63gm2U3G7DI7sNXH+yk7yPlsM0+Otwn9amjFZbWQW66y5NEt7YzB5kLl2ZjmmR/tnILMtCkbqVhyYJT2zk5TnsGADd8pz0zlXtpq8Ca5LlTGCC7hVZTiS702YU6bNuDRPaAl+4WTEqUaG+t3LaxK9J/lZ9cLuNy9uNIu95EsFfWQSwrN9q90gdTRIXt/xlRpE89uO5ptzc2qD0YgRwPdAkcVmbmWR32mMe+/Fcc/Qk9jHWef/wYX/7/CTPSapQXbgxB79x47XlJJLYjCLvmTxWIHse0j7wbxtl8Tx7aCfBPifJzuSK2B9GyqULNdOFnckB4Ew0SQBwoEkCgANNEgAcyN0GgBy528qxUqoPNdNlt7pdRJNUhBNOH2qmT7VmzEkCgANNEgAcaJIA4ECTBAAHmiQAOATVJE9lb4ecCaxZGk96pF5kbnuO3G3lulNJtsUIh3CjLoNwpF7luFL4hNxtADiF3G0AOIXcbeAy4khaNZnb0o3c7XBUTjqyt/3VeyzOa2WxAHEU7txWCMjdDsHBQgDZ21o0RytZDMx17vmFXCJPkbsN+CB+NTd38Au524AHNvK2Nn902+aUhF/I3Qa+l30guRL3u5ndSRSLDO5HtVsc0IDcbeA7NW/kVsqLbK2oI4stD5P7i9xteM7+MFIuXaiZPtWaMZIEAAeaJAA40CQBwIEmCQAO5G4DQMV6bR/YzbC6rQgrpfpQM31Y3QaAM9AkAcCBJgkADjRJAHCgSQKAA00SABzCaJJHcoAbjaEQ3+y/avY20Q2X9SfZ9af+bqOyJZ426pvk8Rxgu53TWvrKixM6W7v+fJBuj5bWbTEg48YLhZrYI5mKmLp8rtlV/q49Vrr3B1XdJO2Vqz/vyjQ53IPQ5qVoL07QzOg/Sygdy3vpeo9k3PioOZKVaZTdOJK7Gl7AFDfJjbw8p9tYE/SlUfIqWUJpuXgtG6RCxo1/TKO8txewaFK7aSy9TXLzIrZH1jHiMgittthcqarmVcf8dy1vDCW9k17Aalgb9XOSxZHIwcQxc5L+svENNi/loVijjczsPTi8lF3APjKXfvEcDCD3Xn2TXBcua+k8ZD5ZbOe24DObl7KQQVzMuWnJa8cWriOVu3B4YJNGWX6kunCjP/deb5NsXplTyU5fMXulV08eSyfUVsZtcyISKeul5DWdRa7dBUzxSLIn4zTf8kH9cB472WJc9/aGpxJ8c+xphJpQfbud5QDHErWqOcB5yD0U2cjsuiWRTOWJxxX8Yn9ZoxVJ3K3UZjkMYs7xI8rnJLMcYPsQcjkHODvZEp6T9JhtipWadRY82+qFyuLL7pc1KrU5PkdZXbgxh/IFVHYmV8T+wFEuXUKuWfobU+vwBiPVmtEkFaFJ6hNuzZYybPRFzAiz+ttu2tEkFaNJ6hNqzewzya3Xe9mG1iENmqRiNEl9qJk+1Zqpf5gcAP5J5G4DQAW520px66YPNdOH220AOANNEgAcaJIA4ECTBAAHmiQAONAkAcAhiCaZxTYcy9m2v19KlrO/svrYRy52R3nLO1zCqfzsD8+jQPPvGUniQuxWadkGCfaZNHvYyA275R2N0gPdqSR5XXbHyrHPZ8j59zRJXEi2F2hxf4TeeJomKBZzi+C/0PPvaZIA/kD4+fc0SfgjeZU0aoqoRD1qkH8fUJM8sm18o28+Ch2WMuynSVMyrlvSlI9KUb/2cGfZhJx/H1CTrOb92mNhPgoNlkN7QevK9ImMGy8cLNy487NDzr/ndhsXl2alpBP/+oPsa6cG+fc0SVxU1iDNfcCCBqlT+Pn3NElcTPboiG2Q4YVJBa2Stx16/j1NEheylElk17KzB8hLE/01CLzX7DBvO+z8e3YmV8T+4FEuXUKsWah52zvVmtEkFaFJ6hNezcLN296hSSpGk9QntJrZeeRQ87Z3aJKK0ST1oWb6VGvGwg0AOJC7DQAV5G4r9fv3b/nx40f+HjSgZvpUa8btNgA40CQBwIEmCQAONEkAcKBJAsBJIv8PTbSDupv2fOsAAAAASUVORK5CYII=;" vertex="1" parent="1">
          <mxGeometry x="840" y="5520" width="329" height="227" as="geometry" />
        </mxCell>
        <mxCell id="ECMHKfFTUjoVE-dwBOPZ-2" value="0&lt;span style=&quot;white-space: pre;&quot;&gt;	&lt;/span&gt;6&lt;br&gt;0&lt;span style=&quot;white-space: pre;&quot;&gt;	&lt;/span&gt;A&lt;br&gt;0&lt;span style=&quot;white-space: pre;&quot;&gt;	&lt;/span&gt;6&lt;span style=&quot;white-space: pre;&quot;&gt;	&lt;/span&gt;6" style="whiteSpace=wrap;html=1;aspect=fixed;fillColor=#f8cecc;strokeColor=#b85450;" vertex="1" parent="1">
          <mxGeometry x="200" y="5510" width="80" height="80" as="geometry" />
        </mxCell>
        <mxCell id="ECMHKfFTUjoVE-dwBOPZ-3" value="6&lt;span style=&quot;white-space: pre;&quot;&gt;	&lt;/span&gt;11&lt;br&gt;9&lt;span style=&quot;white-space: pre;&quot;&gt;	&lt;/span&gt;B&lt;br&gt;15&lt;span style=&quot;white-space: pre;&quot;&gt;	&lt;/span&gt;5&lt;span style=&quot;white-space: pre;&quot;&gt;	&lt;/span&gt;20" style="whiteSpace=wrap;html=1;aspect=fixed;" vertex="1" parent="1">
          <mxGeometry x="350" y="5480" width="80" height="80" as="geometry" />
        </mxCell>
        <mxCell id="ECMHKfFTUjoVE-dwBOPZ-4" value="6&lt;span style=&quot;white-space: pre;&quot;&gt;	&lt;/span&gt;19&lt;br&gt;0&lt;span style=&quot;white-space: pre;&quot;&gt;	&lt;/span&gt;C&lt;br&gt;6&lt;span style=&quot;white-space: pre;&quot;&gt;	&lt;/span&gt;13&lt;span style=&quot;white-space: pre;&quot;&gt;	&lt;/span&gt;19" style="whiteSpace=wrap;html=1;aspect=fixed;fillColor=#f8cecc;strokeColor=#b85450;" vertex="1" parent="1">
          <mxGeometry x="350" y="5600" width="80" height="80" as="geometry" />
        </mxCell>
        <mxCell id="ECMHKfFTUjoVE-dwBOPZ-6" value="" style="endArrow=classic;html=1;rounded=0;exitX=1;exitY=0.5;exitDx=0;exitDy=0;entryX=0;entryY=0.5;entryDx=0;entryDy=0;" edge="1" parent="1" source="ECMHKfFTUjoVE-dwBOPZ-2" target="ECMHKfFTUjoVE-dwBOPZ-3">
          <mxGeometry width="50" height="50" relative="1" as="geometry">
            <mxPoint x="650" y="5570" as="sourcePoint" />
            <mxPoint x="700" y="5520" as="targetPoint" />
          </mxGeometry>
        </mxCell>
        <mxCell id="ECMHKfFTUjoVE-dwBOPZ-7" value="" style="endArrow=classic;html=1;rounded=0;exitX=1;exitY=0.5;exitDx=0;exitDy=0;entryX=0;entryY=0.5;entryDx=0;entryDy=0;" edge="1" parent="1" source="ECMHKfFTUjoVE-dwBOPZ-2" target="ECMHKfFTUjoVE-dwBOPZ-4">
          <mxGeometry width="50" height="50" relative="1" as="geometry">
            <mxPoint x="650" y="5570" as="sourcePoint" />
            <mxPoint x="700" y="5520" as="targetPoint" />
          </mxGeometry>
        </mxCell>
        <mxCell id="ECMHKfFTUjoVE-dwBOPZ-9" value="11&lt;span style=&quot;white-space: pre;&quot;&gt;	&lt;/span&gt;17&lt;br&gt;9&lt;span style=&quot;white-space: pre;&quot;&gt;	&lt;/span&gt;D&lt;br&gt;20&lt;span style=&quot;white-space: pre;&quot;&gt;	&lt;/span&gt;6&lt;span style=&quot;white-space: pre;&quot;&gt;	&lt;/span&gt;26" style="whiteSpace=wrap;html=1;aspect=fixed;" vertex="1" parent="1">
          <mxGeometry x="470" y="5480" width="80" height="80" as="geometry" />
        </mxCell>
        <mxCell id="ECMHKfFTUjoVE-dwBOPZ-10" value="" style="endArrow=classic;html=1;rounded=0;exitX=1;exitY=0.5;exitDx=0;exitDy=0;entryX=0;entryY=0.5;entryDx=0;entryDy=0;" edge="1" parent="1" source="ECMHKfFTUjoVE-dwBOPZ-3" target="ECMHKfFTUjoVE-dwBOPZ-9">
          <mxGeometry width="50" height="50" relative="1" as="geometry">
            <mxPoint x="650" y="5560" as="sourcePoint" />
            <mxPoint x="460" y="5520" as="targetPoint" />
          </mxGeometry>
        </mxCell>
        <mxCell id="ECMHKfFTUjoVE-dwBOPZ-11" value="19&lt;span style=&quot;white-space: pre;&quot;&gt;	&lt;/span&gt;26&lt;br&gt;0&lt;span style=&quot;white-space: pre;&quot;&gt;	&lt;/span&gt;E&lt;br&gt;19&lt;span style=&quot;white-space: pre;&quot;&gt;	&lt;/span&gt;7&lt;span style=&quot;white-space: pre;&quot;&gt;	&lt;/span&gt;26" style="whiteSpace=wrap;html=1;aspect=fixed;fillColor=#f8cecc;strokeColor=#b85450;" vertex="1" parent="1">
          <mxGeometry x="470" y="5600" width="80" height="80" as="geometry" />
        </mxCell>
        <mxCell id="ECMHKfFTUjoVE-dwBOPZ-12" value="19&lt;span style=&quot;white-space: pre;&quot;&gt;	&lt;/span&gt;24&lt;br&gt;11&lt;span style=&quot;white-space: pre;&quot;&gt;	&lt;/span&gt;F&lt;br&gt;30&lt;span style=&quot;white-space: pre;&quot;&gt;	&lt;/span&gt;5&lt;span style=&quot;white-space: pre;&quot;&gt;	&lt;/span&gt;35" style="whiteSpace=wrap;html=1;aspect=fixed;" vertex="1" parent="1">
          <mxGeometry x="600" y="5687" width="80" height="80" as="geometry" />
        </mxCell>
        <mxCell id="ECMHKfFTUjoVE-dwBOPZ-13" value="" style="endArrow=classic;html=1;rounded=0;exitX=1;exitY=0.5;exitDx=0;exitDy=0;entryX=0;entryY=0.5;entryDx=0;entryDy=0;" edge="1" parent="1" source="ECMHKfFTUjoVE-dwBOPZ-4" target="ECMHKfFTUjoVE-dwBOPZ-11">
          <mxGeometry width="50" height="50" relative="1" as="geometry">
            <mxPoint x="650" y="5610" as="sourcePoint" />
            <mxPoint x="700" y="5560" as="targetPoint" />
          </mxGeometry>
        </mxCell>
        <mxCell id="ECMHKfFTUjoVE-dwBOPZ-14" value="" style="endArrow=classic;html=1;rounded=0;exitX=1;exitY=0.5;exitDx=0;exitDy=0;entryX=0;entryY=0.5;entryDx=0;entryDy=0;" edge="1" parent="1" source="ECMHKfFTUjoVE-dwBOPZ-4" target="ECMHKfFTUjoVE-dwBOPZ-12">
          <mxGeometry width="50" height="50" relative="1" as="geometry">
            <mxPoint x="650" y="5610" as="sourcePoint" />
            <mxPoint x="700" y="5560" as="targetPoint" />
            <Array as="points">
              <mxPoint x="460" y="5727" />
            </Array>
          </mxGeometry>
        </mxCell>
        <mxCell id="ECMHKfFTUjoVE-dwBOPZ-15" value="26&lt;span style=&quot;white-space: pre;&quot;&gt;	&lt;/span&gt;35&lt;br&gt;0&lt;span style=&quot;white-space: pre;&quot;&gt;	&lt;/span&gt;G&lt;br&gt;26&lt;span style=&quot;white-space: pre;&quot;&gt;	&lt;/span&gt;9&lt;span style=&quot;white-space: pre;&quot;&gt;	&lt;/span&gt;35" style="whiteSpace=wrap;html=1;aspect=fixed;fillColor=#f8cecc;strokeColor=#b85450;" vertex="1" parent="1">
          <mxGeometry x="600" y="5530" width="80" height="80" as="geometry" />
        </mxCell>
        <mxCell id="ECMHKfFTUjoVE-dwBOPZ-16" value="" style="endArrow=classic;html=1;rounded=0;exitX=1;exitY=0.5;exitDx=0;exitDy=0;entryX=0;entryY=0.5;entryDx=0;entryDy=0;" edge="1" parent="1" source="ECMHKfFTUjoVE-dwBOPZ-9" target="ECMHKfFTUjoVE-dwBOPZ-15">
          <mxGeometry width="50" height="50" relative="1" as="geometry">
            <mxPoint x="650" y="5560" as="sourcePoint" />
            <mxPoint x="700" y="5510" as="targetPoint" />
          </mxGeometry>
        </mxCell>
        <mxCell id="ECMHKfFTUjoVE-dwBOPZ-17" value="" style="endArrow=classic;html=1;rounded=0;exitX=1;exitY=0.5;exitDx=0;exitDy=0;entryX=0;entryY=0.5;entryDx=0;entryDy=0;" edge="1" parent="1" source="ECMHKfFTUjoVE-dwBOPZ-11" target="ECMHKfFTUjoVE-dwBOPZ-15">
          <mxGeometry width="50" height="50" relative="1" as="geometry">
            <mxPoint x="650" y="5560" as="sourcePoint" />
            <mxPoint x="700" y="5510" as="targetPoint" />
          </mxGeometry>
        </mxCell>
        <mxCell id="ECMHKfFTUjoVE-dwBOPZ-18" value="35&lt;span style=&quot;white-space: pre;&quot;&gt;	&lt;/span&gt;37&lt;br&gt;0&lt;span style=&quot;white-space: pre;&quot;&gt;	&lt;/span&gt;H&lt;br&gt;35&lt;span style=&quot;white-space: pre;&quot;&gt;	&lt;/span&gt;2&lt;span style=&quot;white-space: pre;&quot;&gt;	&lt;/span&gt;37" style="whiteSpace=wrap;html=1;aspect=fixed;fillColor=#f8cecc;strokeColor=#b85450;" vertex="1" parent="1">
          <mxGeometry x="740" y="5600" width="80" height="80" as="geometry" />
        </mxCell>
        <mxCell id="ECMHKfFTUjoVE-dwBOPZ-19" value="" style="endArrow=classic;html=1;rounded=0;exitX=1;exitY=0.5;exitDx=0;exitDy=0;entryX=0;entryY=0.5;entryDx=0;entryDy=0;" edge="1" parent="1" source="ECMHKfFTUjoVE-dwBOPZ-12" target="ECMHKfFTUjoVE-dwBOPZ-18">
          <mxGeometry width="50" height="50" relative="1" as="geometry">
            <mxPoint x="650" y="5550" as="sourcePoint" />
            <mxPoint x="700" y="5500" as="targetPoint" />
          </mxGeometry>
        </mxCell>
        <mxCell id="ECMHKfFTUjoVE-dwBOPZ-20" value="" style="endArrow=classic;html=1;rounded=0;exitX=1;exitY=0.5;exitDx=0;exitDy=0;entryX=0;entryY=0.5;entryDx=0;entryDy=0;" edge="1" parent="1" source="ECMHKfFTUjoVE-dwBOPZ-15" target="ECMHKfFTUjoVE-dwBOPZ-18">
          <mxGeometry width="50" height="50" relative="1" as="geometry">
            <mxPoint x="650" y="5550" as="sourcePoint" />
            <mxPoint x="700" y="5500" as="targetPoint" />
          </mxGeometry>
        </mxCell>
        <mxCell id="ECMHKfFTUjoVE-dwBOPZ-22" value="ES&lt;span style=&quot;white-space: pre;&quot;&gt;	&lt;/span&gt;EF&lt;br&gt;Slack&lt;span style=&quot;white-space: pre;&quot;&gt;	&lt;/span&gt;ID&lt;br&gt;LS&lt;span style=&quot;white-space: pre;&quot;&gt;	&lt;/span&gt;Dur&lt;span style=&quot;white-space: pre;&quot;&gt;	&lt;/span&gt;LF&lt;br&gt;Red = Critical" style="whiteSpace=wrap;html=1;aspect=fixed;" vertex="1" parent="1">
          <mxGeometry x="210" y="5687" width="80" height="80" as="geometry" />
        </mxCell>
        <mxCell id="ECMHKfFTUjoVE-dwBOPZ-23" value="Key" style="text;html=1;strokeColor=none;fillColor=none;align=center;verticalAlign=middle;whiteSpace=wrap;rounded=0;" vertex="1" parent="1">
          <mxGeometry x="220" y="5657" width="60" height="30" as="geometry" />
        </mxCell>
        <mxCell id="ECMHKfFTUjoVE-dwBOPZ-24" value="" style="shape=image;verticalLabelPosition=bottom;labelBackgroundColor=default;verticalAlign=top;aspect=fixed;imageAspect=0;image=data:image/png,iVBORw0KGgoAAAANSUhEUgAAAUcAAADgCAYAAACQJ6SJAAAAAXNSR0IArs4c6QAAAARnQU1BAACxjwv8YQUAAAAJcEhZcwAADsMAAA7DAcdvqGQAABOeSURBVHhe7d29TiNNl8Dx472TXdkEjK/AzneFJ5mIFL1JO3RLu2SEZKxWdogzUqKRVth6L8B9BQwB3dpb8Z6q7oZ2uwDzMaaq/P9J9YzBxvPQx326PnrqdNZK4K0/f/7Ijx8/qq8QAmIWHlfM/qX6EwDQ0Lm/v6fnCAAtDKs9xxAtPMQsPAyrAWBHJEcAcCA5AoADyREAHEiOAOAQQXIsZDbsSGc400e7eO/r4ZvlmPj9Tfb4jpfVV18rpNjtOTlWianTkb907LFnxWxo47nRCO7XKGYybB3b4SzWS8JzbnixVZ8r52fOtC9OuvtNjssrSbNEkkRk/vsDJ9ByrAdhKJufj65MVmtZryb6aBeO1zvfFzsbTCVf6zG1bSHJfETP7pNsD6uXSn9RH1fTcjm97UWaIKvzsv5dF5okZCDTvPG965PypVYii/r7dds5B+xmr8lx+Xuuv9Mvuf5ls6PQv4jRiZxPByLZrdyRHT9GL9Yjc6poYtzIB1UCWU2+MgXgJXtMjkspc6NG++SX5v25XDqugO0uc32VtFdS84mRTNKe47mqp2Ifd8ZbiXfrNc3Hjvfd5X3g1j3qV49K9pjpkKg8pq3jZ3vt1ffbz1Wefs606IfsOry81M+j9sbPNxLjtteO68Yxcx231pDddVg3zkXXZz7y2O0vOS5/azpMxORG07swncfs9m7jYJpg6Eii0ZU2w4gzO9w9udavW11t1xX0xLyx/k2bo/YyMQ9Of251u19635PzqX6n9T76gTKf2+Tia7vvsSke76tHDTrUHsliY/hjT76RNIZHuUwllV7rJB/Nn4dQ+fGl7VXFK5eHTP/oH+32GXMcV3PMLo/z6phqy/WzrK97zk1LGZcnWvWaXI4vWx0BfX3v4aJ6fiFJlspZozNzELHT/+k9yNc60lqbccKTRbLWhLTWhFQpXzN4/sa2rZ8paW5b65VW38FwvI/9uWRd/+2br1fO993+f86ng4332QezMYjP7DFpHst8utZB9cZxs8d767gt1npJWjc/EtZGLMrXtD8TW/HzzOdi5v6dXdzH1aX9WX7977Dv2wrM5jHfQ+xeONeN8jw0v3uzuV+7K1fM9tNzLO7kVq+Gdkhds0PrTG7rianqNf2jz/bJuvLzdLDRK63nOt8YpbSU7/M8N1rIXflLvPN9DoD2Knr10KnukWxOlm0ft+JRTP9yPmoMu0xrdi2q13z+MxGe7CGvHr3B+Xlsr/z2JDW90SflvHCW9vS5DyxEehG79oLMSr56KnYvybG4u9U02D6YIx20mvPqamte77O6P09l8LQg0JjrfKfu5OJ5btSV4FHaWK1+34KB9j4aH/C6ff0HPRw9OdZrstw/Pl3c38ckRk2GOsh9jokOec17NnQnK/vcIqnn2rfn198Se+z2kBzrHlc1L9Js2sfWlFnO63WPxEzj3z9+7COxoftTTgdVr9TMde4wue32PDe6NAn+w++DLbvE+ys/E8GoRizaG7/6SK+hvojvOC9u59zNnOTWPP0rDiR2fz852nsbX+hx2aG1GbmaqNRd/XIBpmSugo1uf+9Yg5jJ2yOOrkwudNCuSW2m3UbXQsyGV97XLvDoB3Wkv8Sb74N3cMVbmRXQp0n96uLUGF2Uk/zVF5HqTm5sT8+MtNoLvOb3f/U+xyopNe8jXo5bw2pzjJtvnD/op38gx73q6zcdSOy0B/dXvTVp3H6+PdnqnNCtnqsnhN2TvOWEsGui1vV61/uWqsnsT074flRwCzIO9thuzd6XtibXt96rPv5lM5+HXf7O7/RVMXMtPDTPhxePa70oVjd9Tfu1zc+7ac23cb2v/V7rmP/V2L17QUbbJz4TrpixE/ibGnM4X3wH/i7YVTo8xCw87AT+Ee+cwwEQB5LjG5ZXqWRPN68DOBQkxzfY1bz1tZAbgcNCcgQAh442FmQAHLz7+809AVit9pz510SEKCzELDyumDGsBgAHkiMAOJAcAcCB5AgADiRHAHAgOQKAQ+DJsRAZdsw6vHz5jrkAtjwV3XIU04pN2MlxeSWSJWI3hdx5p04AH1LM5CzV0y1pbSseqbCTY1Ubxu6qOf9dfRPA1ytkZjLj9EbOj6tvRS7g5Kg9RbOrsNku50QTpPnitR2SAXxYMTuTVEdpFwdU3Cfc5Lg0PUXtMdrtcvQ/Zmh9e2e+APCV7HA6k2RxWLtTBZoctYdoq+ubHmOlrIRlnwLwdeyepslC2tV2Yxdmciy0h2gKBjV3oLVDa/1mXQcbfjJFmMxq51N7f0lQ7JHGazRPZHFomVGFuSvPbCitKuUN2oNcX1ePw2cSCDu8hCWmmL1VMXAwzd9Vp9xXrpgF2HPUnmFVB1t/m822MBOPGkm6IsCXKHfC32y5qRs7mEquj2NIjC8JLznaexv1zxfqYFvc8wjgk8JLjubexqdV6jb9pu08cs8jgM9hJ3DPMecYHmIWnkjmHAHg7yM5AoADyREAHEiOAOBA3WoAUNStDgwrn+EhZuFhtRoAdkRyBAAHkiMAOJAcAcCB5AgADiRHAHAIOjk+1dDdaEPqbHmvkNmwjNeY3eW8Zza83T7P4o9dBD3HRBbr5404F0kmaY8E6bXlla1klyRmdzmyYxCqzW3r88y02CsnRDesPjmfykAyuaWWjLeWVb3x66reOOkRPop2zrF/dDj1dcOytPsVJ1W98UTmckk3Hx6KLjnaMpJ6yrmqKMADy9+aDuv4nFQVde+oqOu7LJVeY75xeAAXtAiS41xGjaCZSmmD6flBFR8PRyGzqt54HZ+Tqt44syD+ahfZMgW2srQXfYKMbkFmnU9FNHCd4YzeiG+Ku7JwZKveeMIccVC6k5Ut9Bl7jz++OcfuRG5M6Uh6I94p7m5t4cj56Lmn3+mMTDFd7YlcsTATmuxB8uphjKJdkIFvCrmr6o03h2i2VfXGuasnFIU8mq0PB8fSK78RpQiT41KuUnMSXkjE9cbDY+9tbA2pa3ZozT2PXipmMmxNURWzszKWFxOJ+RSLbkHGDtNM7yT2O1QDY+9tfPEugnLVmnsePdT9KaeyuVLdS/t2nj/2U4ydwD1nPoyEKCzELDyumDHnCAAOJEcAcCA5AoADyREAHKhbDQCKutWBYeUzPMQsPKxWA8COSI4A4EByBAAHkiMAOJAcAcCB5AgADnEkx2Jm1uI3G0WbPEbdau8txzY+HWeAljI2zzVajHEMPzmONRH2UpHFWsTcp2RbLnLbI0H6irrVHqsuXKYY0wuW45E938x9gaaZvYrno/hqxYd9E7he3WxFLZMYI91bzlyVQw6Ry1IvaCNZyPrXbz0JTfiuowpfyDErZkPb15jmNyJnPUn7O+yNajbELX9IVoHuMO2KWcA9R71MmUp2g2m0iTFO1K32mSmetV6vPrSLfmy14gNOjjp0NtWa+kfllwgDdasjo8Pws1Qy7aScR9ZJCX/O8TjmEj+xoW51HJ4X1DodHXpniSxW8dWTCT85PsRcHDIy1K2ORFcmq+cFmXx6b+s4xVbkP+DkqD3Ggf5x/1h+Ce9RtzpO3cmN2FLxkcUw4OSonfhTGxEzxw/vUbc6epHVsQ57WK1XLNt71J7IVoI09z+yCuoP6lZHwtwAPt483arYDk5/xjXvqFfu8E0H2v/QX6XZpnn1ZNhiCZF2DvV3SdaL6uu2t54PScgxy/VcMv//2+05Nq7XJIEHzvwObewE7rmQbyg+VMQsPK6Yhb9aDQB/AckRABxIjgDgQHIEAIeONmaOARw86lYHhpXP8BCz8LBaDQA7IjkCgAPJEQAcSI4A4EByBAAHkiMAOASbHE2VNLP83m6x7UYcE3fM4ivpGStTNXIjdpEXHQ+855jIYt3YNDWfiqQ96QxnFGzy1mbMFkmmISNB+q2sGTO6n0reiN2bJVsDF9ewujuRlSbIQZbKGWdbEE7ONV7UkPFaMTuLtojWa+Kbc9QEeWEK2lGTJCix1TyOR1neYjA9P7jy8FEuyPSObeUteaQz4r3lVar9xrqONfyTy4OpivZwJcPmfOMBzBVHmRy7R/3qEfwzt2U865NsNJeD7JWEJrs/lpun+cZcpgMzV9yqJROZKJNj8bi5uwZ8wiJaiDaLZ3VlYuauIq8YGWVyzO04oC9MYwWgO5EbW/T4VliTCUjv2Bb+jFl8ybGYySVDNeCL9MRM4We3d5s9+/xBMk2PxzEVqm6JKzlqYhz2UskGU7mZ0G0Mw1KubEHrCyFkPqqG0FkqV09D6KWMzWRx5DELdrNb868teuakakkWa4np3lSzaBFoiLa8FDMNWlQ3FMcUs9pW7A4gZuwE7rkYT7TYEbPwuGIW5YIMAHwWyREAHEiOAOBAcgQAB+pWA4CibnVgWPkMDzELD6vVALAjkiMAOJAcAcCB5AgADiRHAHAgOQKAQ9jJcTY0a/DbbTirXgAvma3lNE7m9om6UW88DE+1xw9g5/YIeo6JiLk/qdlWk+o5+MYWhu+l0l80SiWsczm97ZEgfacXtbNUz7gk9j3ASwyrsT/LsS2otb3nZlcmq7Ve09jt1l+FzExmnN7I+XH1rciRHLEnenKV9SvknPoVwakL+18c0AWM5Ig9qeof948aVewQBDuczrTHf31QdZkiSI7aG+k0F2SGppMCTw1irsgUqeVVKlmyiKr8yC4iXJBZmSkseCp7yKtHCIKdJ05kcWiZUTGsxp6UJT7l/pGOfUCWv3VkpqOzkbl9p2q20FaWSk8fx3yHAckRe9KVn6emAHKzxCd8d3LdvOWqbPlU4ziYSq6PY77DgOSIvelObsScV/NRR8atBGnuf+Q+R/gkwgUZbfwLGU+V9zOanodJkPUwzbTL45z7HOEVdgL3nEkchCgsxCw8rpgxrAYAB5IjADiQHAHAgeQIAA4dbcwcAzh41K0ODCuf4SFm4WG1GgB2RHIEAAeSIwA4kBwBwIHkCAAOJEcAcAg+OT7V0W01tr/yGHWrg2LL6bbiZVp727nYxNFzrDbeNPcp1Y3tr/xE3epAOc6x2CsnMKzG/lC3GgEhOWJPqFuNsJAcsSfUrQ5aVVCrnm88hCmQOJJjK3CdzlCYvvITdavD0y6yZcpcZGn8c8SRLsishOkrP1G3OnzdyUoWicby9i7qMrsMq7En1K2OTvYgMV/qSI7YE+pWx6OQR7P14eBYL3nxIjlib6hbHSBzw/5wttHbL2ZnkmYiycUk6sU1kiP2iLrVwen+lFPZXPDspX1ZrOO/CZydwD1nPoyEKCzELDyumNFzBAAHkiMAOJAcAcCB5AgADtStBgBF3erAsPIZHmIWHlarAWBHJEcAcCA5AoADyREAHEiOAOBAcgQAh3CTYzEz6++tNq6exHf5TB3xl36209oyC3vkqDHebDHXrg4zOY41EfZSkcVaxNybVLfpvehZWL0I3yexW1qZ+8Zsy6ciaW/HJNf6WdNWce8b6LXuRFbteGgz286ZWP2KeNuy8JKj9i5kroHJNRm2AzNZieiJBM+YE0wT5CBL5YwNbSOwlCu72+2vrVMwJoElRz2xbu0WxGbfVIREE+SFKcqUXumphZAVs0uZy0CmkRcgDys5Fnd6dumflPcMUq+ssCWPdB4DVshd1UGJfeP2MOccjxpRMcPsTmNRhjlHb3WP+tWj18xlVE32l40a5F5ZXpX1Y2KebKyEmRybXQ8zz7iuFmR02AZ/FbZk3VvaCzLUIPdHIbPLua0TH/mI2gorOXaPyj8pDB+k/MHMifQ3Ov4ISN1rjLzqYC2wnqNermxtz0tzEUNIipmUnY7zqFc4Y7b8rQGM/PadpvCG1ZMbPcP08tXrmDsKGjRb7jJqw/6ZG4l7qWQ6HLtpjpGXY+YUQ3GAF7cA5xz15FqtRRaJyKixENMxK9hT7nP0QmtRRRNjf7HeupnbPQfZXpDRxr+Q+XbLK724aa/x4oAmgNkJ3HMmOcQaouW4I6P7qeSR/QuYmGMWK1fMSI6ei/dEW8q4M7L/BPQ6snEayTE8JMcAxXqimU0meg8Xso4tMyqSY3hIjgHiRAsPMQuPK2Zh3gQOAH9ZRxuXOAAHj7rVgWGIFh5iFh6G1QCwI5IjADiQHAHAgeQIAA4kRwBwIDkCgEO4ydGWR3DVqV6adXl9nn1cvsuHa1c7aySPKcjlC7vFnMYk5mLVDfQc8XcMppKvm+UO1rJ6Zbsrs0PP09ZmjZ/Jp/cyYsuyb1ZoX0TjMzKb3R4OkiO+nelpjuYDmebbO/R0JyuK+n+zYnYmaWbik9uN+A8FyRHf7HBKfYbKXqAOsNAZyRHfq7gTkxsH1CKHZwJPjvNy8WWjjarn8K2yVHpm8v6pvV4rpt8oSbi1oMOcI75B4Mkxea5Z/dQW1XP4VlsLMq8Py+4btcjLYVz5c6ZUEPAdGFbje3WPpK9/ZNQih2dIjvhmJ3Je1SLn1lT4hOSI/WvVq+5ObmQ6yCTtdWTz/uJCnNVbgT0gOWLvtutVd2WyWst6kch81FiI6fQklfhKt4bmeYFM45HpN+aj6uu4//USO4F7znwIYwtRrPWqazHGLHaumJEcPRffiRZvveoayTE8JMcAxXaixVyvukZyDA/JMUCcaOEhZuFxxYwFGQBwoOfoOXohYfm3//qP6hFC9H///c/qkZ572jjzgC/yr//579UjhOh///E/1SN6jt778+eP/Pjxo/oKvqt7js0eCPznihtzjgDgQHIEAAeSIwBsEfl/XlU69YOM5ksAAAAASUVORK5CYII=;" vertex="1" parent="1">
          <mxGeometry x="850" y="5800" width="327" height="224" as="geometry" />
        </mxCell>
        <mxCell id="ECMHKfFTUjoVE-dwBOPZ-44" value="0&lt;span style=&quot;white-space: pre;&quot;&gt;	&lt;/span&gt;4&lt;br&gt;0&lt;span style=&quot;white-space: pre;&quot;&gt;	&lt;/span&gt;A&lt;br&gt;0&lt;span style=&quot;white-space: pre;&quot;&gt;	&lt;/span&gt;4&lt;span style=&quot;white-space: pre;&quot;&gt;	&lt;/span&gt;4" style="whiteSpace=wrap;html=1;aspect=fixed;fillColor=#f8cecc;strokeColor=#b85450;" vertex="1" parent="1">
          <mxGeometry x="220" y="5850" width="80" height="80" as="geometry" />
        </mxCell>
        <mxCell id="ECMHKfFTUjoVE-dwBOPZ-45" value="4&lt;span style=&quot;white-space: pre;&quot;&gt;	&lt;/span&gt;9&lt;br&gt;6&lt;span style=&quot;white-space: pre;&quot;&gt;	&lt;/span&gt;B&lt;br&gt;10&lt;span style=&quot;white-space: pre;&quot;&gt;	&lt;/span&gt;5&lt;span style=&quot;white-space: pre;&quot;&gt;	&lt;/span&gt;15" style="whiteSpace=wrap;html=1;aspect=fixed;" vertex="1" parent="1">
          <mxGeometry x="370" y="5820" width="80" height="80" as="geometry" />
        </mxCell>
        <mxCell id="ECMHKfFTUjoVE-dwBOPZ-46" value="4&lt;span style=&quot;white-space: pre;&quot;&gt;	&lt;/span&gt;17&lt;br&gt;0&lt;span style=&quot;white-space: pre;&quot;&gt;	&lt;/span&gt;C&lt;br&gt;4&lt;span style=&quot;white-space: pre;&quot;&gt;	&lt;/span&gt;13&lt;span style=&quot;white-space: pre;&quot;&gt;	&lt;/span&gt;17" style="whiteSpace=wrap;html=1;aspect=fixed;fillColor=#f8cecc;strokeColor=#b85450;" vertex="1" parent="1">
          <mxGeometry x="370" y="5940" width="80" height="80" as="geometry" />
        </mxCell>
        <mxCell id="ECMHKfFTUjoVE-dwBOPZ-47" value="" style="endArrow=classic;html=1;rounded=0;exitX=1;exitY=0.5;exitDx=0;exitDy=0;entryX=0;entryY=0.5;entryDx=0;entryDy=0;" edge="1" parent="1" source="ECMHKfFTUjoVE-dwBOPZ-44" target="ECMHKfFTUjoVE-dwBOPZ-45">
          <mxGeometry width="50" height="50" relative="1" as="geometry">
            <mxPoint x="670" y="5910" as="sourcePoint" />
            <mxPoint x="720" y="5860" as="targetPoint" />
          </mxGeometry>
        </mxCell>
        <mxCell id="ECMHKfFTUjoVE-dwBOPZ-48" value="" style="endArrow=classic;html=1;rounded=0;exitX=1;exitY=0.5;exitDx=0;exitDy=0;entryX=0;entryY=0.5;entryDx=0;entryDy=0;" edge="1" parent="1" source="ECMHKfFTUjoVE-dwBOPZ-44" target="ECMHKfFTUjoVE-dwBOPZ-46">
          <mxGeometry width="50" height="50" relative="1" as="geometry">
            <mxPoint x="670" y="5910" as="sourcePoint" />
            <mxPoint x="720" y="5860" as="targetPoint" />
          </mxGeometry>
        </mxCell>
        <mxCell id="ECMHKfFTUjoVE-dwBOPZ-49" value="9&lt;span style=&quot;white-space: pre;&quot;&gt;	&lt;/span&gt;15&lt;br&gt;6&lt;span style=&quot;white-space: pre;&quot;&gt;	&lt;/span&gt;D&lt;br&gt;15&lt;span style=&quot;white-space: pre;&quot;&gt;	&lt;/span&gt;6&lt;span style=&quot;white-space: pre;&quot;&gt;	&lt;/span&gt;21" style="whiteSpace=wrap;html=1;aspect=fixed;" vertex="1" parent="1">
          <mxGeometry x="490" y="5820" width="80" height="80" as="geometry" />
        </mxCell>
        <mxCell id="ECMHKfFTUjoVE-dwBOPZ-50" value="" style="endArrow=classic;html=1;rounded=0;exitX=1;exitY=0.5;exitDx=0;exitDy=0;entryX=0;entryY=0.5;entryDx=0;entryDy=0;" edge="1" parent="1" source="ECMHKfFTUjoVE-dwBOPZ-45" target="ECMHKfFTUjoVE-dwBOPZ-49">
          <mxGeometry width="50" height="50" relative="1" as="geometry">
            <mxPoint x="670" y="5900" as="sourcePoint" />
            <mxPoint x="480" y="5860" as="targetPoint" />
          </mxGeometry>
        </mxCell>
        <mxCell id="ECMHKfFTUjoVE-dwBOPZ-51" value="17&lt;span style=&quot;white-space: pre;&quot;&gt;	&lt;/span&gt;21&lt;br&gt;0&lt;span style=&quot;white-space: pre;&quot;&gt;	&lt;/span&gt;E&lt;br&gt;17&lt;span style=&quot;white-space: pre;&quot;&gt;	&lt;/span&gt;4&lt;span style=&quot;white-space: pre;&quot;&gt;	&lt;/span&gt;21" style="whiteSpace=wrap;html=1;aspect=fixed;fillColor=#f8cecc;strokeColor=#b85450;" vertex="1" parent="1">
          <mxGeometry x="490" y="5940" width="80" height="80" as="geometry" />
        </mxCell>
        <mxCell id="ECMHKfFTUjoVE-dwBOPZ-52" value="17&lt;span style=&quot;white-space: pre;&quot;&gt;	&lt;/span&gt;22&lt;br&gt;6&lt;span style=&quot;white-space: pre;&quot;&gt;	&lt;/span&gt;F&lt;br&gt;23&lt;span style=&quot;white-space: pre;&quot;&gt;	&lt;/span&gt;5&lt;span style=&quot;white-space: pre;&quot;&gt;	&lt;/span&gt;28" style="whiteSpace=wrap;html=1;aspect=fixed;" vertex="1" parent="1">
          <mxGeometry x="620" y="6027" width="80" height="80" as="geometry" />
        </mxCell>
        <mxCell id="ECMHKfFTUjoVE-dwBOPZ-53" value="" style="endArrow=classic;html=1;rounded=0;exitX=1;exitY=0.5;exitDx=0;exitDy=0;entryX=0;entryY=0.5;entryDx=0;entryDy=0;" edge="1" parent="1" source="ECMHKfFTUjoVE-dwBOPZ-46" target="ECMHKfFTUjoVE-dwBOPZ-51">
          <mxGeometry width="50" height="50" relative="1" as="geometry">
            <mxPoint x="670" y="5950" as="sourcePoint" />
            <mxPoint x="720" y="5900" as="targetPoint" />
          </mxGeometry>
        </mxCell>
        <mxCell id="ECMHKfFTUjoVE-dwBOPZ-54" value="" style="endArrow=classic;html=1;rounded=0;exitX=1;exitY=0.5;exitDx=0;exitDy=0;entryX=0;entryY=0.5;entryDx=0;entryDy=0;" edge="1" parent="1" source="ECMHKfFTUjoVE-dwBOPZ-46" target="ECMHKfFTUjoVE-dwBOPZ-52">
          <mxGeometry width="50" height="50" relative="1" as="geometry">
            <mxPoint x="670" y="5950" as="sourcePoint" />
            <mxPoint x="720" y="5900" as="targetPoint" />
            <Array as="points">
              <mxPoint x="480" y="6067" />
            </Array>
          </mxGeometry>
        </mxCell>
        <mxCell id="ECMHKfFTUjoVE-dwBOPZ-55" value="21&lt;span style=&quot;white-space: pre;&quot;&gt;	&lt;/span&gt;28&lt;br&gt;0&lt;span style=&quot;white-space: pre;&quot;&gt;	&lt;/span&gt;G&lt;br&gt;21&lt;span style=&quot;white-space: pre;&quot;&gt;	&lt;/span&gt;7&lt;span style=&quot;white-space: pre;&quot;&gt;	&lt;/span&gt;28" style="whiteSpace=wrap;html=1;aspect=fixed;fillColor=#f8cecc;strokeColor=#b85450;" vertex="1" parent="1">
          <mxGeometry x="620" y="5870" width="80" height="80" as="geometry" />
        </mxCell>
        <mxCell id="ECMHKfFTUjoVE-dwBOPZ-56" value="" style="endArrow=classic;html=1;rounded=0;exitX=1;exitY=0.5;exitDx=0;exitDy=0;entryX=0;entryY=0.5;entryDx=0;entryDy=0;" edge="1" parent="1" source="ECMHKfFTUjoVE-dwBOPZ-49" target="ECMHKfFTUjoVE-dwBOPZ-55">
          <mxGeometry width="50" height="50" relative="1" as="geometry">
            <mxPoint x="670" y="5900" as="sourcePoint" />
            <mxPoint x="720" y="5850" as="targetPoint" />
          </mxGeometry>
        </mxCell>
        <mxCell id="ECMHKfFTUjoVE-dwBOPZ-57" value="" style="endArrow=classic;html=1;rounded=0;exitX=1;exitY=0.5;exitDx=0;exitDy=0;entryX=0;entryY=0.5;entryDx=0;entryDy=0;" edge="1" parent="1" source="ECMHKfFTUjoVE-dwBOPZ-51" target="ECMHKfFTUjoVE-dwBOPZ-55">
          <mxGeometry width="50" height="50" relative="1" as="geometry">
            <mxPoint x="670" y="5900" as="sourcePoint" />
            <mxPoint x="720" y="5850" as="targetPoint" />
          </mxGeometry>
        </mxCell>
        <mxCell id="ECMHKfFTUjoVE-dwBOPZ-58" value="28&lt;span style=&quot;white-space: pre;&quot;&gt;	&lt;/span&gt;29&lt;br&gt;0&lt;span style=&quot;white-space: pre;&quot;&gt;	&lt;/span&gt;H&lt;br&gt;28&lt;span style=&quot;white-space: pre;&quot;&gt;	&lt;/span&gt;1&lt;span style=&quot;white-space: pre;&quot;&gt;	&lt;/span&gt;29" style="whiteSpace=wrap;html=1;aspect=fixed;fillColor=#f8cecc;strokeColor=#b85450;" vertex="1" parent="1">
          <mxGeometry x="760" y="5940" width="80" height="80" as="geometry" />
        </mxCell>
        <mxCell id="ECMHKfFTUjoVE-dwBOPZ-59" value="" style="endArrow=classic;html=1;rounded=0;exitX=1;exitY=0.5;exitDx=0;exitDy=0;entryX=0;entryY=0.5;entryDx=0;entryDy=0;" edge="1" parent="1" source="ECMHKfFTUjoVE-dwBOPZ-52" target="ECMHKfFTUjoVE-dwBOPZ-58">
          <mxGeometry width="50" height="50" relative="1" as="geometry">
            <mxPoint x="670" y="5890" as="sourcePoint" />
            <mxPoint x="720" y="5840" as="targetPoint" />
          </mxGeometry>
        </mxCell>
        <mxCell id="ECMHKfFTUjoVE-dwBOPZ-60" value="" style="endArrow=classic;html=1;rounded=0;exitX=1;exitY=0.5;exitDx=0;exitDy=0;entryX=0;entryY=0.5;entryDx=0;entryDy=0;" edge="1" parent="1" source="ECMHKfFTUjoVE-dwBOPZ-55" target="ECMHKfFTUjoVE-dwBOPZ-58">
          <mxGeometry width="50" height="50" relative="1" as="geometry">
            <mxPoint x="670" y="5890" as="sourcePoint" />
            <mxPoint x="720" y="5840" as="targetPoint" />
          </mxGeometry>
        </mxCell>
        <mxCell id="ECMHKfFTUjoVE-dwBOPZ-61" value="ES&lt;span style=&quot;white-space: pre;&quot;&gt;	&lt;/span&gt;EF&lt;br&gt;Slack&lt;span style=&quot;white-space: pre;&quot;&gt;	&lt;/span&gt;ID&lt;br&gt;LS&lt;span style=&quot;white-space: pre;&quot;&gt;	&lt;/span&gt;Dur&lt;span style=&quot;white-space: pre;&quot;&gt;	&lt;/span&gt;LF&lt;br&gt;Red = Critical" style="whiteSpace=wrap;html=1;aspect=fixed;" vertex="1" parent="1">
          <mxGeometry x="230" y="6027" width="80" height="80" as="geometry" />
        </mxCell>
        <mxCell id="ECMHKfFTUjoVE-dwBOPZ-62" value="Key" style="text;html=1;strokeColor=none;fillColor=none;align=center;verticalAlign=middle;whiteSpace=wrap;rounded=0;" vertex="1" parent="1">
          <mxGeometry x="240" y="5997" width="60" height="30" as="geometry" />
        </mxCell>
      </root>
    </mxGraphModel>
  </diagram>
</mxfile>
